G04 Layer_Color=128*
%FSLAX25Y25*%
%MOIN*%
G70*
G01*
G75*
G04:AMPARAMS|DCode=10|XSize=45.67mil|YSize=57.87mil|CornerRadius=0mil|HoleSize=0mil|Usage=FLASHONLY|Rotation=315.000|XOffset=0mil|YOffset=0mil|HoleType=Round|Shape=Rectangle|*
%AMROTATEDRECTD10*
4,1,4,-0.03661,-0.00432,0.00432,0.03661,0.03661,0.00432,-0.00432,-0.03661,-0.03661,-0.00432,0.0*
%
%ADD10ROTATEDRECTD10*%

%ADD11R,0.04567X0.05787*%
%ADD35R,0.07087X0.05315*%
%ADD36R,0.09449X0.07480*%
%ADD37R,0.04331X0.02362*%
%ADD38R,0.13780X0.08661*%
%ADD39R,0.03937X0.08661*%
%ADD40O,0.07087X0.01102*%
%ADD41O,0.01102X0.07087*%
%ADD42O,0.01102X0.02756*%
%ADD43O,0.02756X0.01102*%
%ADD44R,0.10551X0.10551*%
D10*
X82578Y78922D02*
D03*
X77622Y83878D02*
D03*
X70022Y76178D02*
D03*
X74978Y71222D02*
D03*
X75778Y43922D02*
D03*
X70822Y48878D02*
D03*
X61678Y57622D02*
D03*
X56722Y62578D02*
D03*
X40478Y35922D02*
D03*
X35522Y40878D02*
D03*
X54178Y22222D02*
D03*
X49222Y27178D02*
D03*
X31078Y-1578D02*
D03*
X26122Y3378D02*
D03*
X141978Y138122D02*
D03*
X137022Y143078D02*
D03*
X157978Y121922D02*
D03*
X153022Y126878D02*
D03*
X164178Y160322D02*
D03*
X159222Y165278D02*
D03*
X180278Y144522D02*
D03*
X175322Y149478D02*
D03*
X186478Y182422D02*
D03*
X181522Y187378D02*
D03*
X202878Y166122D02*
D03*
X197922Y171078D02*
D03*
X209078Y205222D02*
D03*
X204122Y210178D02*
D03*
X225978Y188922D02*
D03*
X221022Y193878D02*
D03*
X16778Y12022D02*
D03*
X11822Y16978D02*
D03*
D11*
X82604Y210800D02*
D03*
X75596D02*
D03*
X82604Y201200D02*
D03*
X75596D02*
D03*
X127804Y179700D02*
D03*
X120796D02*
D03*
X127804Y162000D02*
D03*
X120796D02*
D03*
X77496Y119300D02*
D03*
X84504D02*
D03*
X77496Y99700D02*
D03*
X84504D02*
D03*
X143504Y119300D02*
D03*
X136496D02*
D03*
X143604Y99600D02*
D03*
X136596D02*
D03*
X77504Y220200D02*
D03*
X70496D02*
D03*
X38204Y208500D02*
D03*
X31196D02*
D03*
X185804Y41000D02*
D03*
X178796D02*
D03*
X145904Y48100D02*
D03*
X138896D02*
D03*
X139096Y35400D02*
D03*
X146104D02*
D03*
X41504Y127900D02*
D03*
X34496D02*
D03*
X41404Y138400D02*
D03*
X34396D02*
D03*
X31104Y182900D02*
D03*
X24096D02*
D03*
X30904Y192700D02*
D03*
X23896D02*
D03*
X112504Y139500D02*
D03*
X105496D02*
D03*
X88996Y169900D02*
D03*
X96004D02*
D03*
X96104Y159200D02*
D03*
X89096D02*
D03*
X89296Y149500D02*
D03*
X96304D02*
D03*
X89196Y139400D02*
D03*
X96204D02*
D03*
X38304Y226800D02*
D03*
X31296D02*
D03*
X82596Y191800D02*
D03*
X89604D02*
D03*
Y182400D02*
D03*
X82596D02*
D03*
X59504Y200200D02*
D03*
X52496D02*
D03*
X60104Y241900D02*
D03*
X53096D02*
D03*
X60704Y264800D02*
D03*
X53696D02*
D03*
D35*
X179443Y54700D02*
D03*
X189758D02*
D03*
X185958Y103600D02*
D03*
X175643D02*
D03*
X51442Y231900D02*
D03*
X61757D02*
D03*
D36*
X107800Y162729D02*
D03*
Y178871D02*
D03*
D37*
X156188Y46740D02*
D03*
Y39260D02*
D03*
X167212D02*
D03*
Y43000D02*
D03*
Y46740D02*
D03*
D38*
X186100Y90411D02*
D03*
D39*
X177045Y66789D02*
D03*
X186100D02*
D03*
X195155D02*
D03*
D40*
X72745Y177127D02*
D03*
Y175158D02*
D03*
Y173190D02*
D03*
Y171221D02*
D03*
Y169253D02*
D03*
Y167284D02*
D03*
Y165316D02*
D03*
Y163347D02*
D03*
Y161379D02*
D03*
Y159410D02*
D03*
Y157442D02*
D03*
Y155473D02*
D03*
X40855D02*
D03*
Y157442D02*
D03*
Y159410D02*
D03*
Y161379D02*
D03*
Y163347D02*
D03*
Y165316D02*
D03*
Y167284D02*
D03*
Y169253D02*
D03*
Y171221D02*
D03*
Y173190D02*
D03*
Y175158D02*
D03*
Y177127D02*
D03*
D41*
X67627Y150355D02*
D03*
X65658D02*
D03*
X63690D02*
D03*
X61721D02*
D03*
X59753D02*
D03*
X57784D02*
D03*
X55816D02*
D03*
X53847D02*
D03*
X51879D02*
D03*
X49910D02*
D03*
X47942D02*
D03*
X45973D02*
D03*
Y182245D02*
D03*
X47942D02*
D03*
X49910D02*
D03*
X51879D02*
D03*
X53847D02*
D03*
X55816D02*
D03*
X57784D02*
D03*
X59753D02*
D03*
X61721D02*
D03*
X63690D02*
D03*
X65658D02*
D03*
X67627D02*
D03*
D42*
X61321Y207926D02*
D03*
X59353D02*
D03*
X57384D02*
D03*
X55416D02*
D03*
X53447D02*
D03*
X51479D02*
D03*
Y223674D02*
D03*
X53447D02*
D03*
X55416D02*
D03*
X57384D02*
D03*
X59353D02*
D03*
X61321D02*
D03*
D43*
X48526Y210879D02*
D03*
Y212847D02*
D03*
Y214816D02*
D03*
Y216784D02*
D03*
Y218753D02*
D03*
Y220721D02*
D03*
X64274D02*
D03*
Y218753D02*
D03*
Y216784D02*
D03*
Y214816D02*
D03*
Y212847D02*
D03*
Y210879D02*
D03*
D44*
X56400Y215800D02*
D03*
M02*
