G04 Layer_Color=65535*
%FSLAX25Y25*%
%MOIN*%
G70*
G01*
G75*
%ADD15C,0.01000*%
%ADD46C,0.00787*%
%ADD47C,0.00600*%
G04:AMPARAMS|DCode=48|XSize=11.81mil|YSize=62.99mil|CornerRadius=0mil|HoleSize=0mil|Usage=FLASHONLY|Rotation=135.000|XOffset=0mil|YOffset=0mil|HoleType=Round|Shape=Rectangle|*
%AMROTATEDRECTD48*
4,1,4,0.02645,0.01810,-0.01810,-0.02645,-0.02645,-0.01810,0.01810,0.02645,0.02645,0.01810,0.0*
%
%ADD48ROTATEDRECTD48*%

%ADD49R,0.01181X0.06299*%
D15*
X192141Y227041D02*
X187900Y222800D01*
X190021Y220679D01*
X191434D01*
X194262Y223507D01*
Y224921D01*
X192141Y227041D01*
Y218559D02*
X193555Y217145D01*
X192848Y217852D01*
X197089Y222093D01*
X195676D01*
X197796Y212904D02*
X202038Y217145D01*
X197796D01*
X200624Y214317D01*
X223000Y200700D02*
X227241Y204941D01*
X229362Y202821D01*
Y201407D01*
X227948Y199993D01*
X226534D01*
X224414Y202114D01*
X225828Y200700D02*
Y197872D01*
X230069Y193631D02*
X227241Y196459D01*
X232896D01*
X233603Y197166D01*
Y198579D01*
X232189Y199993D01*
X230776D01*
X231483Y192218D02*
X232896Y190804D01*
X232189Y191511D01*
X236431Y195752D01*
X235017D01*
X200500Y178400D02*
X204741Y182641D01*
X206862Y180521D01*
Y179107D01*
X205448Y177693D01*
X204034D01*
X201914Y179814D01*
X203327Y178400D02*
Y175573D01*
X207569Y171331D02*
X204741Y174159D01*
X210396D01*
X211103Y174866D01*
Y176279D01*
X209689Y177693D01*
X208276D01*
X216051Y171331D02*
X213224Y174159D01*
X211103Y172038D01*
X213224Y171331D01*
X213931Y170624D01*
Y169211D01*
X212517Y167797D01*
X211103D01*
X209689Y169211D01*
Y170624D01*
X187841Y197941D02*
X183600Y193700D01*
X185721Y191579D01*
X187134D01*
X189962Y194407D01*
Y195821D01*
X187841Y197941D01*
Y189459D02*
X189255Y188045D01*
X188548Y188752D01*
X192789Y192993D01*
X191376D01*
X198444Y187338D02*
X196324Y188045D01*
X193496D01*
X192083Y186631D01*
Y185217D01*
X193496Y183804D01*
X194910D01*
X195617Y184511D01*
Y185924D01*
X193496Y188045D01*
X164641Y176641D02*
X160400Y172400D01*
X162521Y170279D01*
X163934D01*
X166762Y173107D01*
Y174521D01*
X164641Y176641D01*
X167469Y165331D02*
X164641Y168159D01*
X170296D01*
X171003Y168866D01*
Y170279D01*
X169589Y171693D01*
X168176D01*
X172417Y167452D02*
X173831D01*
X175244Y166038D01*
Y164624D01*
X172417Y161797D01*
X171003D01*
X169589Y163211D01*
Y164624D01*
X172417Y167452D01*
X176600Y156400D02*
X180841Y160641D01*
X182962Y158521D01*
Y157107D01*
X181548Y155693D01*
X180134D01*
X178014Y157814D01*
X179428Y156400D02*
Y153572D01*
X183669Y149331D02*
X180841Y152159D01*
X186496D01*
X187203Y152866D01*
Y154279D01*
X185789Y155693D01*
X184376D01*
X188617Y151452D02*
X190031D01*
X191444Y150038D01*
Y148624D01*
X190738Y147917D01*
X189324D01*
Y146504D01*
X188617Y145797D01*
X187203D01*
X185789Y147211D01*
Y148624D01*
X186496Y149331D01*
X187910D01*
Y150745D01*
X188617Y151452D01*
X187910Y149331D02*
X189324Y147917D01*
X143141Y154141D02*
X138900Y149900D01*
X141021Y147779D01*
X142434D01*
X145262Y150607D01*
Y152021D01*
X143141Y154141D01*
X145969Y142831D02*
X143141Y145659D01*
X148796D01*
X149503Y146366D01*
Y147779D01*
X148089Y149193D01*
X146676D01*
X150917Y144952D02*
X152331D01*
X153744Y143538D01*
Y142124D01*
X153038Y141418D01*
X151624D01*
X150917Y142124D01*
X151624Y141418D01*
Y140004D01*
X150917Y139297D01*
X149503D01*
X148089Y140711D01*
Y142124D01*
X155100Y133100D02*
X159341Y137341D01*
X161462Y135221D01*
Y133807D01*
X160048Y132393D01*
X158634D01*
X156514Y134514D01*
X157928Y133100D02*
Y130272D01*
X162876Y132393D02*
X164289D01*
X165703Y130979D01*
Y129566D01*
X164996Y128859D01*
X163583D01*
X162876Y129566D01*
X163583Y128859D01*
Y127445D01*
X162876Y126738D01*
X161462D01*
X160048Y128152D01*
Y129566D01*
X163583Y124618D02*
X164996Y123204D01*
X164289Y123911D01*
X168531Y128152D01*
X167117D01*
X73300Y123898D02*
Y117900D01*
X76299D01*
X77299Y118900D01*
Y122898D01*
X76299Y123898D01*
X73300D01*
X83297Y117900D02*
X79298D01*
X83297Y121899D01*
Y122898D01*
X82297Y123898D01*
X80298D01*
X79298Y122898D01*
X88295Y117900D02*
Y123898D01*
X85296Y120899D01*
X89295D01*
X133800Y101998D02*
Y96000D01*
X136799D01*
X137799Y97000D01*
Y100998D01*
X136799Y101998D01*
X133800D01*
X139798Y96000D02*
X141797D01*
X140798D01*
Y101998D01*
X139798Y100998D01*
X144796D02*
X145796Y101998D01*
X147795D01*
X148795Y100998D01*
Y99999D01*
X147795Y98999D01*
X148795Y97999D01*
Y97000D01*
X147795Y96000D01*
X145796D01*
X144796Y97000D01*
Y97999D01*
X145796Y98999D01*
X144796Y99999D01*
Y100998D01*
X145796Y98999D02*
X147795D01*
X66941Y99241D02*
X62700Y95000D01*
X64821Y92879D01*
X66234D01*
X69062Y95707D01*
Y97121D01*
X66941Y99241D01*
Y90759D02*
X68355Y89345D01*
X67648Y90052D01*
X71889Y94293D01*
X70476D01*
Y87224D02*
X71889Y85811D01*
X71183Y86518D01*
X75424Y90759D01*
X74010D01*
X53700Y88400D02*
X57941Y92641D01*
X60062Y90521D01*
Y89107D01*
X58648Y87693D01*
X57234D01*
X55114Y89814D01*
X56528Y88400D02*
Y85572D01*
X57941Y84159D02*
X59355Y82745D01*
X58648Y83452D01*
X62889Y87693D01*
X61476D01*
X65010Y84159D02*
X66424D01*
X67838Y82745D01*
Y81331D01*
X67131Y80624D01*
X65717D01*
Y79211D01*
X65010Y78504D01*
X63596D01*
X62182Y79918D01*
Y81331D01*
X62889Y82038D01*
X64303D01*
Y83452D01*
X65010Y84159D01*
X64303Y82038D02*
X65717Y80624D01*
X47541Y76241D02*
X43300Y72000D01*
X45421Y69879D01*
X46834D01*
X49662Y72707D01*
Y74121D01*
X47541Y76241D01*
X48248Y68466D02*
Y67052D01*
X49662Y65638D01*
X51076D01*
X53903Y68466D01*
Y69879D01*
X52489Y71293D01*
X51076D01*
X50369Y70586D01*
Y69173D01*
X52489Y67052D01*
X69600Y58300D02*
X73841Y62541D01*
X75962Y60421D01*
Y59007D01*
X74548Y57593D01*
X73134D01*
X71014Y59714D01*
X72427Y58300D02*
Y55472D01*
X73841Y54059D02*
X75255Y52645D01*
X74548Y53352D01*
X78789Y57593D01*
X77376D01*
X84444Y51938D02*
X82324Y52645D01*
X79496D01*
X78083Y51231D01*
Y49817D01*
X79496Y48404D01*
X80910D01*
X81617Y49111D01*
Y50524D01*
X79496Y52645D01*
X50800Y34400D02*
X55041Y38641D01*
X57162Y36521D01*
Y35107D01*
X55748Y33693D01*
X54334D01*
X52214Y35814D01*
X53628Y34400D02*
Y31572D01*
X55041Y30159D02*
X56455Y28745D01*
X55748Y29452D01*
X59989Y33693D01*
X58576D01*
X60696Y24504D02*
X64938Y28745D01*
X60696D01*
X63524Y25918D01*
X82600Y175398D02*
Y169400D01*
X85599D01*
X86599Y170400D01*
Y174398D01*
X85599Y175398D01*
X82600D01*
X88598Y169400D02*
X90597D01*
X89598D01*
Y175398D01*
X88598Y174398D01*
X82500Y164798D02*
Y158800D01*
X85499D01*
X86499Y159800D01*
Y163798D01*
X85499Y164798D01*
X82500D01*
X92497Y158800D02*
X88498D01*
X92497Y162799D01*
Y163798D01*
X91497Y164798D01*
X89498D01*
X88498Y163798D01*
X84100Y47998D02*
Y42000D01*
X87099D01*
X88099Y43000D01*
Y46998D01*
X87099Y47998D01*
X84100D01*
X90098Y46998D02*
X91098Y47998D01*
X93097D01*
X94097Y46998D01*
Y45999D01*
X93097Y44999D01*
X92097D01*
X93097D01*
X94097Y43999D01*
Y43000D01*
X93097Y42000D01*
X91098D01*
X90098Y43000D01*
X19741Y27641D02*
X15500Y23400D01*
X17621Y21279D01*
X19034D01*
X21862Y24107D01*
Y25521D01*
X19741Y27641D01*
X26810Y20572D02*
X23982Y23400D01*
X21862Y21279D01*
X23982Y20572D01*
X24689Y19866D01*
Y18452D01*
X23276Y17038D01*
X21862D01*
X20448Y18452D01*
Y19866D01*
X41741Y51441D02*
X37500Y47200D01*
X39621Y45079D01*
X41034D01*
X43862Y47907D01*
Y49321D01*
X41741Y51441D01*
X45983Y47200D02*
X48810Y44372D01*
X48103Y43666D01*
X42448Y43666D01*
X41741Y42959D01*
X84400Y37998D02*
Y32000D01*
X87399D01*
X88399Y33000D01*
Y36998D01*
X87399Y37998D01*
X84400D01*
X93397Y32000D02*
Y37998D01*
X90398Y34999D01*
X94397D01*
X140100Y-45002D02*
Y-51000D01*
X143099D01*
X144099Y-50000D01*
Y-46002D01*
X143099Y-45002D01*
X140100D01*
X150097Y-46002D02*
X149097Y-45002D01*
X147098D01*
X146098Y-46002D01*
Y-50000D01*
X147098Y-51000D01*
X149097D01*
X150097Y-50000D01*
X156095Y-45002D02*
X152096D01*
Y-48001D01*
X154095Y-47001D01*
X155095D01*
X156095Y-48001D01*
Y-50000D01*
X155095Y-51000D01*
X153096D01*
X152096Y-50000D01*
X158094Y-51000D02*
Y-50000D01*
X159094D01*
Y-51000D01*
X158094D01*
X163093Y-46002D02*
X164092Y-45002D01*
X166092D01*
X167091Y-46002D01*
Y-50000D01*
X166092Y-51000D01*
X164092D01*
X163093Y-50000D01*
Y-46002D01*
X262700Y40800D02*
Y46798D01*
X265699D01*
X266699Y45798D01*
Y43799D01*
X265699Y42799D01*
X262700D01*
X272697Y46798D02*
X270697Y45798D01*
X268698Y43799D01*
Y41800D01*
X269698Y40800D01*
X271697D01*
X272697Y41800D01*
Y42799D01*
X271697Y43799D01*
X268698D01*
X94300Y278900D02*
Y284898D01*
X97299D01*
X98299Y283898D01*
Y281899D01*
X97299Y280899D01*
X94300D01*
X100298Y284898D02*
X104297D01*
Y283898D01*
X100298Y279900D01*
Y278900D01*
X35000Y266100D02*
Y272098D01*
X37999D01*
X38999Y271098D01*
Y269099D01*
X37999Y268099D01*
X35000D01*
X43997Y266100D02*
Y272098D01*
X40998Y269099D01*
X44997D01*
X-63200Y69100D02*
Y75098D01*
X-60201D01*
X-59201Y74098D01*
Y72099D01*
X-60201Y71099D01*
X-63200D01*
X-53203Y69100D02*
X-57202D01*
X-53203Y73099D01*
Y74098D01*
X-54203Y75098D01*
X-56202D01*
X-57202Y74098D01*
X-61400Y160500D02*
Y166498D01*
X-58401D01*
X-57401Y165498D01*
Y163499D01*
X-58401Y162499D01*
X-61400D01*
X-55402Y165498D02*
X-54402Y166498D01*
X-52403D01*
X-51403Y165498D01*
Y164499D01*
X-52403Y163499D01*
X-53403D01*
X-52403D01*
X-51403Y162499D01*
Y161500D01*
X-52403Y160500D01*
X-54402D01*
X-55402Y161500D01*
X206900Y249600D02*
Y255598D01*
X209899D01*
X210899Y254598D01*
Y252599D01*
X209899Y251599D01*
X206900D01*
X212898Y249600D02*
X214897D01*
X213898D01*
Y255598D01*
X212898Y254598D01*
X128300Y159100D02*
Y165098D01*
X131299D01*
X132299Y164098D01*
Y162099D01*
X131299Y161099D01*
X128300D01*
X130299D02*
X132299Y159100D01*
X138297Y165098D02*
X134298D01*
Y162099D01*
X136297Y163099D01*
X137297D01*
X138297Y162099D01*
Y160100D01*
X137297Y159100D01*
X135298D01*
X134298Y160100D01*
X128200Y169300D02*
Y175298D01*
X131199D01*
X132199Y174298D01*
Y172299D01*
X131199Y171299D01*
X128200D01*
X130199D02*
X132199Y169300D01*
X137197D02*
Y175298D01*
X134198Y172299D01*
X138197D01*
X28000Y11400D02*
X32241Y15641D01*
X34362Y13521D01*
Y12107D01*
X32948Y10693D01*
X31534D01*
X29414Y12814D01*
X30828Y11400D02*
Y8573D01*
X32241Y7159D02*
X33655Y5745D01*
X32948Y6452D01*
X37189Y10693D01*
X35776D01*
X38603Y797D02*
X35776Y3624D01*
X41431D01*
X42138Y4331D01*
Y5745D01*
X40724Y7159D01*
X39310D01*
X129400Y43000D02*
Y48998D01*
X132399D01*
X133399Y47998D01*
Y45999D01*
X132399Y44999D01*
X129400D01*
X131399D02*
X133399Y43000D01*
X135398Y44000D02*
X136398Y43000D01*
X138397D01*
X139397Y44000D01*
Y47998D01*
X138397Y48998D01*
X136398D01*
X135398Y47998D01*
Y46999D01*
X136398Y45999D01*
X139397D01*
X129900Y32400D02*
Y38398D01*
X132899D01*
X133899Y37398D01*
Y35399D01*
X132899Y34399D01*
X129900D01*
X131899D02*
X133899Y32400D01*
X135898D02*
X137897D01*
X136898D01*
Y38398D01*
X135898Y37398D01*
X140896Y32400D02*
X142896D01*
X141896D01*
Y38398D01*
X140896Y37398D01*
X-24800Y220500D02*
Y226498D01*
X-21801D01*
X-20801Y225498D01*
Y223499D01*
X-21801Y222499D01*
X-24800D01*
X-14803Y226498D02*
X-18802D01*
Y223499D01*
X-16803Y224499D01*
X-15803D01*
X-14803Y223499D01*
Y221500D01*
X-15803Y220500D01*
X-17802D01*
X-18802Y221500D01*
X17300Y222100D02*
Y228098D01*
X20299D01*
X21299Y227098D01*
Y225099D01*
X20299Y224099D01*
X17300D01*
X19299D02*
X21299Y222100D01*
X24298D02*
X26297D01*
X27297Y223100D01*
Y225099D01*
X26297Y226099D01*
X24298D01*
X23298Y225099D01*
Y223100D01*
X24298Y222100D01*
X29296D02*
X31295D01*
X30296D01*
Y228098D01*
X29296D01*
X34295Y222100D02*
X36294D01*
X35294D01*
Y228098D01*
X34295D01*
X39293Y222100D02*
X41292D01*
X40293D01*
Y226099D01*
X39293D01*
X44291Y222100D02*
Y226099D01*
X47290D01*
X48290Y225099D01*
Y222100D01*
X52289Y220101D02*
X53288D01*
X54288Y221100D01*
Y226099D01*
X51289D01*
X50289Y225099D01*
Y223100D01*
X51289Y222100D01*
X54288D01*
X56287Y228098D02*
Y222100D01*
X59286D01*
X60286Y223100D01*
Y224099D01*
X59286Y225099D01*
X56287D01*
X59286D01*
X60286Y226099D01*
Y227098D01*
X59286Y228098D01*
X56287D01*
X63285Y226099D02*
X65285D01*
X66284Y225099D01*
Y222100D01*
X63285D01*
X62285Y223100D01*
X63285Y224099D01*
X66284D01*
X68283Y222100D02*
X70283D01*
X69283D01*
Y228098D01*
X68283D01*
X73282Y222100D02*
X75281D01*
X74282D01*
Y228098D01*
X73282D01*
X17300Y204198D02*
Y198200D01*
X20299D01*
X21299Y199200D01*
Y203198D01*
X20299Y204198D01*
X17300D01*
X26297Y198200D02*
X24298D01*
X23298Y199200D01*
Y201199D01*
X24298Y202199D01*
X26297D01*
X27297Y201199D01*
Y200199D01*
X23298D01*
X29296Y198200D02*
X32295D01*
X33295Y199200D01*
X32295Y200199D01*
X30296D01*
X29296Y201199D01*
X30296Y202199D01*
X33295D01*
X35294Y198200D02*
X37293D01*
X36294D01*
Y202199D01*
X35294D01*
X42292Y196201D02*
X43292D01*
X44291Y197200D01*
Y202199D01*
X41292D01*
X40293Y201199D01*
Y199200D01*
X41292Y198200D01*
X44291D01*
X46291D02*
Y202199D01*
X49290D01*
X50289Y201199D01*
Y198200D01*
X55288D02*
X53288D01*
X52289Y199200D01*
Y201199D01*
X53288Y202199D01*
X55288D01*
X56287Y201199D01*
Y200199D01*
X52289D01*
X62286Y204198D02*
Y198200D01*
X59286D01*
X58287Y199200D01*
Y201199D01*
X59286Y202199D01*
X62286D01*
X70283Y204198D02*
Y198200D01*
X73282D01*
X74282Y199200D01*
Y200199D01*
Y201199D01*
X73282Y202199D01*
X70283D01*
X76281D02*
Y199200D01*
X77281Y198200D01*
X80280D01*
Y197200D01*
X79280Y196201D01*
X78280D01*
X80280Y198200D02*
Y202199D01*
X88277Y204198D02*
Y198200D01*
X91276D01*
X92276Y199200D01*
Y203198D01*
X91276Y204198D01*
X88277D01*
X95275Y198200D02*
X97274D01*
X98274Y199200D01*
Y201199D01*
X97274Y202199D01*
X95275D01*
X94275Y201199D01*
Y199200D01*
X95275Y198200D01*
X100273Y202199D02*
Y199200D01*
X101273Y198200D01*
X104272D01*
Y202199D01*
X106271Y204198D02*
Y198200D01*
X109270D01*
X110270Y199200D01*
Y200199D01*
Y201199D01*
X109270Y202199D01*
X106271D01*
X112269Y198200D02*
X114269D01*
X113269D01*
Y204198D01*
X112269D01*
X120267Y198200D02*
X118267D01*
X117268Y199200D01*
Y201199D01*
X118267Y202199D01*
X120267D01*
X121266Y201199D01*
Y200199D01*
X117268D01*
X123266Y204198D02*
Y198200D01*
Y201199D01*
X127264D01*
Y204198D01*
Y198200D01*
X130263Y202199D02*
X132263D01*
X133263Y201199D01*
Y198200D01*
X130263D01*
X129264Y199200D01*
X130263Y200199D01*
X133263D01*
X135262Y198200D02*
Y202199D01*
X138261D01*
X139260Y201199D01*
Y198200D01*
X17300Y210000D02*
Y215998D01*
X19299Y213999D01*
X21299Y215998D01*
Y210000D01*
X24298Y213999D02*
X26297D01*
X27297Y212999D01*
Y210000D01*
X24298D01*
X23298Y211000D01*
X24298Y211999D01*
X27297D01*
X29296Y213999D02*
Y211000D01*
X30296Y210000D01*
X33295D01*
Y209000D01*
X32295Y208001D01*
X31295D01*
X33295Y210000D02*
Y213999D01*
X35294Y210000D02*
Y211000D01*
X36294D01*
Y210000D01*
X35294D01*
X40293Y214998D02*
X41292Y215998D01*
X43292D01*
X44291Y214998D01*
Y211000D01*
X43292Y210000D01*
X41292D01*
X40293Y211000D01*
Y214998D01*
X46291Y215998D02*
X50289D01*
Y214998D01*
X46291Y211000D01*
Y210000D01*
X53288Y209000D02*
X54288Y210000D01*
Y211000D01*
X53288D01*
Y210000D01*
X54288D01*
X53288Y209000D01*
X52289Y208001D01*
X62286Y210000D02*
X58287D01*
X62286Y213999D01*
Y214998D01*
X61286Y215998D01*
X59286D01*
X58287Y214998D01*
X64285D02*
X65285Y215998D01*
X67284D01*
X68283Y214998D01*
Y211000D01*
X67284Y210000D01*
X65285D01*
X64285Y211000D01*
Y214998D01*
X70283Y210000D02*
X72282D01*
X71283D01*
Y215998D01*
X70283Y214998D01*
X75281Y215998D02*
X79280D01*
Y214998D01*
X75281Y211000D01*
Y210000D01*
X89800Y64899D02*
X93799D01*
X91799Y66898D02*
Y62900D01*
X116600Y64899D02*
X120599D01*
X118599Y66898D02*
Y62900D01*
X128500Y64899D02*
X132499D01*
X101400D02*
X105399D01*
D46*
X104160Y123512D02*
G03*
X93840Y123512I-5161J-3612D01*
G01*
X91466Y114877D02*
G03*
X91466Y124923I7534J5023D01*
G01*
X93840Y116288D02*
G03*
X104160Y116288I5161J3612D01*
G01*
X117139Y96088D02*
G03*
X127461Y96088I5161J3612D01*
G01*
X129834Y104723D02*
G03*
X129834Y94677I-7534J-5023D01*
G01*
X127461Y103312D02*
G03*
X117139Y103312I-5161J-3612D01*
G01*
X210634Y209129D02*
X213655Y206108D01*
Y204800D02*
Y206108D01*
X207934Y200304D02*
X209200Y200345D01*
X204871Y203366D02*
X207934Y200304D01*
X198691Y209546D02*
X202366Y205871D01*
X204454Y215309D02*
X208129Y211634D01*
X209200Y200345D02*
X213655Y204800D01*
X198691Y209546D02*
X204454Y215309D01*
X221654Y199209D02*
X225329Y195534D01*
X227834Y193029D02*
X231509Y189354D01*
X222071Y187266D02*
X225746Y183591D01*
X215891Y193446D02*
X219566Y189771D01*
X215891Y193446D02*
X221654Y199209D01*
X225746Y183591D02*
X231509Y189354D01*
X198354Y176509D02*
X202029Y172834D01*
X204534Y170329D02*
X208209Y166654D01*
X198771Y164566D02*
X202446Y160891D01*
X192591Y170746D02*
X196266Y167071D01*
X192591Y170746D02*
X198354Y176509D01*
X202446Y160891D02*
X208209Y166654D01*
X188034Y186529D02*
X191055Y183508D01*
Y182200D02*
Y183508D01*
X185334Y177704D02*
X186600Y177745D01*
X182271Y180766D02*
X185334Y177704D01*
X176091Y186946D02*
X179766Y183271D01*
X181854Y192709D02*
X185529Y189034D01*
X186600Y177745D02*
X191055Y182200D01*
X176091Y186946D02*
X181854Y192709D01*
X165834Y164429D02*
X168855Y161408D01*
Y160100D02*
Y161408D01*
X163134Y155604D02*
X164400Y155645D01*
X160071Y158666D02*
X163134Y155604D01*
X153891Y164846D02*
X157566Y161171D01*
X159654Y170609D02*
X163329Y166934D01*
X164400Y155645D02*
X168855Y160100D01*
X153891Y164846D02*
X159654Y170609D01*
X175654Y154709D02*
X179329Y151034D01*
X181834Y148529D02*
X185509Y144854D01*
X176071Y142766D02*
X179746Y139091D01*
X169891Y148946D02*
X173566Y145271D01*
X169891Y148946D02*
X175654Y154709D01*
X179746Y139091D02*
X185509Y144854D01*
X143734Y142229D02*
X146755Y139208D01*
Y137900D02*
Y139208D01*
X141034Y133404D02*
X142300Y133445D01*
X137971Y136466D02*
X141034Y133404D01*
X131791Y142646D02*
X135466Y138971D01*
X137554Y148409D02*
X141229Y144734D01*
X142300Y133445D02*
X146755Y137900D01*
X131791Y142646D02*
X137554Y148409D01*
X153554Y132209D02*
X157229Y128534D01*
X159734Y126029D02*
X163409Y122354D01*
X153971Y120266D02*
X157646Y116591D01*
X147791Y126446D02*
X151466Y122771D01*
X147791Y126446D02*
X153554Y132209D01*
X157646Y116591D02*
X163409Y122354D01*
X91466Y122400D02*
Y124923D01*
Y114854D02*
Y117377D01*
X129834Y94677D02*
Y97200D01*
Y102223D02*
Y104746D01*
X84134Y83029D02*
X87155Y80008D01*
Y78700D02*
Y80008D01*
X81434Y74204D02*
X82700Y74245D01*
X78371Y77266D02*
X81434Y74204D01*
X72191Y83446D02*
X75866Y79771D01*
X77954Y89209D02*
X81629Y85534D01*
X82700Y74245D02*
X87155Y78700D01*
X72191Y83446D02*
X77954Y89209D01*
X70871Y69566D02*
X74546Y65891D01*
X64691Y75746D02*
X68366Y72071D01*
X70454Y81509D02*
X74129Y77834D01*
X76634Y75329D02*
X80309Y71654D01*
X74546Y65891D02*
X80309Y71654D01*
X64691Y75746D02*
X70454Y81509D01*
X63434Y61729D02*
X66455Y58708D01*
Y57400D02*
Y58708D01*
X60734Y52904D02*
X62000Y52945D01*
X57671Y55966D02*
X60734Y52904D01*
X51491Y62146D02*
X55166Y58471D01*
X57254Y67909D02*
X60929Y64234D01*
X62000Y52945D02*
X66455Y57400D01*
X51491Y62146D02*
X57254Y67909D01*
X71354Y54309D02*
X75029Y50634D01*
X77534Y48129D02*
X81209Y44454D01*
X71771Y42366D02*
X75446Y38691D01*
X65591Y48546D02*
X69266Y44871D01*
X65591Y48546D02*
X71354Y54309D01*
X75446Y38691D02*
X81209Y44454D01*
X49754Y32609D02*
X53429Y28934D01*
X55934Y26429D02*
X59609Y22754D01*
X50171Y20666D02*
X53846Y16991D01*
X43991Y26846D02*
X47666Y23171D01*
X43991Y26846D02*
X49754Y32609D01*
X53846Y16991D02*
X59609Y22754D01*
X94532Y168225D02*
Y176375D01*
X108468Y169150D02*
Y175450D01*
X94532Y176375D02*
X99728D01*
X94532Y168225D02*
X99728D01*
X103272D02*
X107602D01*
X108468Y169150D01*
X107543Y176375D02*
X108468Y175450D01*
X103272Y176375D02*
X107543D01*
X94532Y158025D02*
Y166175D01*
X108468Y158950D02*
Y165250D01*
X94532Y166175D02*
X99728D01*
X94532Y158025D02*
X99728D01*
X103272D02*
X107602D01*
X108468Y158950D01*
X107543Y166175D02*
X108468Y165250D01*
X103272Y166175D02*
X107543D01*
X112432Y158025D02*
Y166175D01*
X126368Y158025D02*
Y166175D01*
X121172D02*
X126368D01*
X112432D02*
X117628D01*
X112432Y158025D02*
X117628D01*
X121172D02*
X126368D01*
X112531Y168125D02*
Y176275D01*
X126469Y168125D02*
Y176275D01*
X121272D02*
X126469D01*
X112531D02*
X117728D01*
X112531Y168125D02*
X117728D01*
X121272D02*
X126469D01*
X87400Y78700D02*
X107400D01*
X87400Y68700D02*
Y78700D01*
Y68700D02*
X107400D01*
Y78700D01*
X114400D02*
X134400D01*
X114400Y68700D02*
Y78700D01*
Y68700D02*
X134400D01*
Y78700D01*
X95531Y31025D02*
Y39175D01*
X109468Y31950D02*
Y38250D01*
X95531Y39175D02*
X100728D01*
X95531Y31025D02*
X100728D01*
X104272D02*
X108602D01*
X109468Y31950D01*
X108543Y39175D02*
X109468Y38250D01*
X104272Y39175D02*
X108543D01*
X30091Y40546D02*
X35854Y46309D01*
X40600Y31345D02*
X45055Y35800D01*
X35854Y46309D02*
X39529Y42634D01*
X30091Y40546D02*
X33766Y36871D01*
X36271Y34366D02*
X39334Y31304D01*
X40600Y31345D01*
X45055Y35800D02*
Y37108D01*
X42034Y40129D02*
X45055Y37108D01*
X113531Y30825D02*
Y38975D01*
X127469Y30825D02*
Y38975D01*
X122272D02*
X127469D01*
X113531D02*
X118728D01*
X113531Y30825D02*
X118728D01*
X122272D02*
X127469D01*
X186804Y7328D02*
X203143Y-20971D01*
X174403Y28808D02*
X177393Y23629D01*
X166561Y24281D02*
X174403Y28808D01*
X172457Y-38688D02*
X203143Y-20971D01*
X143717Y11092D02*
X172457Y-38688D01*
X143717Y11092D02*
X151559Y15619D01*
X113631Y41725D02*
Y49875D01*
X127568Y41725D02*
Y49875D01*
X122372D02*
X127568D01*
X113631D02*
X118828D01*
X113631Y41725D02*
X118828D01*
X122372D02*
X127568D01*
X258030Y17010D02*
X268030Y34330D01*
X259370Y39330D02*
X268030Y34330D01*
X249370Y22010D02*
X259370Y39330D01*
X249370Y22010D02*
X258030Y17010D01*
X23030Y-24165D02*
X26445Y-23250D01*
X25530Y-19835D02*
X26445Y-23250D01*
X17030Y-34557D02*
X28780Y-14206D01*
X63420Y-34206D01*
X17030Y-34557D02*
X51670Y-54557D01*
X63420Y-34206D01*
X51412Y-29005D02*
X57041Y-32255D01*
X51412Y-29005D02*
X52162Y-27706D01*
X57041Y-32255D02*
X57791Y-30956D01*
X39288Y-22005D02*
X40038Y-20706D01*
X34092Y-19005D02*
X39288Y-22005D01*
X34092Y-19005D02*
X34842Y-17706D01*
X-59928Y65260D02*
X-26118Y-7245D01*
X-17055Y-3018D01*
X-50865Y69486D02*
X-17055Y-3018D01*
X-59928Y65260D02*
X-50865Y69486D01*
X-63200Y77500D02*
Y157500D01*
Y77500D02*
X-53200D01*
Y157500D01*
X-63200Y157500D02*
X-53200Y157500D01*
X-49330Y184970D02*
X-40670Y179970D01*
X-49330Y184970D02*
X-29330Y219611D01*
X-40670Y179970D02*
X-20670Y214611D01*
X-29330Y219611D02*
X-20670Y214611D01*
X-3964Y247228D02*
X1772Y239036D01*
X-3964Y247228D02*
X28802Y270171D01*
X1772Y239036D02*
X34538Y261979D01*
X28802Y270171D02*
X34538Y261979D01*
X61944Y271908D02*
X91488Y277117D01*
X89752Y286965D02*
X91488Y277117D01*
X60208Y281756D02*
X89752Y286965D01*
X60208Y281756D02*
X61944Y271908D01*
X127513Y280053D02*
X202688Y252691D01*
X206109Y262088D01*
X130933Y289450D02*
X206109Y262088D01*
X127513Y280053D02*
X130933Y289450D01*
X18434Y16229D02*
X21455Y13208D01*
Y11900D02*
Y13208D01*
X15734Y7404D02*
X17000Y7445D01*
X12671Y10466D02*
X15734Y7404D01*
X6491Y16646D02*
X10166Y12971D01*
X12254Y22409D02*
X15929Y18734D01*
X17000Y7445D02*
X21455Y11900D01*
X6491Y16646D02*
X12254Y22409D01*
X30546Y-6909D02*
X36309Y-1146D01*
X20691Y2946D02*
X26454Y8709D01*
X20691Y2946D02*
X24366Y-729D01*
X26871Y-3234D02*
X30546Y-6909D01*
X32634Y2529D02*
X36309Y-1146D01*
X26454Y8709D02*
X30129Y5034D01*
X104472Y49775D02*
X108743D01*
X109669Y48850D01*
X108802Y41625D02*
X109669Y42550D01*
X104472Y41625D02*
X108802D01*
X95732D02*
X100928D01*
X95732Y49775D02*
X100928D01*
X109669Y42550D02*
Y48850D01*
X95732Y41625D02*
Y49775D01*
D47*
X-31300Y190300D02*
Y192699D01*
X-30100Y193899D01*
X-28901Y192699D01*
Y190300D01*
Y192099D01*
X-31300D01*
X-27701Y190900D02*
X-27101Y190300D01*
X-25902D01*
X-25302Y190900D01*
Y193299D01*
X-25902Y193899D01*
X-27101D01*
X-27701Y193299D01*
Y192699D01*
X-27101Y192099D01*
X-25302D01*
X-24102Y189700D02*
X-21703D01*
X-20504Y193899D02*
X-18104D01*
X-19304D01*
Y190300D01*
X-16905Y193899D02*
X-14505Y190300D01*
Y193899D02*
X-16905Y190300D01*
X-25500Y200900D02*
Y203299D01*
X-24300Y204499D01*
X-23101Y203299D01*
Y200900D01*
Y202699D01*
X-25500D01*
X-21901Y200900D02*
X-20702D01*
X-21301D01*
Y204499D01*
X-21901Y203899D01*
X-18902D02*
X-18302Y204499D01*
X-17103D01*
X-16503Y203899D01*
Y201500D01*
X-17103Y200900D01*
X-18302D01*
X-18902Y201500D01*
Y203899D01*
X-15303Y200300D02*
X-12904D01*
X-11704Y200900D02*
Y204499D01*
X-9905D01*
X-9305Y203899D01*
Y202699D01*
X-9905Y202100D01*
X-11704D01*
X-10505D02*
X-9305Y200900D01*
X-8106Y204499D02*
X-5706Y200900D01*
Y204499D02*
X-8106Y200900D01*
X-18001Y212199D02*
X-18601Y212799D01*
X-19800D01*
X-20400Y212199D01*
Y209800D01*
X-19800Y209200D01*
X-18601D01*
X-18001Y209800D01*
Y210999D01*
X-19200D01*
X-16801Y209200D02*
Y212799D01*
X-14402Y209200D01*
Y212799D01*
X-13202D02*
Y209200D01*
X-11403D01*
X-10803Y209800D01*
Y212199D01*
X-11403Y212799D01*
X-13202D01*
X-36400Y184799D02*
X-35800Y185399D01*
X-34601D01*
X-34001Y184799D01*
Y184199D01*
X-34601Y183599D01*
X-35200D01*
X-34601D01*
X-34001Y183000D01*
Y182400D01*
X-34601Y181800D01*
X-35800D01*
X-36400Y182400D01*
X-32801Y185399D02*
Y183000D01*
X-31602Y181800D01*
X-30402Y183000D01*
Y185399D01*
X-29202Y184799D02*
X-28602Y185399D01*
X-27403D01*
X-26803Y184799D01*
Y184199D01*
X-27403Y183599D01*
X-28003D01*
X-27403D01*
X-26803Y183000D01*
Y182400D01*
X-27403Y181800D01*
X-28602D01*
X-29202Y182400D01*
X6300Y240799D02*
X6900Y241399D01*
X8099D01*
X8699Y240799D01*
Y240199D01*
X8099Y239599D01*
X7500D01*
X8099D01*
X8699Y239000D01*
Y238400D01*
X8099Y237800D01*
X6900D01*
X6300Y238400D01*
X9899Y241399D02*
Y239000D01*
X11098Y237800D01*
X12298Y239000D01*
Y241399D01*
X13498Y240799D02*
X14097Y241399D01*
X15297D01*
X15897Y240799D01*
Y240199D01*
X15297Y239599D01*
X14697D01*
X15297D01*
X15897Y239000D01*
Y238400D01*
X15297Y237800D01*
X14097D01*
X13498Y238400D01*
X36099Y259599D02*
X35499Y260199D01*
X34300D01*
X33700Y259599D01*
Y257200D01*
X34300Y256600D01*
X35499D01*
X36099Y257200D01*
Y258399D01*
X34900D01*
X37299Y256600D02*
Y260199D01*
X39698Y256600D01*
Y260199D01*
X40898D02*
Y256600D01*
X42697D01*
X43297Y257200D01*
Y259599D01*
X42697Y260199D01*
X40898D01*
X18199Y247399D02*
X17599Y247999D01*
X16400D01*
X15800Y247399D01*
Y246799D01*
X16400Y246199D01*
X17599D01*
X18199Y245600D01*
Y245000D01*
X17599Y244400D01*
X16400D01*
X15800Y245000D01*
X19399Y247999D02*
Y244400D01*
X20598Y245600D01*
X21798Y244400D01*
Y247999D01*
X22998D02*
Y244400D01*
X24797D01*
X25397Y245000D01*
Y247399D01*
X24797Y247999D01*
X22998D01*
X26597D02*
X27796D01*
X27196D01*
Y244400D01*
X26597D01*
X27796D01*
X31395Y247999D02*
X30195D01*
X29596Y247399D01*
Y245000D01*
X30195Y244400D01*
X31395D01*
X31995Y245000D01*
Y247399D01*
X31395Y247999D01*
X26999Y253699D02*
X26399Y254299D01*
X25200D01*
X24600Y253699D01*
Y253099D01*
X25200Y252499D01*
X26399D01*
X26999Y251900D01*
Y251300D01*
X26399Y250700D01*
X25200D01*
X24600Y251300D01*
X28199Y254299D02*
Y250700D01*
X29399Y251900D01*
X30598Y250700D01*
Y254299D01*
X34197Y253699D02*
X33597Y254299D01*
X32397D01*
X31798Y253699D01*
Y251300D01*
X32397Y250700D01*
X33597D01*
X34197Y251300D01*
X35397Y254299D02*
Y250700D01*
X37796D01*
X38995Y254299D02*
Y250700D01*
Y251900D01*
X41395Y254299D01*
X39595Y252499D01*
X41395Y250700D01*
X57800Y266400D02*
Y268799D01*
X59000Y269999D01*
X60199Y268799D01*
Y266400D01*
Y268199D01*
X57800D01*
X61399Y269999D02*
Y266400D01*
X63198D01*
X63798Y267000D01*
Y269399D01*
X63198Y269999D01*
X61399D01*
X64998Y269399D02*
X65597Y269999D01*
X66797D01*
X67397Y269399D01*
Y267000D01*
X66797Y266400D01*
X65597D01*
X64998Y267000D01*
Y269399D01*
X72300Y269000D02*
Y271399D01*
X73500Y272599D01*
X74699Y271399D01*
Y269000D01*
Y270799D01*
X72300D01*
X78298Y271999D02*
X77698Y272599D01*
X76499D01*
X75899Y271999D01*
Y271399D01*
X76499Y270799D01*
X77698D01*
X78298Y270200D01*
Y269600D01*
X77698Y269000D01*
X76499D01*
X75899Y269600D01*
X81897Y271999D02*
X81297Y272599D01*
X80098D01*
X79498Y271999D01*
Y269600D01*
X80098Y269000D01*
X81297D01*
X81897Y269600D01*
X83096Y272599D02*
Y269000D01*
X85496D01*
X88300Y272000D02*
Y274399D01*
X89500Y275599D01*
X90699Y274399D01*
Y272000D01*
Y273799D01*
X88300D01*
X94298Y274999D02*
X93698Y275599D01*
X92499D01*
X91899Y274999D01*
Y274399D01*
X92499Y273799D01*
X93698D01*
X94298Y273200D01*
Y272600D01*
X93698Y272000D01*
X92499D01*
X91899Y272600D01*
X95498Y275599D02*
Y272000D01*
X97297D01*
X97897Y272600D01*
Y274999D01*
X97297Y275599D01*
X95498D01*
X99097Y272000D02*
Y274399D01*
X100296Y275599D01*
X101496Y274399D01*
Y272000D01*
Y273799D01*
X99097D01*
X245700Y38699D02*
X246300Y39299D01*
X247499D01*
X248099Y38699D01*
Y38099D01*
X247499Y37499D01*
X246900D01*
X247499D01*
X248099Y36900D01*
Y36300D01*
X247499Y35700D01*
X246300D01*
X245700Y36300D01*
X249299Y39299D02*
Y36900D01*
X250499Y35700D01*
X251698Y36900D01*
Y39299D01*
X252898Y38699D02*
X253498Y39299D01*
X254697D01*
X255297Y38699D01*
Y38099D01*
X254697Y37499D01*
X254097D01*
X254697D01*
X255297Y36900D01*
Y36300D01*
X254697Y35700D01*
X253498D01*
X252898Y36300D01*
X242499Y27799D02*
X241899Y28399D01*
X240700D01*
X240100Y27799D01*
Y25400D01*
X240700Y24800D01*
X241899D01*
X242499Y25400D01*
Y26599D01*
X241300D01*
X243699Y24800D02*
Y28399D01*
X246098Y24800D01*
Y28399D01*
X247298D02*
Y24800D01*
X249097D01*
X249697Y25400D01*
Y27799D01*
X249097Y28399D01*
X247298D01*
X56400Y-27900D02*
Y-24301D01*
X58199D01*
X58799Y-24901D01*
Y-26101D01*
X58199Y-26700D01*
X56400D01*
X59999Y-24301D02*
Y-27900D01*
X61199Y-26700D01*
X62398Y-27900D01*
Y-24301D01*
X63598Y-27900D02*
Y-24301D01*
X65397D01*
X65997Y-24901D01*
Y-26101D01*
X65397Y-26700D01*
X63598D01*
X64797D02*
X65997Y-27900D01*
X67197Y-28500D02*
X69596D01*
X72595Y-24301D02*
X71395D01*
X70795Y-24901D01*
Y-27300D01*
X71395Y-27900D01*
X72595D01*
X73195Y-27300D01*
Y-24901D01*
X72595Y-24301D01*
X74394Y-27900D02*
Y-24301D01*
X76793Y-27900D01*
Y-24301D01*
X33899Y-10401D02*
X33299Y-9801D01*
X32100D01*
X31500Y-10401D01*
Y-12800D01*
X32100Y-13400D01*
X33299D01*
X33899Y-12800D01*
X35099Y-9801D02*
Y-13400D01*
Y-11601D01*
X37498D01*
Y-9801D01*
Y-13400D01*
X38698D02*
Y-11001D01*
X39897Y-9801D01*
X41097Y-11001D01*
Y-13400D01*
Y-11601D01*
X38698D01*
X42296Y-13400D02*
Y-9801D01*
X44096D01*
X44696Y-10401D01*
Y-11601D01*
X44096Y-12200D01*
X42296D01*
X43496D02*
X44696Y-13400D01*
X48295Y-10401D02*
X47695Y-9801D01*
X46495D01*
X45895Y-10401D01*
Y-12800D01*
X46495Y-13400D01*
X47695D01*
X48295Y-12800D01*
Y-11601D01*
X47095D01*
X-45600Y67699D02*
Y64100D01*
X-43801D01*
X-43201Y64700D01*
Y65300D01*
X-43801Y65899D01*
X-45600D01*
X-43801D01*
X-43201Y66499D01*
Y67099D01*
X-43801Y67699D01*
X-45600D01*
X-42001Y64100D02*
X-40802D01*
X-41401D01*
Y67699D01*
X-42001Y67099D01*
X-36603Y67699D02*
X-39002D01*
Y65899D01*
X-37802Y66499D01*
X-37203D01*
X-36603Y65899D01*
Y64700D01*
X-37203Y64100D01*
X-38402D01*
X-39002Y64700D01*
X-42200Y58099D02*
Y54500D01*
X-40401D01*
X-39801Y55100D01*
Y55700D01*
X-40401Y56299D01*
X-42200D01*
X-40401D01*
X-39801Y56899D01*
Y57499D01*
X-40401Y58099D01*
X-42200D01*
X-38601Y54500D02*
X-37402D01*
X-38001D01*
Y58099D01*
X-38601Y57499D01*
X-33803Y54500D02*
Y58099D01*
X-35602Y56299D01*
X-33203D01*
X-37700Y48599D02*
Y45000D01*
X-35901D01*
X-35301Y45600D01*
Y46200D01*
X-35901Y46799D01*
X-37700D01*
X-35901D01*
X-35301Y47399D01*
Y47999D01*
X-35901Y48599D01*
X-37700D01*
X-34101Y45000D02*
X-32901D01*
X-33501D01*
Y48599D01*
X-34101Y47999D01*
X-31102D02*
X-30502Y48599D01*
X-29303D01*
X-28703Y47999D01*
Y47399D01*
X-29303Y46799D01*
X-29902D01*
X-29303D01*
X-28703Y46200D01*
Y45600D01*
X-29303Y45000D01*
X-30502D01*
X-31102Y45600D01*
X-33500Y38199D02*
Y34600D01*
X-31701D01*
X-31101Y35200D01*
Y35800D01*
X-31701Y36399D01*
X-33500D01*
X-31701D01*
X-31101Y36999D01*
Y37599D01*
X-31701Y38199D01*
X-33500D01*
X-29901Y34600D02*
X-28701D01*
X-29301D01*
Y38199D01*
X-29901Y37599D01*
X-24503Y34600D02*
X-26902D01*
X-24503Y36999D01*
Y37599D01*
X-25103Y38199D01*
X-26302D01*
X-26902Y37599D01*
X-29300Y29799D02*
Y26200D01*
X-27501D01*
X-26901Y26800D01*
Y27400D01*
X-27501Y27999D01*
X-29300D01*
X-27501D01*
X-26901Y28599D01*
Y29199D01*
X-27501Y29799D01*
X-29300D01*
X-25701Y26200D02*
X-24502D01*
X-25101D01*
Y29799D01*
X-25701Y29199D01*
X-22702Y26200D02*
X-21502D01*
X-22102D01*
Y29799D01*
X-22702Y29199D01*
X-24900Y21099D02*
Y17500D01*
X-23101D01*
X-22501Y18100D01*
Y18700D01*
X-23101Y19299D01*
X-24900D01*
X-23101D01*
X-22501Y19899D01*
Y20499D01*
X-23101Y21099D01*
X-24900D01*
X-21301Y17500D02*
X-20102D01*
X-20701D01*
Y21099D01*
X-21301Y20499D01*
X-18302D02*
X-17702Y21099D01*
X-16503D01*
X-15903Y20499D01*
Y18100D01*
X-16503Y17500D01*
X-17702D01*
X-18302Y18100D01*
Y20499D01*
X-18601Y11899D02*
X-19201Y12499D01*
X-20400D01*
X-21000Y11899D01*
Y9500D01*
X-20400Y8900D01*
X-19201D01*
X-18601Y9500D01*
X-17401Y8900D02*
X-16202D01*
X-16801D01*
Y12499D01*
X-17401Y11899D01*
X-12003Y12499D02*
X-14402D01*
Y10699D01*
X-13203Y11299D01*
X-12603D01*
X-12003Y10699D01*
Y9500D01*
X-12603Y8900D01*
X-13802D01*
X-14402Y9500D01*
X-19401Y-7301D02*
X-20001Y-6701D01*
X-21200D01*
X-21800Y-7301D01*
Y-9700D01*
X-21200Y-10300D01*
X-20001D01*
X-19401Y-9700D01*
X-18201Y-10300D02*
X-17002D01*
X-17601D01*
Y-6701D01*
X-18201Y-7301D01*
X-13403Y-10300D02*
Y-6701D01*
X-15202Y-8501D01*
X-12803D01*
X-51600Y83099D02*
Y79500D01*
X-49801D01*
X-49201Y80100D01*
Y80700D01*
X-49801Y81299D01*
X-51600D01*
X-49801D01*
X-49201Y81899D01*
Y82499D01*
X-49801Y83099D01*
X-51600D01*
X-48001Y82499D02*
X-47401Y83099D01*
X-46202D01*
X-45602Y82499D01*
Y80100D01*
X-46202Y79500D01*
X-47401D01*
X-48001Y80100D01*
Y82499D01*
X-51200Y93599D02*
Y90000D01*
X-49401D01*
X-48801Y90600D01*
Y91200D01*
X-49401Y91799D01*
X-51200D01*
X-49401D01*
X-48801Y92399D01*
Y92999D01*
X-49401Y93599D01*
X-51200D01*
X-47601Y90000D02*
X-46402D01*
X-47001D01*
Y93599D01*
X-47601Y92999D01*
X-70200Y103599D02*
Y100000D01*
X-68401D01*
X-67801Y100600D01*
Y101200D01*
X-68401Y101799D01*
X-70200D01*
X-68401D01*
X-67801Y102399D01*
Y102999D01*
X-68401Y103599D01*
X-70200D01*
X-64202Y100000D02*
X-66601D01*
X-64202Y102399D01*
Y102999D01*
X-64802Y103599D01*
X-66001D01*
X-66601Y102999D01*
X-70200Y113999D02*
Y110400D01*
X-68401D01*
X-67801Y111000D01*
Y111600D01*
X-68401Y112199D01*
X-70200D01*
X-68401D01*
X-67801Y112799D01*
Y113399D01*
X-68401Y113999D01*
X-70200D01*
X-66601Y113399D02*
X-66001Y113999D01*
X-64802D01*
X-64202Y113399D01*
Y112799D01*
X-64802Y112199D01*
X-65402D01*
X-64802D01*
X-64202Y111600D01*
Y111000D01*
X-64802Y110400D01*
X-66001D01*
X-66601Y111000D01*
X-69800Y124199D02*
Y120600D01*
X-68001D01*
X-67401Y121200D01*
Y121800D01*
X-68001Y122399D01*
X-69800D01*
X-68001D01*
X-67401Y122999D01*
Y123599D01*
X-68001Y124199D01*
X-69800D01*
X-64402Y120600D02*
Y124199D01*
X-66201Y122399D01*
X-63802D01*
X-52200Y134399D02*
Y130800D01*
X-50401D01*
X-49801Y131400D01*
Y132000D01*
X-50401Y132599D01*
X-52200D01*
X-50401D01*
X-49801Y133199D01*
Y133799D01*
X-50401Y134399D01*
X-52200D01*
X-46202D02*
X-48601D01*
Y132599D01*
X-47401Y133199D01*
X-46802D01*
X-46202Y132599D01*
Y131400D01*
X-46802Y130800D01*
X-48001D01*
X-48601Y131400D01*
X-52100Y144499D02*
Y140900D01*
X-50301D01*
X-49701Y141500D01*
Y142100D01*
X-50301Y142699D01*
X-52100D01*
X-50301D01*
X-49701Y143299D01*
Y143899D01*
X-50301Y144499D01*
X-52100D01*
X-46102D02*
X-47302Y143899D01*
X-48501Y142699D01*
Y141500D01*
X-47901Y140900D01*
X-46702D01*
X-46102Y141500D01*
Y142100D01*
X-46702Y142699D01*
X-48501D01*
X-51900Y154499D02*
Y150900D01*
X-50101D01*
X-49501Y151500D01*
Y152100D01*
X-50101Y152699D01*
X-51900D01*
X-50101D01*
X-49501Y153299D01*
Y153899D01*
X-50101Y154499D01*
X-51900D01*
X-48301D02*
X-45902D01*
Y153899D01*
X-48301Y151500D01*
Y150900D01*
X195400Y248400D02*
Y250799D01*
X196600Y251999D01*
X197799Y250799D01*
Y248400D01*
Y250199D01*
X195400D01*
X198999Y251399D02*
X199599Y251999D01*
X200798D01*
X201398Y251399D01*
Y249000D01*
X200798Y248400D01*
X199599D01*
X198999Y249000D01*
Y251399D01*
X187500Y251600D02*
Y253999D01*
X188700Y255199D01*
X189899Y253999D01*
Y251600D01*
Y253399D01*
X187500D01*
X191099Y251600D02*
X192298D01*
X191699D01*
Y255199D01*
X191099Y254599D01*
X177000Y254800D02*
Y257199D01*
X178200Y258399D01*
X179399Y257199D01*
Y254800D01*
Y256599D01*
X177000D01*
X182998Y254800D02*
X180599D01*
X182998Y257199D01*
Y257799D01*
X182398Y258399D01*
X181199D01*
X180599Y257799D01*
X168000Y258400D02*
Y260799D01*
X169200Y261999D01*
X170399Y260799D01*
Y258400D01*
Y260199D01*
X168000D01*
X171599Y261399D02*
X172199Y261999D01*
X173398D01*
X173998Y261399D01*
Y260799D01*
X173398Y260199D01*
X172799D01*
X173398D01*
X173998Y259600D01*
Y259000D01*
X173398Y258400D01*
X172199D01*
X171599Y259000D01*
X158900Y261900D02*
Y264299D01*
X160100Y265499D01*
X161299Y264299D01*
Y261900D01*
Y263699D01*
X158900D01*
X164298Y261900D02*
Y265499D01*
X162499Y263699D01*
X164898D01*
X149200Y265600D02*
Y267999D01*
X150400Y269199D01*
X151599Y267999D01*
Y265600D01*
Y267399D01*
X149200D01*
X155198Y269199D02*
X152799D01*
Y267399D01*
X153998Y267999D01*
X154598D01*
X155198Y267399D01*
Y266200D01*
X154598Y265600D01*
X153399D01*
X152799Y266200D01*
X139900Y268800D02*
Y271199D01*
X141100Y272399D01*
X142299Y271199D01*
Y268800D01*
Y270599D01*
X139900D01*
X145898Y272399D02*
X144699Y271799D01*
X143499Y270599D01*
Y269400D01*
X144099Y268800D01*
X145298D01*
X145898Y269400D01*
Y270000D01*
X145298Y270599D01*
X143499D01*
X130600Y272100D02*
Y274499D01*
X131800Y275699D01*
X132999Y274499D01*
Y272100D01*
Y273899D01*
X130600D01*
X134199Y275699D02*
X136598D01*
Y275099D01*
X134199Y272700D01*
Y272100D01*
D48*
X212332Y201668D02*
D03*
X189732Y179068D02*
D03*
X167532Y156968D02*
D03*
X145432Y134768D02*
D03*
X85832Y75568D02*
D03*
X65132Y54268D02*
D03*
X43732Y32668D02*
D03*
X20132Y8768D02*
D03*
D49*
X109748Y172300D02*
D03*
Y162100D02*
D03*
X110748Y35100D02*
D03*
X110948Y45700D02*
D03*
M02*
