G04 Layer_Color=32896*
%FSLAX25Y25*%
%MOIN*%
G70*
G01*
G75*
%ADD11C,0.01000*%
%ADD44C,0.00787*%
%ADD45C,0.00600*%
%ADD72C,0.00984*%
%ADD73C,0.01181*%
%ADD74C,0.01575*%
D11*
X172895Y52338D02*
X174612Y50755D01*
X172895Y57062D02*
X174612Y58645D01*
X172895Y52338D02*
Y57062D01*
X174612Y58645D02*
X182238D01*
X186962D02*
X194588D01*
X186962Y50755D02*
X194588D01*
X174612D02*
X182238D01*
X194588D02*
Y58645D01*
X174612Y50755D02*
Y58645D01*
X190788Y107545D02*
X192505Y105962D01*
X190788Y99655D02*
X192505Y101238D01*
Y105962D01*
X183162Y99655D02*
X190788D01*
X170812D02*
X178438D01*
X170812Y107545D02*
X178438D01*
X183162D02*
X190788D01*
X170812Y99655D02*
Y107545D01*
X190788Y99655D02*
Y107545D01*
X44895Y229538D02*
X46612Y227955D01*
X44895Y234262D02*
X46612Y235845D01*
X44895Y229538D02*
Y234262D01*
X46612Y235845D02*
X54238D01*
X58962D02*
X66588D01*
X58962Y227955D02*
X66588D01*
X46612D02*
X54238D01*
X66588D02*
Y235845D01*
X46612Y227955D02*
Y235845D01*
X114099Y157709D02*
X114099Y183891D01*
X110556Y157709D02*
X114099D01*
X110556Y183891D02*
X114099D01*
X101501Y157709D02*
X105044D01*
X101501Y183891D02*
X105044D01*
X101501Y157709D02*
X101501Y183891D01*
X159731Y37488D02*
Y48512D01*
X163669Y37488D02*
Y48512D01*
X159731Y37488D02*
X163669D01*
X159731Y48512D02*
X163669D01*
X174289Y73088D02*
Y84112D01*
X197911D01*
Y73088D02*
Y84112D01*
X174289Y73088D02*
X197911D01*
X83800Y154100D02*
X84900D01*
X76600Y146900D02*
X83800Y154100D01*
X76600Y144300D02*
Y146900D01*
X19801Y228498D02*
X20801Y229498D01*
X22800D01*
X23800Y228498D01*
Y224500D01*
X22800Y223500D01*
X20801D01*
X19801Y224500D01*
X17802Y223500D02*
X15803D01*
X16802D01*
Y229498D01*
X17802Y228498D01*
X43701Y243998D02*
X44701Y244998D01*
X46700D01*
X47700Y243998D01*
Y240000D01*
X46700Y239000D01*
X44701D01*
X43701Y240000D01*
X37703Y239000D02*
X41702D01*
X37703Y242999D01*
Y243998D01*
X38703Y244998D01*
X40702D01*
X41702Y243998D01*
X86598Y210399D02*
X87598Y209399D01*
Y207400D01*
X86598Y206400D01*
X82600D01*
X81600Y207400D01*
Y209399D01*
X82600Y210399D01*
X86598Y212398D02*
X87598Y213398D01*
Y215397D01*
X86598Y216397D01*
X85599D01*
X84599Y215397D01*
Y214397D01*
Y215397D01*
X83599Y216397D01*
X82600D01*
X81600Y215397D01*
Y213398D01*
X82600Y212398D01*
X21001Y209198D02*
X22001Y210198D01*
X24000D01*
X25000Y209198D01*
Y205200D01*
X24000Y204200D01*
X22001D01*
X21001Y205200D01*
X16003Y204200D02*
Y210198D01*
X19002Y207199D01*
X15003D01*
X73901Y233398D02*
X74901Y234398D01*
X76900D01*
X77900Y233398D01*
Y229400D01*
X76900Y228400D01*
X74901D01*
X73901Y229400D01*
X67903Y234398D02*
X71902D01*
Y231399D01*
X69903Y232399D01*
X68903D01*
X67903Y231399D01*
Y229400D01*
X68903Y228400D01*
X70902D01*
X71902Y229400D01*
X94401Y175498D02*
X95401Y176498D01*
X97400D01*
X98400Y175498D01*
Y171500D01*
X97400Y170500D01*
X95401D01*
X94401Y171500D01*
X88403Y176498D02*
X90403Y175498D01*
X92402Y173499D01*
Y171500D01*
X91402Y170500D01*
X89403D01*
X88403Y171500D01*
Y172499D01*
X89403Y173499D01*
X92402D01*
X123501Y146898D02*
X124501Y147898D01*
X126500D01*
X127500Y146898D01*
Y142900D01*
X126500Y141900D01*
X124501D01*
X123501Y142900D01*
X121502Y147898D02*
X117503D01*
Y146898D01*
X121502Y142900D01*
Y141900D01*
X93501Y138498D02*
X94501Y139498D01*
X96500D01*
X97500Y138498D01*
Y134500D01*
X96500Y133500D01*
X94501D01*
X93501Y134500D01*
X91502Y138498D02*
X90502Y139498D01*
X88503D01*
X87503Y138498D01*
Y137499D01*
X88503Y136499D01*
X87503Y135499D01*
Y134500D01*
X88503Y133500D01*
X90502D01*
X91502Y134500D01*
Y135499D01*
X90502Y136499D01*
X91502Y137499D01*
Y138498D01*
X90502Y136499D02*
X88503D01*
X24501Y140098D02*
X25501Y141098D01*
X27500D01*
X28500Y140098D01*
Y136100D01*
X27500Y135100D01*
X25501D01*
X24501Y136100D01*
X22502D02*
X21502Y135100D01*
X19503D01*
X18503Y136100D01*
Y140098D01*
X19503Y141098D01*
X21502D01*
X22502Y140098D01*
Y139099D01*
X21502Y138099D01*
X18503D01*
X24601Y129598D02*
X25601Y130598D01*
X27600D01*
X28600Y129598D01*
Y125600D01*
X27600Y124600D01*
X25601D01*
X24601Y125600D01*
X22602Y124600D02*
X20603D01*
X21602D01*
Y130598D01*
X22602Y129598D01*
X17604D02*
X16604Y130598D01*
X14604D01*
X13605Y129598D01*
Y125600D01*
X14604Y124600D01*
X16604D01*
X17604Y125600D01*
Y129598D01*
X15201Y195198D02*
X16201Y196198D01*
X18200D01*
X19200Y195198D01*
Y191200D01*
X18200Y190200D01*
X16201D01*
X15201Y191200D01*
X13202Y190200D02*
X11203D01*
X12202D01*
Y196198D01*
X13202Y195198D01*
X8204Y190200D02*
X6204D01*
X7204D01*
Y196198D01*
X8204Y195198D01*
X15501Y185198D02*
X16501Y186198D01*
X18500D01*
X19500Y185198D01*
Y181200D01*
X18500Y180200D01*
X16501D01*
X15501Y181200D01*
X13502Y180200D02*
X11503D01*
X12502D01*
Y186198D01*
X13502Y185198D01*
X4505Y180200D02*
X8504D01*
X4505Y184199D01*
Y185198D01*
X5505Y186198D01*
X7504D01*
X8504Y185198D01*
X104601Y201198D02*
X105601Y202198D01*
X107600D01*
X108600Y201198D01*
Y197200D01*
X107600Y196200D01*
X105601D01*
X104601Y197200D01*
X102602Y196200D02*
X100603D01*
X101602D01*
Y202198D01*
X102602Y201198D01*
X97604D02*
X96604Y202198D01*
X94604D01*
X93605Y201198D01*
Y200199D01*
X94604Y199199D01*
X95604D01*
X94604D01*
X93605Y198199D01*
Y197200D01*
X94604Y196200D01*
X96604D01*
X97604Y197200D01*
X104801Y191398D02*
X105801Y192398D01*
X107800D01*
X108800Y191398D01*
Y187400D01*
X107800Y186400D01*
X105801D01*
X104801Y187400D01*
X102802Y186400D02*
X100803D01*
X101802D01*
Y192398D01*
X102802Y191398D01*
X94805Y186400D02*
Y192398D01*
X97804Y189399D01*
X93805D01*
X189101Y115698D02*
X190101Y116698D01*
X192100D01*
X193100Y115698D01*
Y111700D01*
X192100Y110700D01*
X190101D01*
X189101Y111700D01*
X187102Y110700D02*
X185103D01*
X186102D01*
Y116698D01*
X187102Y115698D01*
X178105Y116698D02*
X182104D01*
Y113699D01*
X180104Y114699D01*
X179104D01*
X178105Y113699D01*
Y111700D01*
X179104Y110700D01*
X181104D01*
X182104Y111700D01*
X209501Y56698D02*
X210501Y57698D01*
X212500D01*
X213500Y56698D01*
Y52700D01*
X212500Y51700D01*
X210501D01*
X209501Y52700D01*
X207502Y51700D02*
X205503D01*
X206502D01*
Y57698D01*
X207502Y56698D01*
X198505Y57698D02*
X200504Y56698D01*
X202504Y54699D01*
Y52700D01*
X201504Y51700D01*
X199504D01*
X198505Y52700D01*
Y53699D01*
X199504Y54699D01*
X202504D01*
X129001Y37498D02*
X130001Y38498D01*
X132000D01*
X133000Y37498D01*
Y33500D01*
X132000Y32500D01*
X130001D01*
X129001Y33500D01*
X127002Y32500D02*
X125003D01*
X126002D01*
Y38498D01*
X127002Y37498D01*
X122004Y38498D02*
X118005D01*
Y37498D01*
X122004Y33500D01*
Y32500D01*
X202501Y43098D02*
X203501Y44098D01*
X205500D01*
X206500Y43098D01*
Y39100D01*
X205500Y38100D01*
X203501D01*
X202501Y39100D01*
X200502Y38100D02*
X198503D01*
X199502D01*
Y44098D01*
X200502Y43098D01*
X195504D02*
X194504Y44098D01*
X192505D01*
X191505Y43098D01*
Y42099D01*
X192505Y41099D01*
X191505Y40099D01*
Y39100D01*
X192505Y38100D01*
X194504D01*
X195504Y39100D01*
Y40099D01*
X194504Y41099D01*
X195504Y42099D01*
Y43098D01*
X194504Y41099D02*
X192505D01*
X90400Y110998D02*
Y105000D01*
X87401D01*
X86401Y106000D01*
Y109998D01*
X87401Y110998D01*
X90400D01*
X84402Y109998D02*
X83402Y110998D01*
X81403D01*
X80403Y109998D01*
Y108999D01*
X81403Y107999D01*
X82403D01*
X81403D01*
X80403Y106999D01*
Y106000D01*
X81403Y105000D01*
X83402D01*
X84402Y106000D01*
X126600Y137098D02*
Y131100D01*
X123601D01*
X122601Y132100D01*
Y136098D01*
X123601Y137098D01*
X126600D01*
X116603D02*
X120602D01*
Y134099D01*
X118603Y135099D01*
X117603D01*
X116603Y134099D01*
Y132100D01*
X117603Y131100D01*
X119602D01*
X120602Y132100D01*
X46900Y261700D02*
Y267698D01*
X43901D01*
X42901Y266698D01*
Y264699D01*
X43901Y263699D01*
X46900D01*
X44901D02*
X42901Y261700D01*
X40902D02*
X38903D01*
X39902D01*
Y267698D01*
X40902Y266698D01*
X74300Y196600D02*
Y202598D01*
X71301D01*
X70301Y201598D01*
Y199599D01*
X71301Y198599D01*
X74300D01*
X72301D02*
X70301Y196600D01*
X64303D02*
X68302D01*
X64303Y200599D01*
Y201598D01*
X65303Y202598D01*
X67302D01*
X68302Y201598D01*
X143400Y178800D02*
Y184798D01*
X140401D01*
X139401Y183798D01*
Y181799D01*
X140401Y180799D01*
X143400D01*
X141401D02*
X139401Y178800D01*
X137402Y183798D02*
X136402Y184798D01*
X134403D01*
X133403Y183798D01*
Y182799D01*
X134403Y181799D01*
X135403D01*
X134403D01*
X133403Y180799D01*
Y179800D01*
X134403Y178800D01*
X136402D01*
X137402Y179800D01*
X143400Y157500D02*
Y163498D01*
X140401D01*
X139401Y162498D01*
Y160499D01*
X140401Y159499D01*
X143400D01*
X141401D02*
X139401Y157500D01*
X134403D02*
Y163498D01*
X137402Y160499D01*
X133403D01*
X143500Y168000D02*
Y173998D01*
X140501D01*
X139501Y172998D01*
Y170999D01*
X140501Y169999D01*
X143500D01*
X141501D02*
X139501Y168000D01*
X133503Y173998D02*
X137502D01*
Y170999D01*
X135503Y171999D01*
X134503D01*
X133503Y170999D01*
Y169000D01*
X134503Y168000D01*
X136502D01*
X137502Y169000D01*
X78400Y138000D02*
Y143998D01*
X75401D01*
X74401Y142998D01*
Y140999D01*
X75401Y139999D01*
X78400D01*
X76401D02*
X74401Y138000D01*
X68403Y143998D02*
X70403Y142998D01*
X72402Y140999D01*
Y139000D01*
X71402Y138000D01*
X69403D01*
X68403Y139000D01*
Y139999D01*
X69403Y140999D01*
X72402D01*
X70900Y90500D02*
Y96498D01*
X67901D01*
X66901Y95498D01*
Y93499D01*
X67901Y92499D01*
X70900D01*
X68901D02*
X66901Y90500D01*
X64902Y91500D02*
X63902Y90500D01*
X61903D01*
X60903Y91500D01*
Y95498D01*
X61903Y96498D01*
X63902D01*
X64902Y95498D01*
Y94499D01*
X63902Y93499D01*
X60903D01*
X149600Y99300D02*
Y105298D01*
X146601D01*
X145601Y104298D01*
Y102299D01*
X146601Y101299D01*
X149600D01*
X147601D02*
X145601Y99300D01*
X143602D02*
X141603D01*
X142602D01*
Y105298D01*
X143602Y104298D01*
X138604D02*
X137604Y105298D01*
X135605D01*
X134605Y104298D01*
Y100300D01*
X135605Y99300D01*
X137604D01*
X138604Y100300D01*
Y104298D01*
X148900Y129800D02*
Y135798D01*
X145901D01*
X144901Y134798D01*
Y132799D01*
X145901Y131799D01*
X148900D01*
X146901D02*
X144901Y129800D01*
X142902D02*
X140903D01*
X141902D01*
Y135798D01*
X142902Y134798D01*
X137904Y129800D02*
X135904D01*
X136904D01*
Y135798D01*
X137904Y134798D01*
X70300Y119900D02*
Y125898D01*
X67301D01*
X66301Y124898D01*
Y122899D01*
X67301Y121899D01*
X70300D01*
X68301D02*
X66301Y119900D01*
X64302D02*
X62303D01*
X63302D01*
Y125898D01*
X64302Y124898D01*
X55305Y119900D02*
X59304D01*
X55305Y123899D01*
Y124898D01*
X56305Y125898D01*
X58304D01*
X59304Y124898D01*
X132200Y45100D02*
Y51098D01*
X129201D01*
X128201Y50098D01*
Y48099D01*
X129201Y47099D01*
X132200D01*
X130201D02*
X128201Y45100D01*
X126202D02*
X124203D01*
X125202D01*
Y51098D01*
X126202Y50098D01*
X121204D02*
X120204Y51098D01*
X118204D01*
X117205Y50098D01*
Y49099D01*
X118204Y48099D01*
X119204D01*
X118204D01*
X117205Y47099D01*
Y46100D01*
X118204Y45100D01*
X120204D01*
X121204Y46100D01*
X44400Y220598D02*
Y215600D01*
X43400Y214600D01*
X41401D01*
X40401Y215600D01*
Y220598D01*
X38402Y214600D02*
X36403D01*
X37402D01*
Y220598D01*
X38402Y219598D01*
X75300Y192898D02*
Y187900D01*
X74300Y186900D01*
X72301D01*
X71301Y187900D01*
Y192898D01*
X65303Y186900D02*
X69302D01*
X65303Y190899D01*
Y191898D01*
X66303Y192898D01*
X68302D01*
X69302Y191898D01*
X208100Y93498D02*
Y88500D01*
X207100Y87500D01*
X205101D01*
X204101Y88500D01*
Y93498D01*
X202102Y92498D02*
X201102Y93498D01*
X199103D01*
X198103Y92498D01*
Y91499D01*
X199103Y90499D01*
X200103D01*
X199103D01*
X198103Y89499D01*
Y88500D01*
X199103Y87500D01*
X201102D01*
X202102Y88500D01*
X167400Y57998D02*
Y53000D01*
X166400Y52000D01*
X164401D01*
X163401Y53000D01*
Y57998D01*
X158403Y52000D02*
Y57998D01*
X161402Y54999D01*
X157403D01*
X117398Y187000D02*
X116398D01*
X114399Y188999D01*
X116398Y190999D01*
X117398D01*
X114399Y188999D02*
X111400D01*
Y192998D02*
Y194997D01*
Y193998D01*
X117398D01*
X116398Y192998D01*
D44*
X40094Y203325D02*
G03*
X41668Y204900I-0J1575D01*
G01*
X41668Y209900D02*
G03*
X40094Y211475I-1575J0D01*
G01*
X29306Y211475D02*
G03*
X27731Y209900I0J-1575D01*
G01*
X27731Y204900D02*
G03*
X29306Y203325I1575J0D01*
G01*
X176906Y45075D02*
G03*
X175331Y43500I0J-1575D01*
G01*
X175331Y38500D02*
G03*
X176906Y36925I1575J0D01*
G01*
X187694Y36925D02*
G03*
X189269Y38500I0J1575D01*
G01*
X189269Y43500D02*
G03*
X187694Y45075I-1575J0D01*
G01*
X147994Y31325D02*
G03*
X149568Y32900I-0J1575D01*
G01*
X149568Y37900D02*
G03*
X147994Y39475I-1575J0D01*
G01*
X137206Y39475D02*
G03*
X135632Y37900I0J-1575D01*
G01*
X135632Y32900D02*
G03*
X137206Y31325I1575J0D01*
G01*
X105261Y101212D02*
G03*
X94940Y101212I-5161J-3612D01*
G01*
X92566Y92577D02*
G03*
X92566Y102623I7534J5023D01*
G01*
X94940Y93988D02*
G03*
X105261Y93988I5161J3612D01*
G01*
X32606Y131975D02*
G03*
X31032Y130400I0J-1575D01*
G01*
X31032Y125400D02*
G03*
X32606Y123825I1575J0D01*
G01*
X43394Y123825D02*
G03*
X44969Y125400I0J1575D01*
G01*
X44969Y130400D02*
G03*
X43394Y131975I-1575J0D01*
G01*
X32506Y142475D02*
G03*
X30931Y140900I0J-1575D01*
G01*
X30931Y135900D02*
G03*
X32506Y134325I1575J0D01*
G01*
X43294Y134325D02*
G03*
X44868Y135900I0J1575D01*
G01*
X44868Y140900D02*
G03*
X43294Y142475I-1575J0D01*
G01*
X22206Y186975D02*
G03*
X20631Y185400I0J-1575D01*
G01*
X20631Y180400D02*
G03*
X22206Y178825I1575J0D01*
G01*
X32994Y178825D02*
G03*
X34569Y180400I0J1575D01*
G01*
X34569Y185400D02*
G03*
X32994Y186975I-1575J0D01*
G01*
X22006Y196775D02*
G03*
X20432Y195200I0J-1575D01*
G01*
X20432Y190200D02*
G03*
X22006Y188625I1575J0D01*
G01*
X32794Y188625D02*
G03*
X34369Y190200I0J1575D01*
G01*
X34369Y195200D02*
G03*
X32794Y196775I-1575J0D01*
G01*
X103306Y149475D02*
G03*
X101732Y147900I0J-1575D01*
G01*
X101732Y142900D02*
G03*
X103306Y141325I1575J0D01*
G01*
X114094Y141325D02*
G03*
X115668Y142900I0J1575D01*
G01*
X115668Y147900D02*
G03*
X114094Y149475I-1575J0D01*
G01*
X86606Y169075D02*
G03*
X85031Y167500I0J-1575D01*
G01*
X85031Y162500D02*
G03*
X86606Y160925I1575J0D01*
G01*
X97394Y160925D02*
G03*
X98968Y162500I0J1575D01*
G01*
X98968Y167500D02*
G03*
X97394Y169075I-1575J0D01*
G01*
X97794Y141225D02*
G03*
X99369Y142800I-0J1575D01*
G01*
X99369Y147800D02*
G03*
X97794Y149375I-1575J0D01*
G01*
X87006Y149375D02*
G03*
X85431Y147800I0J-1575D01*
G01*
X85431Y142800D02*
G03*
X87006Y141225I1575J0D01*
G01*
X29406Y230875D02*
G03*
X27832Y229300I0J-1575D01*
G01*
X27832Y224300D02*
G03*
X29406Y222725I1575J0D01*
G01*
X40194Y222725D02*
G03*
X41769Y224300I0J1575D01*
G01*
X41769Y229300D02*
G03*
X40194Y230875I-1575J0D01*
G01*
X70725Y207006D02*
G03*
X72300Y205432I1575J0D01*
G01*
X77300Y205432D02*
G03*
X78875Y207006I0J1575D01*
G01*
X78875Y217794D02*
G03*
X77300Y219369I-1575J0D01*
G01*
X72300Y219369D02*
G03*
X70725Y217794I0J-1575D01*
G01*
X90694Y191225D02*
G03*
X92269Y192800I-0J1575D01*
G01*
X92269Y197800D02*
G03*
X90694Y199375I-1575J0D01*
G01*
X79906Y199375D02*
G03*
X78332Y197800I0J-1575D01*
G01*
X78332Y192800D02*
G03*
X79906Y191225I1575J0D01*
G01*
X79806Y188875D02*
G03*
X78232Y187300I0J-1575D01*
G01*
X78232Y182300D02*
G03*
X79806Y180725I1575J0D01*
G01*
X90594Y180725D02*
G03*
X92168Y182300I0J1575D01*
G01*
X92168Y187300D02*
G03*
X90594Y188875I-1575J0D01*
G01*
X51206Y245975D02*
G03*
X49632Y244400I0J-1575D01*
G01*
X49632Y239400D02*
G03*
X51206Y237825I1575J0D01*
G01*
X61994Y237825D02*
G03*
X63569Y239400I0J1575D01*
G01*
X63569Y244400D02*
G03*
X61994Y245975I-1575J0D01*
G01*
X117139Y115688D02*
G03*
X127461Y115688I5161J3612D01*
G01*
X129834Y124323D02*
G03*
X129834Y114277I-7534J-5023D01*
G01*
X127461Y122912D02*
G03*
X117139Y122912I-5161J-3612D01*
G01*
X29306Y203325D02*
X32928D01*
X36472D02*
X40094D01*
X36472Y211475D02*
X40094D01*
X41668Y204900D02*
Y209900D01*
X29306Y211475D02*
X32928D01*
X27731Y204900D02*
Y209900D01*
X74032Y89325D02*
Y97475D01*
X87968Y89325D02*
Y97475D01*
X82772Y89325D02*
X87968D01*
X74032D02*
X79228D01*
X74032Y97475D02*
X79228D01*
X82772D02*
X87968D01*
X184072Y45075D02*
X187694D01*
X176906D02*
X180528D01*
X176906Y36925D02*
X180528D01*
X175331Y38500D02*
Y43500D01*
X184072Y36925D02*
X187694D01*
X189269Y38500D02*
Y43500D01*
X135432Y44025D02*
Y52175D01*
X149369Y44025D02*
Y52175D01*
X144172Y44025D02*
X149369D01*
X135432D02*
X140628D01*
X135432Y52175D02*
X140628D01*
X144172D02*
X149369D01*
X137206Y31325D02*
X140828D01*
X144372D02*
X147994D01*
X144372Y39475D02*
X147994D01*
X149568Y32900D02*
Y37900D01*
X137206Y39475D02*
X140828D01*
X135632Y32900D02*
Y37900D01*
X149068Y89225D02*
Y97375D01*
X135132Y89225D02*
Y97375D01*
X140328D01*
X143872D02*
X149068D01*
X143872Y89225D02*
X149068D01*
X135132D02*
X140328D01*
X148969Y118825D02*
Y126975D01*
X135031Y118825D02*
Y126975D01*
X140228D01*
X143772D02*
X148969D01*
X143772Y118825D02*
X148969D01*
X135031D02*
X140228D01*
X92566Y100123D02*
Y102646D01*
Y92577D02*
Y95100D01*
X73731Y118825D02*
Y126975D01*
X87669Y118825D02*
Y126975D01*
X82472Y118825D02*
X87669D01*
X73731D02*
X78928D01*
X73731Y126975D02*
X78928D01*
X82472D02*
X87669D01*
X39772Y131975D02*
X43394D01*
X32606D02*
X36228D01*
X32606Y123825D02*
X36228D01*
X31032Y125400D02*
Y130400D01*
X39772Y123825D02*
X43394D01*
X44969Y125400D02*
Y130400D01*
X39672Y142475D02*
X43294D01*
X32506D02*
X36128D01*
X32506Y134325D02*
X36128D01*
X30931Y135900D02*
Y140900D01*
X39672Y134325D02*
X43294D01*
X44868Y135900D02*
Y140900D01*
X29372Y186975D02*
X32994D01*
X22206D02*
X25828D01*
X22206Y178825D02*
X25828D01*
X20631Y180400D02*
Y185400D01*
X29372Y178825D02*
X32994D01*
X34569Y180400D02*
Y185400D01*
X29172Y196775D02*
X32794D01*
X22006D02*
X25628D01*
X22006Y188625D02*
X25628D01*
X20432Y190200D02*
Y195200D01*
X29172Y188625D02*
X32794D01*
X34369Y190200D02*
Y195200D01*
X67627Y155473D02*
Y177127D01*
X45973Y155473D02*
Y177127D01*
X67627D01*
X45973Y155473D02*
X67627D01*
X110472Y149475D02*
X114094D01*
X103306D02*
X106928D01*
X103306Y141325D02*
X106928D01*
X101732Y142900D02*
Y147900D01*
X110472Y141325D02*
X114094D01*
X115668Y142900D02*
Y147900D01*
X132069Y176925D02*
Y185075D01*
X118131Y176925D02*
Y185075D01*
X123328D01*
X126872D02*
X132069D01*
X126872Y176925D02*
X132069D01*
X118131D02*
X123328D01*
X131968Y156825D02*
Y164975D01*
X118032Y156825D02*
Y164975D01*
X123228D01*
X126772D02*
X131968D01*
X126772Y156825D02*
X131968D01*
X118032D02*
X123228D01*
X118032Y167025D02*
Y175175D01*
X131968Y167025D02*
Y175175D01*
X126772Y167025D02*
X131968D01*
X118032D02*
X123228D01*
X118032Y175175D02*
X123228D01*
X126772D02*
X131968D01*
X93772Y169075D02*
X97394D01*
X86606D02*
X90228D01*
X86606Y160925D02*
X90228D01*
X85031Y162500D02*
Y167500D01*
X93772Y160925D02*
X97394D01*
X98968Y162500D02*
Y167500D01*
X99468Y151325D02*
Y159475D01*
X85532Y151325D02*
Y159475D01*
X90728D01*
X94272D02*
X99468D01*
X94272Y151325D02*
X99468D01*
X85532D02*
X90728D01*
X87006Y141225D02*
X90628D01*
X94172D02*
X97794D01*
X94172Y149375D02*
X97794D01*
X99369Y142800D02*
Y147800D01*
X87006Y149375D02*
X90628D01*
X85431Y142800D02*
Y147800D01*
X36572Y230875D02*
X40194D01*
X29406D02*
X33028D01*
X29406Y222725D02*
X33028D01*
X27832Y224300D02*
Y229300D01*
X36572Y222725D02*
X40194D01*
X41769Y224300D02*
Y229300D01*
X70725Y214172D02*
Y217794D01*
Y207006D02*
Y210628D01*
X78875Y207006D02*
Y210628D01*
X72300Y205432D02*
X77300D01*
X78875Y214172D02*
Y217794D01*
X72300Y219369D02*
X77300D01*
X79906Y191225D02*
X83528D01*
X87072D02*
X90694D01*
X87072Y199375D02*
X90694D01*
X92269Y192800D02*
Y197800D01*
X79906Y199375D02*
X83528D01*
X78332Y192800D02*
Y197800D01*
X86972Y188875D02*
X90594D01*
X79806D02*
X83428D01*
X79806Y180725D02*
X83428D01*
X78232Y182300D02*
Y187300D01*
X86972Y180725D02*
X90594D01*
X92168Y182300D02*
Y187300D01*
X49031Y196125D02*
Y204275D01*
X62968Y196125D02*
Y204275D01*
X57772Y196125D02*
X62968D01*
X49031D02*
X54228D01*
X49031Y204275D02*
X54228D01*
X57772D02*
X62968D01*
X58372Y245975D02*
X61994D01*
X51206D02*
X54828D01*
X51206Y237825D02*
X54828D01*
X49632Y239400D02*
Y244400D01*
X58372Y237825D02*
X61994D01*
X63569Y239400D02*
Y244400D01*
X63290Y207335D02*
X64865D01*
Y208910D01*
Y222690D02*
Y224265D01*
X63290D02*
X64865D01*
X47935D02*
X49510D01*
X47935Y222690D02*
Y224265D01*
Y207335D02*
X49510D01*
X47935D02*
Y208910D01*
X50231Y260725D02*
Y268875D01*
X64169Y260725D02*
Y268875D01*
X58972Y260725D02*
X64169D01*
X50231D02*
X55428D01*
X50231Y268875D02*
X55428D01*
X58972D02*
X64169D01*
X129834Y114254D02*
Y116777D01*
Y121800D02*
Y124323D01*
D45*
X81100Y175600D02*
X79900D01*
X80500D01*
Y179199D01*
X81100Y178599D01*
X79101Y170300D02*
X81500D01*
X79101Y172699D01*
Y173299D01*
X79701Y173899D01*
X80900D01*
X81500Y173299D01*
X67900Y204100D02*
X66700D01*
X67300D01*
Y207699D01*
X67900Y207099D01*
X45001Y207499D02*
X46200Y206899D01*
X47400Y205699D01*
Y204500D01*
X46800Y203900D01*
X45601D01*
X45001Y204500D01*
Y205100D01*
X45601Y205699D01*
X47400D01*
D72*
X168098Y49890D02*
G03*
X168098Y49890I-492J0D01*
G01*
X64766Y205564D02*
G03*
X64766Y205564I-492J0D01*
G01*
D73*
X74221Y179883D02*
G03*
X74221Y179883I-591J0D01*
G01*
D74*
X65560Y174272D02*
G03*
X65560Y174272I-787J0D01*
G01*
M02*
