M48
;Layer_Color=9474304
;FILE_FORMAT=2:5
INCH,LZ
;TYPE=PLATED
T1F00S00C0.01500
T2F00S00C0.02000
T3F00S00C0.02500
T4F00S00C0.03150
T5F00S00C0.03543
T7F00S00C0.11811
%
T01
X00531Y00928
X00521Y00967
X0057784Y0090416
X00683Y01307
X00653Y01364
X00709Y01482
X00746Y01515
X00787Y01543
X00671Y0158
X01354Y00543
X00813Y01583
X00595Y01581
X00624Y0162
X00556
X00587Y01699
X00625Y01735
X00531Y01758
X00499Y01733
X00509Y019
X00571Y01925
X00468Y01983
X00377Y01986
X00421Y01898
X00446Y02056
Y021
X00484Y02072
X0039Y0215
X00466Y02239
X00671Y02089
X00759Y01947
X00984Y01784
X00311Y01733
X00281Y017
X00241Y01626
X00153Y01858
X-00159Y02016
X-00391Y01717
X-00425Y01634
T02
X00312Y00937
Y01005
Y01073
X01023Y01495
X01282Y01435
X01376Y01649
Y01712
X01377Y01775
Y01837
X01504Y01648
X00751Y01881
X00687Y01903
T03
X01705Y00671
T04
X00941Y00997
X01041
X01173
X01174Y01198
X0104Y01199
X0094
X01274Y01198
X01273Y00997
T05
X-00237Y-00006
X003294Y-0027
X00416Y-0032
X005026Y-0037
X-0040605Y0035652
X-0044831Y0044715
X-0049057Y0053778
X-0053283Y0062841
X-00582Y00825
Y00925
Y01025
Y01125
Y01225
Y01325
Y01425
Y01525
X-0036379Y0026589
X-0032152Y0017526
X-0027926Y0008463
X00924Y00737
X01024
X01194
X01294
X02612Y00325
X02562Y002384
X01997Y02591
X0190303Y026252
X0180906Y026594
X0171509Y0269361
X0162112Y0272781
X0152715Y0276201
X0143318Y0279621
X0133922Y0283041
X0085696Y0281173
X0075848Y0279436
X0066Y02777
X0027575Y0263207
X0019383Y0257471
X0011191Y0251736
X0003Y0246
X-00275Y0212781
X-00325Y020412
X-00375Y019546
X-00425Y01868
T07
X02215Y0
X0
X02215Y02216
X-00001
M30
