G04 Layer_Physical_Order=2*
G04 Layer_Color=16711680*
%FSLAX25Y25*%
%MOIN*%
G70*
G01*
G75*
G04:AMPARAMS|DCode=10|XSize=45.67mil|YSize=57.87mil|CornerRadius=0mil|HoleSize=0mil|Usage=FLASHONLY|Rotation=315.000|XOffset=0mil|YOffset=0mil|HoleType=Round|Shape=Rectangle|*
%AMROTATEDRECTD10*
4,1,4,-0.03661,-0.00432,0.00432,0.03661,0.03661,0.00432,-0.00432,-0.03661,-0.03661,-0.00432,0.0*
%
%ADD10ROTATEDRECTD10*%

%ADD11R,0.04567X0.05787*%
%ADD12C,0.01500*%
%ADD13C,0.02000*%
%ADD14C,0.03000*%
%ADD15C,0.01000*%
%ADD16C,0.04000*%
%ADD17C,0.05118*%
%ADD18C,0.23622*%
%ADD19C,0.05906*%
%ADD20R,0.05906X0.05906*%
G04:AMPARAMS|DCode=21|XSize=177.16mil|YSize=78.74mil|CornerRadius=0mil|HoleSize=0mil|Usage=FLASHONLY|Rotation=300.000|XOffset=0mil|YOffset=0mil|HoleType=Round|Shape=Round|*
%AMOVALD21*
21,1,0.09843,0.07874,0.00000,0.00000,300.0*
1,1,0.07874,-0.02461,0.04262*
1,1,0.07874,0.02461,-0.04262*
%
%ADD21OVALD21*%

G04:AMPARAMS|DCode=22|XSize=177.16mil|YSize=78.74mil|CornerRadius=0mil|HoleSize=0mil|Usage=FLASHONLY|Rotation=210.000|XOffset=0mil|YOffset=0mil|HoleType=Round|Shape=Round|*
%AMOVALD22*
21,1,0.09843,0.07874,0.00000,0.00000,210.0*
1,1,0.07874,0.04262,0.02461*
1,1,0.07874,-0.04262,-0.02461*
%
%ADD22OVALD22*%

%ADD23P,0.08352X4X285.0*%
%ADD24P,0.08352X4X195.0*%
%ADD25P,0.08352X4X160.0*%
%ADD26R,0.05906X0.05906*%
%ADD27P,0.08352X4X80.0*%
%ADD28P,0.08352X4X55.0*%
%ADD29P,0.08352X4X205.0*%
%ADD30C,0.02700*%
%ADD31C,0.04000*%
%ADD32C,0.02500*%
%ADD33C,0.05000*%
%ADD34C,0.03000*%
%ADD35R,0.07087X0.05315*%
%ADD36R,0.09449X0.07480*%
%ADD37R,0.04331X0.02362*%
%ADD38R,0.13780X0.08661*%
%ADD39R,0.03937X0.08661*%
%ADD40O,0.07087X0.01102*%
%ADD41O,0.01102X0.07087*%
%ADD42O,0.01102X0.02756*%
%ADD43O,0.02756X0.01102*%
%ADD44R,0.10551X0.10551*%
%ADD45C,0.03500*%
G36*
X119098Y291591D02*
X127439Y291012D01*
X135744Y290049D01*
X143995Y288703D01*
X152176Y286977D01*
X160268Y284875D01*
X168254Y282402D01*
X176118Y279563D01*
X183842Y276363D01*
X191410Y272811D01*
X198806Y268912D01*
X206014Y264676D01*
X213019Y260112D01*
X219806Y255229D01*
X226360Y250038D01*
X232666Y244549D01*
X238713Y238776D01*
X244487Y232729D01*
X249975Y226422D01*
X255166Y219868D01*
X260049Y213082D01*
X264614Y206077D01*
X268850Y198869D01*
X272748Y191473D01*
X276301Y183905D01*
X279500Y176181D01*
X282340Y168317D01*
X284813Y160330D01*
X286914Y152238D01*
X288640Y144058D01*
X289986Y135806D01*
X290950Y127501D01*
X291529Y119161D01*
X291722Y110802D01*
X291529Y102444D01*
X290950Y94103D01*
X289986Y85799D01*
X288640Y77547D01*
X286914Y69367D01*
X284813Y61274D01*
X282340Y53288D01*
X279500Y45424D01*
X276301Y37700D01*
X272748Y30132D01*
X268850Y22736D01*
X264614Y15528D01*
X260049Y8523D01*
X255166Y1736D01*
X249975Y-4817D01*
X244487Y-11124D01*
X238713Y-17171D01*
X232666Y-22945D01*
X226360Y-28433D01*
X226196Y-28562D01*
X225715Y-28429D01*
X219899Y-12947D01*
X220200Y-12548D01*
X221500Y-12650D01*
X223479Y-12494D01*
X225409Y-12031D01*
X227243Y-11271D01*
X228936Y-10234D01*
X230445Y-8945D01*
X231734Y-7435D01*
X232771Y-5743D01*
X233531Y-3909D01*
X233994Y-1979D01*
X234150Y0D01*
X233994Y1979D01*
X233531Y3909D01*
X232771Y5743D01*
X231734Y7435D01*
X230445Y8945D01*
X228936Y10234D01*
X227243Y11271D01*
X225409Y12031D01*
X223479Y12494D01*
X221500Y12650D01*
X219521Y12494D01*
X217591Y12031D01*
X215757Y11271D01*
X214065Y10234D01*
X212555Y8945D01*
X212264Y8604D01*
X211771Y8690D01*
X194300Y55200D01*
X186141D01*
X186100Y55300D01*
X186059Y61304D01*
X186412Y61658D01*
X188868D01*
Y71920D01*
X188445D01*
Y85280D01*
X193790D01*
Y87587D01*
X199319D01*
X256403Y30503D01*
X256988Y30054D01*
X257669Y29772D01*
X258400Y29676D01*
X258586D01*
X262574Y27374D01*
X266326Y33874D01*
X259826Y37626D01*
X259095Y36360D01*
X258599Y36294D01*
X202486Y92408D01*
X201901Y92857D01*
X201220Y93139D01*
X200489Y93235D01*
X193790D01*
Y95542D01*
X188445D01*
Y100143D01*
X190301D01*
Y107057D01*
X188303D01*
Y111343D01*
X188124Y112240D01*
X187616Y113001D01*
X146445Y154171D01*
Y188400D01*
X146267Y189297D01*
X145758Y190058D01*
X132958Y202858D01*
X132197Y203367D01*
X131300Y203545D01*
X85687D01*
Y204894D01*
X83929D01*
Y207106D01*
X85687D01*
Y214494D01*
X79520D01*
Y207106D01*
X81279D01*
Y204894D01*
X79520D01*
Y197506D01*
X81279D01*
Y195494D01*
X79513D01*
Y188106D01*
X81279D01*
Y186094D01*
X79513D01*
Y181191D01*
X76774Y178452D01*
X75999D01*
X75737Y178504D01*
X69753D01*
X69490Y178452D01*
X68952D01*
Y178990D01*
X69004Y179253D01*
Y185237D01*
X68900Y185764D01*
X68601Y186211D01*
X68154Y186510D01*
X67627Y186615D01*
X67100Y186510D01*
X66653Y186211D01*
X66354Y185764D01*
X66249Y185237D01*
Y179253D01*
X66301Y178990D01*
Y178452D01*
X65336D01*
X65008Y178952D01*
X65067Y179253D01*
Y185237D01*
X65015Y185499D01*
Y191641D01*
X72051Y198676D01*
X72513Y198485D01*
Y197506D01*
X74271D01*
Y195951D01*
X73969Y195500D01*
X73810Y194700D01*
X73969Y193900D01*
X74422Y193222D01*
X75100Y192769D01*
X75900Y192610D01*
X76700Y192769D01*
X77378Y193222D01*
X77831Y193900D01*
X77990Y194700D01*
X77831Y195500D01*
X77378Y196178D01*
X76921Y196483D01*
Y197506D01*
X78680D01*
Y204894D01*
X72513D01*
Y202920D01*
X72325Y202811D01*
X71825Y203098D01*
Y208774D01*
X72513D01*
Y207106D01*
X78680D01*
Y214494D01*
X72513D01*
Y211425D01*
X71049D01*
X68690Y213785D01*
X68260Y214072D01*
X67753Y214173D01*
X66852D01*
X66450Y214673D01*
X66478Y214816D01*
X66374Y215343D01*
X66343Y215388D01*
X66081Y215800D01*
X66343Y216212D01*
X66374Y216257D01*
X66478Y216784D01*
X66450Y216927D01*
X66852Y217427D01*
X67413D01*
Y216506D01*
X73580D01*
Y223894D01*
X67413D01*
Y220078D01*
X66852D01*
X66450Y220578D01*
X66478Y220721D01*
X66374Y221249D01*
X66075Y221695D01*
X65628Y221994D01*
X65101Y222099D01*
X63447D01*
X62920Y221994D01*
X62916Y221993D01*
X62435Y221876D01*
X62067Y221876D01*
X60859D01*
X60675Y222220D01*
X60637Y222376D01*
X60730Y222847D01*
Y224501D01*
X60625Y225028D01*
X60327Y225475D01*
X59880Y225774D01*
X59353Y225878D01*
X58825Y225774D01*
X58379Y225475D01*
X58358D01*
X57911Y225774D01*
X57384Y225878D01*
X56857Y225774D01*
X56410Y225475D01*
X56390D01*
X55943Y225774D01*
X55416Y225878D01*
X54888Y225774D01*
X54442Y225475D01*
X54421D01*
X53974Y225774D01*
X53447Y225878D01*
X53304Y225850D01*
X52804Y226252D01*
Y228443D01*
X55786D01*
Y235357D01*
X54422D01*
Y238206D01*
X56179D01*
Y245594D01*
X50013D01*
Y243226D01*
X7649D01*
X7072Y243802D01*
X7116Y244301D01*
X8227Y245078D01*
X3922Y251227D01*
X-2227Y246922D01*
X2078Y240773D01*
X4592Y242533D01*
X6163Y240963D01*
X6593Y240675D01*
X7100Y240575D01*
X50013D01*
Y238206D01*
X51771D01*
Y235357D01*
X47099D01*
Y228443D01*
X50153D01*
Y224763D01*
X50101Y224501D01*
Y222847D01*
X50193Y222386D01*
X50025Y222175D01*
X49814Y222007D01*
X49353Y222099D01*
X48426D01*
X48196Y222599D01*
X48531Y223100D01*
X48690Y223900D01*
X48531Y224700D01*
X48078Y225378D01*
X47400Y225831D01*
X46600Y225990D01*
X45800Y225831D01*
X45122Y225378D01*
X44669Y224700D01*
X44510Y223900D01*
X44669Y223100D01*
X45122Y222422D01*
X45274Y222320D01*
Y221400D01*
X45375Y220893D01*
X45663Y220463D01*
X46341Y219784D01*
X46771Y219497D01*
X47279Y219396D01*
X47437D01*
X47699Y219344D01*
X49353D01*
X49824Y219437D01*
X49979Y219399D01*
X50324Y219215D01*
Y218290D01*
X49979Y218106D01*
X49824Y218068D01*
X49353Y218162D01*
X47699D01*
X47437Y218110D01*
X43465D01*
X39629Y221945D01*
Y223106D01*
X41387D01*
Y230494D01*
X35221D01*
Y223106D01*
X36979D01*
Y221396D01*
X37079Y220889D01*
X37367Y220459D01*
X40961Y216865D01*
X40767Y216351D01*
X40571Y216338D01*
X40478Y216478D01*
X39800Y216931D01*
X39000Y217090D01*
X38200Y216931D01*
X37522Y216478D01*
X37069Y215800D01*
X36910Y215000D01*
X37069Y214200D01*
X37522Y213522D01*
X38200Y213069D01*
X39000Y212910D01*
X39800Y213069D01*
X40205Y213339D01*
X40411Y213288D01*
X40565Y212735D01*
X40023Y212194D01*
X35120D01*
Y204806D01*
X35179D01*
X35370Y204344D01*
X30904Y199878D01*
X28245Y202537D01*
X27815Y202825D01*
X27308Y202925D01*
X-14019D01*
X-14242Y203258D01*
X-15003Y203767D01*
X-15900Y203945D01*
X-16797Y203767D01*
X-17558Y203258D01*
X-18067Y202497D01*
X-18245Y201600D01*
X-18067Y200703D01*
X-17558Y199942D01*
X-16797Y199433D01*
X-15900Y199255D01*
X-15003Y199433D01*
X-14242Y199942D01*
X-14019Y200274D01*
X26759D01*
X29579Y197455D01*
Y196394D01*
X27821D01*
Y189006D01*
X29779D01*
Y186594D01*
X28021D01*
Y179206D01*
X32923D01*
X35940Y176189D01*
X36370Y175902D01*
X36877Y175801D01*
X37601D01*
X37863Y175749D01*
X43847D01*
X44110Y175801D01*
X44383D01*
X44648Y175537D01*
Y174836D01*
X44148Y174508D01*
X43847Y174567D01*
X37863D01*
X37601Y174515D01*
X35759D01*
X32137Y178137D01*
X31707Y178425D01*
X31200Y178525D01*
X20149D01*
X16625Y182049D01*
Y184220D01*
X16778Y184322D01*
X17231Y185000D01*
X17390Y185800D01*
X17231Y186600D01*
X16778Y187278D01*
X16100Y187731D01*
X15300Y187890D01*
X14500Y187731D01*
X13822Y187278D01*
X13369Y186600D01*
X13210Y185800D01*
X13369Y185000D01*
X13822Y184322D01*
X13974Y184220D01*
Y181500D01*
X14075Y180993D01*
X14363Y180563D01*
X18663Y176263D01*
X19093Y175975D01*
X19600Y175874D01*
X30198D01*
X30297Y175740D01*
X30298Y175630D01*
X30135Y175120D01*
X29622Y174778D01*
X29169Y174100D01*
X29010Y173300D01*
X29169Y172500D01*
X29347Y172234D01*
X28986Y171873D01*
X28900Y171931D01*
X28100Y172090D01*
X27300Y171931D01*
X26622Y171478D01*
X26169Y170800D01*
X26010Y170000D01*
X26169Y169200D01*
X26269Y169051D01*
X26033Y168610D01*
X11665D01*
X-24783Y205058D01*
X-25213Y205345D01*
X-25721Y205446D01*
X-28987D01*
X-29222Y206013D01*
X-29823Y206797D01*
X-30607Y207399D01*
X-31520Y207777D01*
X-32500Y207906D01*
X-33480Y207777D01*
X-34393Y207399D01*
X-35177Y206797D01*
X-35778Y206013D01*
X-36156Y205100D01*
X-36285Y204120D01*
X-36156Y203141D01*
X-35778Y202228D01*
X-35177Y201444D01*
X-34393Y200842D01*
X-33480Y200464D01*
X-32500Y200335D01*
X-31520Y200464D01*
X-30607Y200842D01*
X-29823Y201444D01*
X-29222Y202228D01*
X-28987Y202795D01*
X-26270D01*
X-20722Y197248D01*
X-20913Y196786D01*
X-33987D01*
X-34222Y197353D01*
X-34824Y198137D01*
X-35607Y198738D01*
X-36520Y199116D01*
X-37500Y199245D01*
X-38480Y199116D01*
X-39393Y198738D01*
X-40176Y198137D01*
X-40778Y197353D01*
X-41156Y196440D01*
X-41285Y195460D01*
X-41156Y194481D01*
X-40778Y193568D01*
X-40176Y192784D01*
X-39393Y192182D01*
X-38480Y191804D01*
X-37500Y191675D01*
X-36520Y191804D01*
X-35607Y192182D01*
X-34824Y192784D01*
X-34222Y193568D01*
X-33987Y194135D01*
X-20709D01*
X9047Y164378D01*
X9477Y164091D01*
X9984Y163990D01*
X22033D01*
X22269Y163549D01*
X22169Y163400D01*
X22010Y162600D01*
X22169Y161800D01*
X22622Y161122D01*
X23300Y160669D01*
X24100Y160510D01*
X24900Y160669D01*
X25578Y161122D01*
X26031Y161800D01*
X26075Y162022D01*
X30994D01*
X31185Y161560D01*
X18263Y148637D01*
X17975Y148207D01*
X17875Y147700D01*
Y86749D01*
X-4707Y64167D01*
X-49766D01*
X-49853Y64441D01*
X-50384Y65275D01*
X-51112Y65942D01*
X-51989Y66398D01*
X-52953Y66612D01*
X-53941Y66569D01*
X-54883Y66272D01*
X-55716Y65741D01*
X-56384Y65013D01*
X-56840Y64136D01*
X-57054Y63171D01*
X-57011Y62184D01*
X-56714Y61242D01*
X-56183Y60409D01*
X-55454Y59741D01*
X-54578Y59285D01*
X-53613Y59071D01*
X-52626Y59114D01*
X-51684Y59411D01*
X-50850Y59942D01*
X-50183Y60671D01*
X-49742Y61516D01*
X-4665D01*
X-4458Y61016D01*
X-10371Y55104D01*
X-45540D01*
X-45627Y55378D01*
X-46158Y56212D01*
X-46886Y56879D01*
X-47763Y57335D01*
X-48727Y57549D01*
X-49714Y57506D01*
X-50657Y57209D01*
X-51490Y56678D01*
X-52158Y55949D01*
X-52614Y55073D01*
X-52828Y54108D01*
X-52785Y53121D01*
X-52488Y52179D01*
X-51957Y51345D01*
X-51228Y50678D01*
X-50352Y50222D01*
X-49387Y50008D01*
X-48400Y50051D01*
X-47457Y50348D01*
X-46624Y50879D01*
X-45957Y51607D01*
X-45516Y52453D01*
X-10129D01*
X-9922Y51953D01*
X-15834Y46041D01*
X-41314D01*
X-41400Y46315D01*
X-41931Y47148D01*
X-42660Y47816D01*
X-43536Y48272D01*
X-44501Y48486D01*
X-45488Y48443D01*
X-46431Y48146D01*
X-47264Y47615D01*
X-47932Y46887D01*
X-48388Y46010D01*
X-48602Y45045D01*
X-48559Y44058D01*
X-48261Y43116D01*
X-47730Y42282D01*
X-47002Y41615D01*
X-46126Y41159D01*
X-45161Y40945D01*
X-44174Y40988D01*
X-43231Y41285D01*
X-42398Y41816D01*
X-41730Y42544D01*
X-41290Y43390D01*
X-16038D01*
X-15846Y42928D01*
X-21797Y36978D01*
X-37088D01*
X-37174Y37252D01*
X-37705Y38085D01*
X-38434Y38753D01*
X-39310Y39209D01*
X-40275Y39423D01*
X-41262Y39380D01*
X-42204Y39083D01*
X-43038Y38552D01*
X-43705Y37823D01*
X-44162Y36947D01*
X-44376Y35982D01*
X-44332Y34995D01*
X-44035Y34053D01*
X-43504Y33219D01*
X-42776Y32552D01*
X-41899Y32096D01*
X-40935Y31882D01*
X-39947Y31925D01*
X-39005Y32222D01*
X-38172Y32753D01*
X-37504Y33481D01*
X-37064Y34327D01*
X-21755D01*
X-21548Y33827D01*
X-27460Y27915D01*
X-32862D01*
X-32948Y28189D01*
X-33479Y29022D01*
X-34207Y29690D01*
X-35084Y30146D01*
X-36049Y30360D01*
X-37036Y30317D01*
X-37978Y30020D01*
X-38812Y29489D01*
X-39479Y28760D01*
X-39935Y27884D01*
X-40149Y26919D01*
X-40106Y25932D01*
X-39809Y24990D01*
X-39278Y24156D01*
X-38550Y23489D01*
X-37673Y23032D01*
X-36708Y22818D01*
X-35721Y22862D01*
X-34779Y23159D01*
X-33946Y23690D01*
X-33278Y24418D01*
X-32838Y25264D01*
X-26996D01*
X-26852Y25059D01*
X-26771Y24782D01*
X-30603Y20950D01*
X-30858Y21083D01*
X-31822Y21297D01*
X-32810Y21254D01*
X-33752Y20957D01*
X-34585Y20426D01*
X-35253Y19697D01*
X-35709Y18821D01*
X-35923Y17856D01*
X-35880Y16869D01*
X-35583Y15926D01*
X-35052Y15093D01*
X-34323Y14426D01*
X-33447Y13969D01*
X-32482Y13755D01*
X-31495Y13799D01*
X-30553Y14096D01*
X-29719Y14627D01*
X-29052Y15355D01*
X-28596Y16232D01*
X-28382Y17196D01*
X-28425Y18183D01*
X-28711Y19093D01*
X49650Y97454D01*
X50111Y97208D01*
X50010Y96700D01*
X50169Y95900D01*
X50622Y95222D01*
X51300Y94769D01*
X51421Y94745D01*
X51511Y94536D01*
X51573Y94205D01*
X51169Y93600D01*
X51010Y92800D01*
X51169Y92000D01*
X51622Y91322D01*
X52300Y90869D01*
X53100Y90710D01*
X53900Y90869D01*
X54578Y91322D01*
X54860Y91745D01*
X55037Y91863D01*
X55997Y92822D01*
X56459Y92631D01*
Y91996D01*
X56306Y91894D01*
X55853Y91216D01*
X55694Y90416D01*
X55853Y89616D01*
X56306Y88938D01*
X56984Y88485D01*
X57784Y88326D01*
X58584Y88485D01*
X59262Y88938D01*
X59715Y89616D01*
X59874Y90416D01*
X59715Y91216D01*
X59262Y91894D01*
X59110Y91996D01*
Y145612D01*
X59610Y146014D01*
X59753Y145985D01*
X60280Y146090D01*
X60727Y146389D01*
X60747D01*
X61194Y146090D01*
X61721Y145985D01*
X62248Y146090D01*
X62695Y146389D01*
X62716D01*
X63163Y146090D01*
X63690Y145985D01*
X64217Y146090D01*
X64664Y146389D01*
X64684D01*
X65131Y146090D01*
X65658Y145985D01*
X66185Y146090D01*
X66632Y146389D01*
X66653D01*
X67100Y146090D01*
X67627Y145985D01*
X68154Y146090D01*
X68601Y146389D01*
X68822Y146720D01*
X69365Y146808D01*
X69422Y146722D01*
X70100Y146269D01*
X70900Y146110D01*
X71700Y146269D01*
X72378Y146722D01*
X72831Y147400D01*
X72990Y148200D01*
X72831Y149000D01*
X72378Y149678D01*
X71700Y150131D01*
X70900Y150290D01*
X70720Y150254D01*
X69682Y151292D01*
X69252Y151580D01*
X69004Y151629D01*
Y153347D01*
X68913Y153808D01*
X69081Y154019D01*
X69292Y154187D01*
X69753Y154096D01*
X71419D01*
Y153355D01*
X71520Y152848D01*
X71808Y152418D01*
X72546Y151680D01*
X72510Y151500D01*
X72669Y150700D01*
X73122Y150022D01*
X73800Y149569D01*
X74600Y149410D01*
X75400Y149569D01*
X76078Y150022D01*
X76531Y150700D01*
X76690Y151500D01*
X76531Y152300D01*
X76078Y152978D01*
X75400Y153431D01*
X74894Y153532D01*
X74854Y153596D01*
X75132Y154096D01*
X75737D01*
X76125Y154173D01*
X76545Y153994D01*
X76692Y153885D01*
X76769Y153500D01*
X77222Y152822D01*
X77900Y152369D01*
X78700Y152210D01*
X79500Y152369D01*
X80178Y152822D01*
X80631Y153500D01*
X80790Y154300D01*
X80631Y155100D01*
X80262Y155653D01*
X80283Y155970D01*
X80719Y156325D01*
X81300Y156210D01*
X82100Y156369D01*
X82674Y156753D01*
X83175Y156584D01*
Y151200D01*
X83275Y150693D01*
X83563Y150263D01*
X85263Y148563D01*
X85693Y148275D01*
X86200Y148175D01*
X86213D01*
Y145806D01*
X92379D01*
Y153194D01*
X86213D01*
X85826Y153466D01*
Y155084D01*
X86013Y155506D01*
X92180D01*
Y162894D01*
X92180D01*
X92226Y163374D01*
X94200D01*
X94707Y163475D01*
X95137Y163763D01*
X96941Y165567D01*
X97228Y165997D01*
X97270Y166206D01*
X99087D01*
Y168575D01*
X100080D01*
X102276Y166379D01*
Y158189D01*
X113324D01*
Y161404D01*
X117713D01*
Y158306D01*
X123880D01*
Y165694D01*
X117713D01*
Y164055D01*
X113324D01*
Y167269D01*
X105134D01*
X101566Y170837D01*
X101136Y171125D01*
X100629Y171226D01*
X99087D01*
Y173574D01*
X103829D01*
X104336Y173675D01*
X104766Y173963D01*
X105134Y174331D01*
X113324D01*
Y177545D01*
X117713D01*
Y176006D01*
X123880D01*
Y183394D01*
X117713D01*
Y180196D01*
X113324D01*
Y183411D01*
X102276D01*
Y176225D01*
X99735D01*
X99584Y176725D01*
X99878Y176922D01*
X100331Y177600D01*
X100490Y178400D01*
X100331Y179200D01*
X99878Y179878D01*
X99200Y180331D01*
X98400Y180490D01*
X97600Y180331D01*
X96922Y179878D01*
X96469Y179200D01*
X96355Y178626D01*
X89600D01*
X89093Y178525D01*
X88663Y178237D01*
X86909Y176484D01*
X79208D01*
X79016Y176946D01*
X80777Y178706D01*
X85680D01*
Y186094D01*
X83929D01*
Y188106D01*
X85680D01*
Y195494D01*
X83929D01*
Y197506D01*
X85687D01*
Y198855D01*
X130329D01*
X141755Y187429D01*
Y155545D01*
X114000D01*
X113103Y155367D01*
X112342Y154858D01*
X104731Y147248D01*
X104355Y147578D01*
X104746Y148088D01*
X105028Y148769D01*
X105124Y149500D01*
X105028Y150231D01*
X104746Y150912D01*
X104297Y151497D01*
X103712Y151946D01*
X103031Y152228D01*
X102300Y152324D01*
X101569Y152228D01*
X100888Y151946D01*
X100757Y151845D01*
X99387D01*
Y153194D01*
X93221D01*
Y145806D01*
X93959D01*
Y143094D01*
X93120D01*
Y135706D01*
X99287D01*
Y137155D01*
X102413D01*
Y135806D01*
X108580D01*
Y143194D01*
X107841D01*
Y143725D01*
X114971Y150855D01*
X143129D01*
X183612Y110371D01*
Y107057D01*
X181614D01*
Y100143D01*
X183755D01*
Y95542D01*
X178410D01*
Y85280D01*
X178410Y85280D01*
X178410D01*
X178363Y84800D01*
X96200D01*
X92741Y77453D01*
X88647D01*
Y69947D01*
X88741D01*
X89009Y69525D01*
X41600Y-31175D01*
Y-55950D01*
X41184Y-56228D01*
X37637Y-54759D01*
X30069Y-51206D01*
X22673Y-47307D01*
X15465Y-43071D01*
X8460Y-38507D01*
X1674Y-33624D01*
X-4880Y-28433D01*
X-11187Y-22945D01*
X-17234Y-17171D01*
X-23007Y-11124D01*
X-28496Y-4817D01*
X-33687Y1736D01*
X-38570Y8523D01*
X-43134Y15528D01*
X-47370Y22736D01*
X-51269Y30132D01*
X-54821Y37700D01*
X-58021Y45424D01*
X-60860Y53288D01*
X-63333Y61274D01*
X-65435Y69367D01*
X-67160Y77547D01*
X-68506Y85799D01*
X-69470Y94103D01*
X-70049Y102444D01*
X-70242Y110802D01*
X-70049Y119161D01*
X-69470Y127501D01*
X-68506Y135806D01*
X-67160Y144058D01*
X-65435Y152238D01*
X-63333Y160330D01*
X-60860Y168317D01*
X-58021Y176181D01*
X-54821Y183905D01*
X-51269Y191473D01*
X-47370Y198869D01*
X-43134Y206077D01*
X-38570Y213082D01*
X-33687Y219868D01*
X-28496Y226422D01*
X-23007Y232729D01*
X-17234Y238776D01*
X-11187Y244549D01*
X-4880Y250038D01*
X1674Y255229D01*
X8460Y260112D01*
X15465Y264676D01*
X22673Y268912D01*
X30069Y272811D01*
X37637Y276363D01*
X45362Y279563D01*
X53225Y282402D01*
X61212Y284875D01*
X69304Y286977D01*
X77485Y288703D01*
X85736Y290049D01*
X94041Y291012D01*
X102381Y291591D01*
X110740Y291784D01*
X119098Y291591D01*
D02*
G37*
G36*
X158300Y76346D02*
Y55525D01*
X137047D01*
X136878Y55778D01*
X136200Y56231D01*
X135400Y56390D01*
X134600Y56231D01*
X133922Y55778D01*
X133469Y55100D01*
X133310Y54300D01*
X133469Y53500D01*
X133922Y52822D01*
X134600Y52369D01*
X135400Y52210D01*
X136200Y52369D01*
X136878Y52822D01*
X136913Y52874D01*
X158300D01*
Y48721D01*
X157524D01*
X156487Y49758D01*
X155726Y50267D01*
X154828Y50445D01*
X148987D01*
Y51794D01*
X142821D01*
Y44406D01*
X148987D01*
Y45755D01*
X153223D01*
Y44759D01*
X155013D01*
X155291Y44574D01*
X156188Y44395D01*
X157086Y44574D01*
X157363Y44759D01*
X159153D01*
Y44900D01*
X164246D01*
Y44759D01*
X170177D01*
Y44900D01*
X175298D01*
X175713Y44694D01*
Y41860D01*
X167212D01*
X166217Y41662D01*
X165587Y41241D01*
X164246D01*
Y37279D01*
X165587D01*
X166217Y36858D01*
X167212Y36660D01*
X177056D01*
X178051Y36858D01*
X178722Y37306D01*
X181879D01*
Y44694D01*
X182294Y44900D01*
X188239D01*
X216614Y-35921D01*
X213019Y-38507D01*
X206014Y-43071D01*
X198806Y-47307D01*
X191410Y-51206D01*
X183842Y-54759D01*
X176118Y-57958D01*
X168254Y-60798D01*
X160268Y-63271D01*
X152176Y-65372D01*
X143995Y-67098D01*
X135744Y-68444D01*
X127439Y-69407D01*
X119098Y-69986D01*
X110740Y-70179D01*
X102381Y-69986D01*
X94041Y-69407D01*
X85736Y-68444D01*
X77485Y-67098D01*
X69304Y-65372D01*
X61212Y-63271D01*
X53225Y-60798D01*
X49800Y-59561D01*
X49800Y-33177D01*
X100516Y76700D01*
X115294D01*
X115647Y76346D01*
Y69947D01*
X123153D01*
Y76700D01*
X157947Y76700D01*
X158300Y76346D01*
D02*
G37*
G36*
X61506Y175301D02*
X61022Y174978D01*
X60569Y174300D01*
X60410Y173500D01*
X60569Y172700D01*
X61022Y172022D01*
X61466Y171725D01*
X61314Y171226D01*
X60280D01*
X60178Y171378D01*
X59500Y171831D01*
X58700Y171990D01*
X57900Y171831D01*
X57222Y171378D01*
X56769Y170700D01*
X56610Y169900D01*
X56769Y169100D01*
X57222Y168422D01*
X57900Y167969D01*
X58700Y167810D01*
X59500Y167969D01*
X60178Y168422D01*
X60280Y168575D01*
X64700D01*
X65207Y168675D01*
X65637Y168963D01*
X66570Y169896D01*
X68002D01*
X68404Y169396D01*
X68375Y169253D01*
X68480Y168726D01*
X68779Y168279D01*
Y168258D01*
X68480Y167811D01*
X68375Y167284D01*
X68480Y166757D01*
X68779Y166310D01*
Y166290D01*
X68480Y165843D01*
X68375Y165316D01*
X68480Y164788D01*
X68779Y164342D01*
X69226Y164043D01*
X69753Y163938D01*
X75737D01*
X75999Y163990D01*
X82431D01*
X83549Y162872D01*
X83230Y162484D01*
X83052Y162603D01*
X82545Y162704D01*
X75999D01*
X75737Y162756D01*
X69753D01*
X69226Y162652D01*
X68779Y162353D01*
X68480Y161906D01*
X68375Y161379D01*
X68480Y160852D01*
X68510Y160806D01*
X68681Y160537D01*
X68470Y160042D01*
X67995Y159868D01*
X67900Y159931D01*
X67100Y160090D01*
X66300Y159931D01*
X65622Y159478D01*
X65215Y158868D01*
X64897Y158800D01*
X64659Y158800D01*
X64627Y158847D01*
X63726Y159749D01*
Y160420D01*
X63878Y160522D01*
X64331Y161200D01*
X64490Y162000D01*
X64331Y162800D01*
X63878Y163478D01*
X63200Y163931D01*
X62400Y164090D01*
X61600Y163931D01*
X60922Y163478D01*
X60469Y162800D01*
X60310Y162000D01*
X60469Y161200D01*
X60896Y160561D01*
X60913Y160455D01*
X60880Y160222D01*
X60375Y159981D01*
X60300Y160031D01*
X59500Y160190D01*
X58700Y160031D01*
X58022Y159578D01*
X57714Y159118D01*
X57156Y158966D01*
X57075Y158979D01*
X56925Y159093D01*
Y160420D01*
X57078Y160522D01*
X57531Y161200D01*
X57690Y162000D01*
X57531Y162800D01*
X57078Y163478D01*
X56400Y163931D01*
X55600Y164090D01*
X54800Y163931D01*
X54122Y163478D01*
X53669Y162800D01*
X53510Y162000D01*
X53669Y161200D01*
X54122Y160522D01*
X54274Y160420D01*
Y158200D01*
X54375Y157693D01*
X54663Y157263D01*
X56652Y155273D01*
X56547Y154671D01*
X56383Y154593D01*
X56343Y154620D01*
X55816Y154725D01*
X55288Y154620D01*
X54842Y154321D01*
X54821D01*
X54374Y154620D01*
X53847Y154725D01*
X53320Y154620D01*
X52873Y154321D01*
X52853D01*
X52406Y154620D01*
X51879Y154725D01*
X51351Y154620D01*
X50905Y154321D01*
X50884D01*
X50437Y154620D01*
X49910Y154725D01*
X49383Y154620D01*
X48936Y154321D01*
X48638Y153874D01*
X48533Y153347D01*
Y147363D01*
X48585Y147101D01*
Y103959D01*
X28025Y83400D01*
X27525Y83607D01*
Y144751D01*
X36922Y154148D01*
X37601D01*
X37863Y154096D01*
X43847D01*
X44148Y154155D01*
X44648Y153828D01*
Y153610D01*
X44596Y153347D01*
Y147363D01*
X44648Y147101D01*
Y143518D01*
X43223Y142094D01*
X38320D01*
Y134706D01*
X40178D01*
Y131594D01*
X38421D01*
Y124206D01*
X44587D01*
Y131594D01*
X42829D01*
Y134706D01*
X44487D01*
Y139609D01*
X46911Y142032D01*
X47198Y142462D01*
X47299Y142969D01*
Y147101D01*
X47351Y147363D01*
Y153347D01*
X47299Y153610D01*
Y166674D01*
X49800D01*
X50307Y166775D01*
X50737Y167063D01*
X59476Y175801D01*
X61354D01*
X61506Y175301D01*
D02*
G37*
G36*
X42566Y210280D02*
X42510Y210000D01*
X42669Y209200D01*
X43122Y208522D01*
X43800Y208069D01*
X44600Y207910D01*
X45400Y208069D01*
X46078Y208522D01*
X46531Y209200D01*
X46601Y209553D01*
X47355D01*
X47447Y209353D01*
X47462Y209038D01*
X46922Y208678D01*
X46469Y208000D01*
X46310Y207200D01*
X46469Y206400D01*
X46922Y205722D01*
X47600Y205269D01*
X48400Y205110D01*
X49200Y205269D01*
X49878Y205722D01*
X50147Y206125D01*
X50505D01*
X50951Y205826D01*
X51479Y205722D01*
X52006Y205826D01*
X52453Y206125D01*
X52473D01*
X52920Y205826D01*
X53447Y205722D01*
X53974Y205826D01*
X54421Y206125D01*
X54442D01*
X54888Y205826D01*
X55416Y205722D01*
X55943Y205826D01*
X56390Y206125D01*
X56410D01*
X56857Y205826D01*
X57384Y205722D01*
X57911Y205826D01*
X58358Y206125D01*
X58379D01*
X58825Y205826D01*
X59353Y205722D01*
X59880Y205826D01*
X60327Y206125D01*
X60625Y206572D01*
X60730Y207099D01*
Y208753D01*
X60637Y209224D01*
X60675Y209380D01*
X60859Y209724D01*
X62067D01*
X62435Y209724D01*
X62916Y209607D01*
X62920Y209606D01*
X63447Y209501D01*
X64624D01*
X65046Y209080D01*
X65010Y208900D01*
X65169Y208100D01*
X65622Y207422D01*
X66300Y206969D01*
X67100Y206810D01*
X67900Y206969D01*
X68578Y207422D01*
X68674Y207566D01*
X69174Y207415D01*
Y202649D01*
X63087Y196562D01*
X62587Y196769D01*
Y203894D01*
X56420D01*
Y196506D01*
X58427D01*
Y194609D01*
X57986Y194373D01*
X57900Y194431D01*
X57100Y194590D01*
X56300Y194431D01*
X55622Y193978D01*
X55169Y193300D01*
X55038Y192643D01*
X54639Y192459D01*
X54528Y192446D01*
X48854Y198120D01*
X48890Y198300D01*
X48731Y199100D01*
X48278Y199778D01*
X47600Y200231D01*
X46800Y200390D01*
X46000Y200231D01*
X45322Y199778D01*
X44869Y199100D01*
X44710Y198300D01*
X44869Y197500D01*
X45322Y196822D01*
X46000Y196369D01*
X46800Y196210D01*
X46980Y196246D01*
X50671Y192554D01*
X50507Y192012D01*
X50100Y191931D01*
X49422Y191478D01*
X48969Y190800D01*
X48924Y190574D01*
X48446Y190429D01*
X48137Y190737D01*
X47707Y191025D01*
X47200Y191126D01*
X43680D01*
X43578Y191278D01*
X42900Y191731D01*
X42100Y191890D01*
X41300Y191731D01*
X40622Y191278D01*
X40169Y190600D01*
X40010Y189800D01*
X40169Y189000D01*
X40622Y188322D01*
X41300Y187869D01*
X42100Y187710D01*
X42900Y187869D01*
X43578Y188322D01*
X43680Y188475D01*
X46651D01*
X48024Y187102D01*
X47993Y186921D01*
X47827Y186592D01*
X47414Y186510D01*
X46968Y186211D01*
X46947D01*
X46500Y186510D01*
X45973Y186615D01*
X45446Y186510D01*
X44999Y186211D01*
X44701Y185764D01*
X44596Y185237D01*
Y183570D01*
X41804D01*
X39026Y186349D01*
Y197020D01*
X39178Y197122D01*
X39631Y197800D01*
X39790Y198600D01*
X39631Y199400D01*
X39178Y200078D01*
X38500Y200531D01*
X37700Y200690D01*
X36900Y200531D01*
X36222Y200078D01*
X35769Y199400D01*
X35610Y198600D01*
X35769Y197800D01*
X36222Y197122D01*
X36375Y197020D01*
Y185800D01*
X36475Y185293D01*
X36763Y184863D01*
X40318Y181308D01*
X40748Y181020D01*
X41255Y180919D01*
X44596D01*
Y179253D01*
X44655Y178952D01*
X44328Y178452D01*
X44110D01*
X43847Y178504D01*
X37863D01*
X37601Y178452D01*
X37426D01*
X34187Y181691D01*
Y186594D01*
X32429D01*
Y189006D01*
X33987D01*
Y196394D01*
X32229D01*
Y197455D01*
X38437Y203663D01*
X38725Y204093D01*
X38826Y204600D01*
Y204806D01*
X41287D01*
Y209709D01*
X42105Y210526D01*
X42566Y210280D01*
D02*
G37*
%LPC*%
G36*
X139680Y103294D02*
X133513D01*
Y101535D01*
X130126D01*
X129696Y102096D01*
X128994Y102634D01*
X128177Y102973D01*
X127300Y103088D01*
X126423Y102973D01*
X125606Y102634D01*
X124904Y102096D01*
X124366Y101394D01*
X124027Y100577D01*
X123912Y99700D01*
X124027Y98823D01*
X124366Y98006D01*
X124904Y97304D01*
X125606Y96766D01*
X126423Y96427D01*
X127300Y96312D01*
X128177Y96427D01*
X128994Y96766D01*
X129696Y97304D01*
X130126Y97865D01*
X133513D01*
Y95906D01*
X139680D01*
Y103294D01*
D02*
G37*
G36*
X127400Y123188D02*
X126523Y123073D01*
X125706Y122734D01*
X125004Y122196D01*
X124466Y121494D01*
X124127Y120677D01*
X124012Y119800D01*
X124127Y118923D01*
X124466Y118106D01*
X125004Y117404D01*
X125706Y116866D01*
X126523Y116527D01*
X127400Y116412D01*
X128277Y116527D01*
X129094Y116866D01*
X129796Y117404D01*
X129842Y117465D01*
X133413D01*
Y115606D01*
X139579D01*
Y122994D01*
X133413D01*
Y121135D01*
X130483D01*
X130334Y121494D01*
X129796Y122196D01*
X129094Y122734D01*
X128277Y123073D01*
X127400Y123188D01*
D02*
G37*
G36*
X31566Y-21874D02*
X27813Y-28374D01*
X34313Y-32126D01*
X38066Y-25626D01*
X31566Y-21874D01*
D02*
G37*
G36*
X104100Y103088D02*
X103223Y102973D01*
X102406Y102634D01*
X101704Y102096D01*
X101166Y101394D01*
X100827Y100577D01*
X100712Y99700D01*
X100827Y98823D01*
X101166Y98006D01*
X101704Y97304D01*
X102406Y96766D01*
X103223Y96427D01*
X104100Y96312D01*
X104977Y96427D01*
X105794Y96766D01*
X106496Y97304D01*
X107034Y98006D01*
X107373Y98823D01*
X107488Y99700D01*
X107373Y100577D01*
X107034Y101394D01*
X106496Y102096D01*
X105794Y102634D01*
X104977Y102973D01*
X104100Y103088D01*
D02*
G37*
G36*
X-58200Y106285D02*
X-59180Y106156D01*
X-60093Y105778D01*
X-60877Y105176D01*
X-61478Y104393D01*
X-61856Y103480D01*
X-61985Y102500D01*
X-61856Y101520D01*
X-61478Y100607D01*
X-60877Y99823D01*
X-60093Y99222D01*
X-59180Y98844D01*
X-58200Y98715D01*
X-57220Y98844D01*
X-56307Y99222D01*
X-55524Y99823D01*
X-54922Y100607D01*
X-54544Y101520D01*
X-54415Y102500D01*
X-54544Y103480D01*
X-54922Y104393D01*
X-55524Y105176D01*
X-56307Y105778D01*
X-57220Y106156D01*
X-58200Y106285D01*
D02*
G37*
G36*
X110740Y16473D02*
X107521Y16314D01*
X104334Y15842D01*
X101208Y15059D01*
X98174Y13973D01*
X95261Y12595D01*
X92497Y10939D01*
X89909Y9019D01*
X87521Y6855D01*
X85357Y4468D01*
X83438Y1879D01*
X81781Y-884D01*
X80404Y-3797D01*
X79318Y-6831D01*
X78535Y-9957D01*
X78062Y-13145D01*
X77904Y-16363D01*
X78062Y-19581D01*
X78535Y-22769D01*
X79318Y-25895D01*
X80404Y-28929D01*
X81781Y-31842D01*
X83438Y-34606D01*
X85357Y-37194D01*
X87521Y-39581D01*
X89909Y-41745D01*
X92497Y-43665D01*
X95261Y-45322D01*
X98174Y-46699D01*
X101208Y-47785D01*
X104334Y-48568D01*
X107521Y-49041D01*
X110740Y-49199D01*
X113958Y-49041D01*
X117146Y-48568D01*
X120272Y-47785D01*
X123305Y-46699D01*
X126218Y-45322D01*
X128982Y-43665D01*
X131570Y-41745D01*
X133958Y-39581D01*
X136122Y-37194D01*
X138042Y-34606D01*
X139698Y-31842D01*
X141076Y-28929D01*
X142162Y-25895D01*
X142945Y-22769D01*
X143417Y-19581D01*
X143575Y-16363D01*
X143417Y-13145D01*
X142945Y-9957D01*
X142162Y-6831D01*
X141076Y-3797D01*
X139698Y-884D01*
X138042Y1879D01*
X136122Y4468D01*
X133958Y6855D01*
X131570Y9019D01*
X128982Y10939D01*
X126218Y12595D01*
X123305Y13973D01*
X120272Y15059D01*
X117146Y15842D01*
X113958Y16314D01*
X110740Y16473D01*
D02*
G37*
G36*
X-58200Y136285D02*
X-59180Y136156D01*
X-60093Y135778D01*
X-60877Y135177D01*
X-61478Y134393D01*
X-61856Y133480D01*
X-61985Y132500D01*
X-61856Y131520D01*
X-61478Y130607D01*
X-60877Y129824D01*
X-60093Y129222D01*
X-59180Y128844D01*
X-58200Y128715D01*
X-57220Y128844D01*
X-56307Y129222D01*
X-55524Y129824D01*
X-54922Y130607D01*
X-54544Y131520D01*
X-54415Y132500D01*
X-54544Y133480D01*
X-54922Y134393D01*
X-55524Y135177D01*
X-56307Y135778D01*
X-57220Y136156D01*
X-58200Y136285D01*
D02*
G37*
G36*
Y146285D02*
X-59180Y146156D01*
X-60093Y145778D01*
X-60877Y145176D01*
X-61478Y144393D01*
X-61856Y143480D01*
X-61985Y142500D01*
X-61856Y141520D01*
X-61478Y140607D01*
X-60877Y139823D01*
X-60093Y139222D01*
X-59180Y138844D01*
X-58200Y138715D01*
X-57220Y138844D01*
X-56307Y139222D01*
X-55524Y139823D01*
X-54922Y140607D01*
X-54544Y141520D01*
X-54415Y142500D01*
X-54544Y143480D01*
X-54922Y144393D01*
X-55524Y145176D01*
X-56307Y145778D01*
X-57220Y146156D01*
X-58200Y146285D01*
D02*
G37*
G36*
X142409Y142914D02*
X137186Y137691D01*
X141546Y133330D01*
X142610Y134394D01*
X143110D01*
X149644Y127860D01*
X148230Y126446D01*
X152591Y122085D01*
X157815Y127309D01*
X153454Y131670D01*
X152240Y130456D01*
X145706Y136990D01*
Y137490D01*
X146770Y138554D01*
X142409Y142914D01*
D02*
G37*
G36*
X104000Y123288D02*
X103123Y123173D01*
X102306Y122834D01*
X101604Y122296D01*
X101066Y121594D01*
X100727Y120777D01*
X100612Y119900D01*
X100727Y119023D01*
X101066Y118206D01*
X101604Y117504D01*
X102306Y116966D01*
X103123Y116627D01*
X104000Y116512D01*
X104877Y116627D01*
X105694Y116966D01*
X106396Y117504D01*
X106934Y118206D01*
X107273Y119023D01*
X107388Y119900D01*
X107273Y120777D01*
X106934Y121594D01*
X106396Y122296D01*
X105694Y122834D01*
X104877Y123173D01*
X104000Y123288D01*
D02*
G37*
G36*
X94000D02*
X93123Y123173D01*
X92306Y122834D01*
X91604Y122296D01*
X91066Y121594D01*
X90876Y121135D01*
X87587D01*
Y122994D01*
X81420D01*
Y115606D01*
X87587D01*
Y117465D01*
X91656D01*
X92306Y116966D01*
X93123Y116627D01*
X94000Y116512D01*
X94877Y116627D01*
X95694Y116966D01*
X96396Y117504D01*
X96934Y118206D01*
X97273Y119023D01*
X97388Y119900D01*
X97273Y120777D01*
X96934Y121594D01*
X96396Y122296D01*
X95694Y122834D01*
X94877Y123173D01*
X94000Y123288D01*
D02*
G37*
G36*
X87587Y103394D02*
X81420D01*
Y96006D01*
X87587D01*
Y97865D01*
X91274D01*
X91704Y97304D01*
X92406Y96766D01*
X93223Y96427D01*
X94100Y96312D01*
X94977Y96427D01*
X95794Y96766D01*
X96496Y97304D01*
X97034Y98006D01*
X97373Y98823D01*
X97488Y99700D01*
X97373Y100577D01*
X97034Y101394D01*
X96496Y102096D01*
X95794Y102634D01*
X94977Y102973D01*
X94100Y103088D01*
X93223Y102973D01*
X92406Y102634D01*
X91704Y102096D01*
X91274Y101535D01*
X87587D01*
Y103394D01*
D02*
G37*
G36*
X17209Y16815D02*
X11986Y11591D01*
X16346Y7230D01*
X17410Y8294D01*
X17910D01*
X22294Y3910D01*
X21330Y2946D01*
X25691Y-1414D01*
X30915Y3809D01*
X26554Y8170D01*
X24890Y6506D01*
X20506Y10890D01*
Y11390D01*
X21570Y12454D01*
X17209Y16815D01*
D02*
G37*
G36*
X83009Y83714D02*
X77785Y78491D01*
X78718Y77558D01*
X76542Y75382D01*
X76042D01*
X75409Y76015D01*
X70186Y70791D01*
X74546Y66430D01*
X79770Y71654D01*
X79137Y72286D01*
Y72786D01*
X81314Y74963D01*
X82146Y74130D01*
X87370Y79354D01*
X83009Y83714D01*
D02*
G37*
G36*
X62109Y62414D02*
X56885Y57191D01*
X61246Y52830D01*
X62310Y53894D01*
X62810D01*
X67144Y49560D01*
X66030Y48446D01*
X70391Y44085D01*
X75615Y49309D01*
X71254Y53670D01*
X69740Y52156D01*
X65406Y56490D01*
Y56990D01*
X66470Y58054D01*
X62109Y62414D01*
D02*
G37*
G36*
X156188Y42084D02*
X149964D01*
X149233Y41988D01*
X148552Y41706D01*
X147967Y41257D01*
X145804Y39094D01*
X143020D01*
Y31706D01*
X149187D01*
Y34490D01*
X151134Y36436D01*
X153364D01*
Y21548D01*
X153460Y20817D01*
X153742Y20136D01*
X154191Y19551D01*
X154480Y19262D01*
X154415Y18766D01*
X154149Y18613D01*
X153160Y17854D01*
X152400Y16864D01*
X151923Y15712D01*
X151760Y14475D01*
X151923Y13239D01*
X152400Y12086D01*
X153160Y11097D01*
X154149Y10338D01*
X155301Y9860D01*
X156538Y9697D01*
X157775Y9860D01*
X158927Y10338D01*
X167451Y15259D01*
X168440Y16018D01*
X169200Y17008D01*
X169677Y18160D01*
X169840Y19397D01*
X169677Y20633D01*
X169200Y21786D01*
X168440Y22775D01*
X167451Y23534D01*
X166299Y24012D01*
X165062Y24174D01*
X163825Y24012D01*
X162673Y23534D01*
X159834Y21895D01*
X159012Y22717D01*
Y37279D01*
X159153D01*
Y41241D01*
X158197D01*
X158185Y41257D01*
X157600Y41706D01*
X156919Y41988D01*
X156188Y42084D01*
D02*
G37*
G36*
X40909Y40714D02*
X35686Y35491D01*
X40046Y31130D01*
X41110Y32194D01*
X41610D01*
X45744Y28060D01*
X44430Y26746D01*
X48791Y22386D01*
X54014Y27609D01*
X49654Y31970D01*
X48340Y30656D01*
X44206Y34790D01*
Y35290D01*
X45270Y36354D01*
X40909Y40714D01*
D02*
G37*
G36*
X-16426Y143638D02*
X-19644Y143480D01*
X-22831Y143007D01*
X-25957Y142224D01*
X-28991Y141139D01*
X-31904Y139761D01*
X-34668Y138104D01*
X-37256Y136185D01*
X-39644Y134021D01*
X-41808Y131633D01*
X-43727Y129045D01*
X-45384Y126281D01*
X-46762Y123368D01*
X-47847Y120334D01*
X-48630Y117208D01*
X-49103Y114021D01*
X-49261Y110802D01*
X-49103Y107584D01*
X-48630Y104396D01*
X-47847Y101271D01*
X-46762Y98237D01*
X-45384Y95324D01*
X-43727Y92560D01*
X-41808Y89972D01*
X-39644Y87584D01*
X-37256Y85420D01*
X-34668Y83500D01*
X-31904Y81844D01*
X-28991Y80466D01*
X-25957Y79381D01*
X-22831Y78598D01*
X-19644Y78125D01*
X-16426Y77967D01*
X-13207Y78125D01*
X-10020Y78598D01*
X-6894Y79381D01*
X-3860Y80466D01*
X-947Y81844D01*
X1817Y83500D01*
X4405Y85420D01*
X6793Y87584D01*
X8957Y89972D01*
X10876Y92560D01*
X12533Y95324D01*
X13911Y98237D01*
X14996Y101271D01*
X15779Y104396D01*
X16252Y107584D01*
X16410Y110802D01*
X16252Y114021D01*
X15779Y117208D01*
X14996Y120334D01*
X13911Y123368D01*
X12533Y126281D01*
X10876Y129045D01*
X8957Y131633D01*
X6793Y134021D01*
X4405Y136185D01*
X1817Y138104D01*
X-947Y139761D01*
X-3860Y141139D01*
X-6894Y142224D01*
X-10020Y143007D01*
X-13207Y143480D01*
X-16426Y143638D01*
D02*
G37*
G36*
X0Y12650D02*
X-1979Y12494D01*
X-3909Y12031D01*
X-5743Y11271D01*
X-7435Y10234D01*
X-8945Y8945D01*
X-10234Y7435D01*
X-11271Y5743D01*
X-12031Y3909D01*
X-12494Y1979D01*
X-12650Y0D01*
X-12494Y-1979D01*
X-12031Y-3909D01*
X-11271Y-5743D01*
X-10234Y-7435D01*
X-8945Y-8945D01*
X-7435Y-10234D01*
X-5743Y-11271D01*
X-3909Y-12031D01*
X-1979Y-12494D01*
X0Y-12650D01*
X1979Y-12494D01*
X3909Y-12031D01*
X5743Y-11271D01*
X7435Y-10234D01*
X8945Y-8945D01*
X10234Y-7435D01*
X11271Y-5743D01*
X12031Y-3909D01*
X12494Y-1979D01*
X12650Y0D01*
X12494Y1979D01*
X12031Y3909D01*
X11271Y5743D01*
X10234Y7435D01*
X8945Y8945D01*
X7435Y10234D01*
X5743Y11271D01*
X3909Y12031D01*
X1979Y12494D01*
X0Y12650D01*
D02*
G37*
G36*
X-58200Y96285D02*
X-59180Y96156D01*
X-60093Y95778D01*
X-60877Y95177D01*
X-61478Y94393D01*
X-61856Y93480D01*
X-61985Y92500D01*
X-61856Y91520D01*
X-61478Y90607D01*
X-60877Y89824D01*
X-60093Y89222D01*
X-59180Y88844D01*
X-58200Y88715D01*
X-57220Y88844D01*
X-56307Y89222D01*
X-55524Y89824D01*
X-54922Y90607D01*
X-54544Y91520D01*
X-54415Y92500D01*
X-54544Y93480D01*
X-54922Y94393D01*
X-55524Y95177D01*
X-56307Y95778D01*
X-57220Y96156D01*
X-58200Y96285D01*
D02*
G37*
G36*
X65300Y138490D02*
X64500Y138331D01*
X63822Y137878D01*
X63369Y137200D01*
X63210Y136400D01*
X63369Y135600D01*
X63822Y134922D01*
X63974Y134820D01*
Y91212D01*
X-17449Y9788D01*
X-24409D01*
X-24496Y10063D01*
X-25027Y10896D01*
X-25755Y11564D01*
X-26632Y12020D01*
X-27596Y12234D01*
X-28583Y12191D01*
X-29526Y11894D01*
X-30359Y11363D01*
X-31027Y10634D01*
X-31483Y9758D01*
X-31697Y8793D01*
X-31654Y7806D01*
X-31357Y6863D01*
X-30826Y6030D01*
X-30097Y5362D01*
X-29221Y4906D01*
X-28256Y4692D01*
X-27269Y4735D01*
X-26327Y5033D01*
X-25493Y5564D01*
X-24826Y6292D01*
X-24385Y7138D01*
X-16900D01*
X-16580Y7201D01*
X-16334Y6740D01*
X-20560Y2515D01*
X-21052Y2602D01*
X-21885Y4387D01*
X-28687Y1215D01*
X-25515Y-5587D01*
X-18713Y-2415D01*
X-19676Y-350D01*
X54521Y73847D01*
X54740Y73784D01*
X54982Y73601D01*
X54887Y73122D01*
Y65103D01*
X51930Y62146D01*
X53163Y60913D01*
X37187Y44937D01*
X36687D01*
X35954Y45670D01*
X30730Y40446D01*
X31713Y39463D01*
X13386Y21137D01*
X12887D01*
X12254Y21770D01*
X7030Y16546D01*
X11391Y12185D01*
X16614Y17409D01*
X15982Y18042D01*
Y18542D01*
X34308Y36868D01*
X35091Y36086D01*
X40314Y41309D01*
X39782Y41842D01*
Y42342D01*
X55758Y58318D01*
X56291Y57785D01*
X61515Y63009D01*
X58558Y65966D01*
Y72362D01*
X68238Y82042D01*
X74234D01*
X77191Y79085D01*
X82415Y84309D01*
X81782Y84942D01*
Y85442D01*
X82505Y86165D01*
X112800D01*
X113502Y86304D01*
X114098Y86702D01*
X118598Y91202D01*
X118996Y91798D01*
X119135Y92500D01*
Y96874D01*
X119696Y97304D01*
X120234Y98006D01*
X120573Y98823D01*
X120688Y99700D01*
X120573Y100577D01*
X120234Y101394D01*
X119696Y102096D01*
X118994Y102634D01*
X118177Y102973D01*
X117300Y103088D01*
X116423Y102973D01*
X115606Y102634D01*
X114904Y102096D01*
X114366Y101394D01*
X114027Y100577D01*
X113912Y99700D01*
X114027Y98823D01*
X114366Y98006D01*
X114904Y97304D01*
X115465Y96874D01*
Y93260D01*
X112040Y89835D01*
X81745D01*
X81042Y89696D01*
X80447Y89298D01*
X79186Y88037D01*
X78686D01*
X78054Y88670D01*
X75097Y85713D01*
X67478D01*
X66999Y85618D01*
X66816Y85860D01*
X66753Y86079D01*
X69237Y88563D01*
X69525Y88993D01*
X69626Y89500D01*
Y129120D01*
X69778Y129222D01*
X70231Y129900D01*
X70390Y130700D01*
X70231Y131500D01*
X69778Y132178D01*
X69100Y132631D01*
X68300Y132790D01*
X67500Y132631D01*
X67125Y132381D01*
X66625Y132648D01*
Y134820D01*
X66778Y134922D01*
X67231Y135600D01*
X67390Y136400D01*
X67231Y137200D01*
X66778Y137878D01*
X66100Y138331D01*
X65300Y138490D01*
D02*
G37*
G36*
X237905Y143638D02*
X234687Y143480D01*
X231499Y143007D01*
X228374Y142224D01*
X225340Y141139D01*
X222427Y139761D01*
X219663Y138104D01*
X217074Y136185D01*
X214687Y134021D01*
X212523Y131633D01*
X210603Y129045D01*
X208947Y126281D01*
X207569Y123368D01*
X206484Y120334D01*
X205700Y117208D01*
X205228Y114021D01*
X205070Y110802D01*
X205228Y107584D01*
X205700Y104396D01*
X206484Y101271D01*
X207569Y98237D01*
X208947Y95324D01*
X210603Y92560D01*
X212523Y89972D01*
X214687Y87584D01*
X217074Y85420D01*
X219663Y83500D01*
X222427Y81844D01*
X225340Y80466D01*
X228374Y79381D01*
X231499Y78598D01*
X234687Y78125D01*
X237905Y77967D01*
X241124Y78125D01*
X244311Y78598D01*
X247437Y79381D01*
X250471Y80466D01*
X253384Y81844D01*
X256148Y83500D01*
X258736Y85420D01*
X261123Y87584D01*
X263287Y89972D01*
X265207Y92560D01*
X266864Y95324D01*
X268241Y98237D01*
X269327Y101271D01*
X270110Y104396D01*
X270583Y107584D01*
X270741Y110802D01*
X270583Y114021D01*
X270110Y117208D01*
X269327Y120334D01*
X268241Y123368D01*
X266864Y126281D01*
X265207Y129045D01*
X263287Y131633D01*
X261123Y134021D01*
X258736Y136185D01*
X256148Y138104D01*
X253384Y139761D01*
X250471Y141139D01*
X247437Y142224D01*
X244311Y143007D01*
X241124Y143480D01*
X237905Y143638D01*
D02*
G37*
G36*
X-54447Y86253D02*
X-61953D01*
Y78747D01*
X-54447D01*
Y86253D01*
D02*
G37*
G36*
X69044Y282047D02*
X61653Y280744D01*
X62956Y273353D01*
X64292Y273588D01*
X64675Y273267D01*
Y270645D01*
X62523Y268494D01*
X57621D01*
Y261106D01*
X63787D01*
Y266009D01*
X66937Y269159D01*
X67225Y269589D01*
X67326Y270096D01*
Y274123D01*
X70347Y274656D01*
X69044Y282047D01*
D02*
G37*
G36*
X181236Y269711D02*
X180249Y269668D01*
X179306Y269371D01*
X178473Y268840D01*
X177806Y268111D01*
X177349Y267235D01*
X177135Y266270D01*
X177179Y265283D01*
X177476Y264341D01*
X178007Y263507D01*
X178735Y262840D01*
X179612Y262384D01*
X180576Y262170D01*
X181563Y262213D01*
X182506Y262510D01*
X183339Y263041D01*
X184007Y263769D01*
X184463Y264646D01*
X184677Y265611D01*
X184634Y266598D01*
X184337Y267540D01*
X183806Y268373D01*
X183077Y269041D01*
X182201Y269497D01*
X181236Y269711D01*
D02*
G37*
G36*
X171839Y273131D02*
X170852Y273088D01*
X169910Y272791D01*
X169076Y272260D01*
X168409Y271532D01*
X167952Y270655D01*
X167738Y269690D01*
X167782Y268703D01*
X168079Y267761D01*
X168610Y266928D01*
X169338Y266260D01*
X170215Y265804D01*
X171179Y265590D01*
X172167Y265633D01*
X173109Y265930D01*
X173942Y266461D01*
X174610Y267190D01*
X175066Y268066D01*
X175280Y269031D01*
X175237Y270018D01*
X174940Y270960D01*
X174409Y271794D01*
X173680Y272461D01*
X172804Y272918D01*
X171839Y273131D01*
D02*
G37*
G36*
X19053Y261242D02*
X18089Y261028D01*
X17212Y260572D01*
X16484Y259905D01*
X15953Y259071D01*
X15655Y258129D01*
X15612Y257142D01*
X15826Y256177D01*
X16282Y255300D01*
X16950Y254572D01*
X17783Y254041D01*
X18726Y253744D01*
X19713Y253701D01*
X20678Y253915D01*
X21554Y254371D01*
X22283Y255038D01*
X22814Y255872D01*
X23111Y256814D01*
X23154Y257801D01*
X22940Y258766D01*
X22484Y259643D01*
X21816Y260371D01*
X20983Y260902D01*
X20040Y261199D01*
X19053Y261242D01*
D02*
G37*
G36*
X197457Y263910D02*
X194890Y256857D01*
X201943Y254290D01*
X204510Y261343D01*
X197457Y263910D01*
D02*
G37*
G36*
X190633Y266291D02*
X189646Y266248D01*
X188703Y265951D01*
X187870Y265420D01*
X187203Y264691D01*
X186746Y263815D01*
X186532Y262850D01*
X186575Y261863D01*
X186873Y260921D01*
X187404Y260087D01*
X188132Y259420D01*
X189008Y258963D01*
X189973Y258750D01*
X190960Y258793D01*
X191903Y259090D01*
X192736Y259621D01*
X193404Y260349D01*
X193860Y261226D01*
X194074Y262190D01*
X194031Y263177D01*
X193734Y264120D01*
X193203Y264953D01*
X192474Y265621D01*
X191598Y266077D01*
X190633Y266291D01*
D02*
G37*
G36*
X143648Y283392D02*
X142661Y283349D01*
X141719Y283052D01*
X140885Y282521D01*
X140218Y281792D01*
X139762Y280916D01*
X139548Y279951D01*
X139591Y278964D01*
X139888Y278022D01*
X140419Y277188D01*
X141147Y276521D01*
X142024Y276064D01*
X142989Y275851D01*
X143976Y275894D01*
X144918Y276191D01*
X145752Y276722D01*
X146419Y277450D01*
X146875Y278327D01*
X147089Y279291D01*
X147046Y280278D01*
X146749Y281221D01*
X146218Y282054D01*
X145490Y282722D01*
X144613Y283178D01*
X143648Y283392D01*
D02*
G37*
G36*
X86026Y284944D02*
X85039Y284901D01*
X84096Y284604D01*
X83263Y284072D01*
X82596Y283344D01*
X82139Y282468D01*
X81925Y281503D01*
X81968Y280516D01*
X82266Y279573D01*
X82797Y278740D01*
X83525Y278072D01*
X84402Y277616D01*
X85366Y277402D01*
X86353Y277445D01*
X87296Y277743D01*
X88129Y278273D01*
X88797Y279002D01*
X89253Y279878D01*
X89467Y280843D01*
X89424Y281830D01*
X89127Y282773D01*
X88596Y283606D01*
X87867Y284274D01*
X86991Y284730D01*
X86026Y284944D01*
D02*
G37*
G36*
X134251Y286812D02*
X133264Y286769D01*
X132322Y286472D01*
X131489Y285941D01*
X130821Y285212D01*
X130365Y284336D01*
X130151Y283371D01*
X130194Y282384D01*
X130491Y281442D01*
X131022Y280608D01*
X131751Y279941D01*
X132627Y279485D01*
X133592Y279271D01*
X134579Y279314D01*
X135521Y279611D01*
X136354Y280142D01*
X137022Y280870D01*
X137478Y281747D01*
X137692Y282712D01*
X137649Y283699D01*
X137352Y284641D01*
X136821Y285474D01*
X136093Y286142D01*
X135216Y286598D01*
X134251Y286812D01*
D02*
G37*
G36*
X162442Y276552D02*
X161455Y276508D01*
X160513Y276211D01*
X159679Y275680D01*
X159012Y274952D01*
X158555Y274075D01*
X158342Y273111D01*
X158385Y272124D01*
X158682Y271181D01*
X159213Y270348D01*
X159941Y269680D01*
X160818Y269224D01*
X161782Y269010D01*
X162770Y269053D01*
X163712Y269350D01*
X164545Y269881D01*
X165213Y270610D01*
X165669Y271486D01*
X165883Y272451D01*
X165840Y273438D01*
X165543Y274380D01*
X165012Y275214D01*
X164283Y275881D01*
X163407Y276338D01*
X162442Y276552D01*
D02*
G37*
G36*
X153045Y279972D02*
X152058Y279929D01*
X151116Y279631D01*
X150282Y279101D01*
X149615Y278372D01*
X149159Y277496D01*
X148945Y276531D01*
X148988Y275544D01*
X149285Y274601D01*
X149816Y273768D01*
X150544Y273100D01*
X151421Y272644D01*
X152385Y272430D01*
X153373Y272473D01*
X154315Y272771D01*
X155148Y273301D01*
X155816Y274030D01*
X156272Y274906D01*
X156486Y275871D01*
X156443Y276858D01*
X156146Y277801D01*
X155615Y278634D01*
X154886Y279302D01*
X154010Y279758D01*
X153045Y279972D01*
D02*
G37*
G36*
X76178Y283207D02*
X75191Y283164D01*
X74248Y282867D01*
X73415Y282336D01*
X72747Y281608D01*
X72291Y280731D01*
X72077Y279766D01*
X72120Y278779D01*
X72418Y277837D01*
X72948Y277004D01*
X73677Y276336D01*
X74554Y275880D01*
X75518Y275666D01*
X76505Y275709D01*
X77448Y276006D01*
X78281Y276537D01*
X78949Y277265D01*
X79405Y278142D01*
X79619Y279107D01*
X79576Y280094D01*
X79279Y281036D01*
X78748Y281870D01*
X78019Y282537D01*
X77143Y282993D01*
X76178Y283207D01*
D02*
G37*
G36*
X-39100Y173790D02*
X-39900Y173631D01*
X-40578Y173178D01*
X-41031Y172500D01*
X-41190Y171700D01*
X-41031Y170900D01*
X-40578Y170222D01*
X-40426Y170120D01*
Y164885D01*
X-40925Y164734D01*
X-41022Y164878D01*
X-41700Y165331D01*
X-42500Y165490D01*
X-43300Y165331D01*
X-43978Y164878D01*
X-44431Y164200D01*
X-44590Y163400D01*
X-44431Y162600D01*
X-43978Y161922D01*
X-43826Y161820D01*
Y138549D01*
X-56512Y125863D01*
X-57220Y126156D01*
X-58200Y126285D01*
X-59180Y126156D01*
X-60093Y125778D01*
X-60877Y125177D01*
X-61478Y124393D01*
X-61856Y123480D01*
X-61985Y122500D01*
X-61856Y121520D01*
X-61478Y120607D01*
X-60877Y119824D01*
X-60093Y119222D01*
X-59180Y118844D01*
X-58200Y118715D01*
X-57220Y118844D01*
X-56307Y119222D01*
X-56066Y118808D01*
X-58648Y116226D01*
X-59180Y116156D01*
X-60093Y115778D01*
X-60877Y115176D01*
X-61478Y114393D01*
X-61856Y113480D01*
X-61985Y112500D01*
X-61856Y111520D01*
X-61478Y110607D01*
X-60877Y109824D01*
X-60093Y109222D01*
X-59180Y108844D01*
X-58200Y108715D01*
X-57220Y108844D01*
X-56307Y109222D01*
X-55524Y109824D01*
X-54922Y110607D01*
X-54544Y111520D01*
X-54415Y112500D01*
X-54544Y113480D01*
X-54922Y114393D01*
X-55524Y115176D01*
X-55550Y115576D01*
X-47163Y123963D01*
X-46875Y124393D01*
X-46775Y124900D01*
Y127951D01*
X-38163Y136563D01*
X-37875Y136993D01*
X-37775Y137500D01*
Y170120D01*
X-37622Y170222D01*
X-37169Y170900D01*
X-37010Y171700D01*
X-37169Y172500D01*
X-37622Y173178D01*
X-38300Y173631D01*
X-39100Y173790D01*
D02*
G37*
G36*
X186909Y187215D02*
X181685Y181991D01*
X186046Y177630D01*
X187110Y178694D01*
X187610D01*
X194394Y171910D01*
X193130Y170646D01*
X197491Y166286D01*
X202714Y171509D01*
X198354Y175870D01*
X196990Y174506D01*
X190206Y181290D01*
Y181790D01*
X191270Y182854D01*
X186909Y187215D01*
D02*
G37*
G36*
X-43874Y191926D02*
X-47626Y185426D01*
X-41126Y181674D01*
X-37374Y188174D01*
X-43874Y191926D01*
D02*
G37*
G36*
X164609Y165114D02*
X159386Y159891D01*
X163746Y155530D01*
X164810Y156594D01*
X165310Y156594D01*
X171694Y150210D01*
X170530Y149046D01*
X174891Y144685D01*
X180114Y149909D01*
X175754Y154270D01*
X174290Y152806D01*
X167906Y159190D01*
X167906Y159690D01*
X168970Y160754D01*
X164609Y165114D01*
D02*
G37*
G36*
X137454Y147870D02*
X134664Y145080D01*
X130517D01*
X130197Y145497D01*
X129612Y145946D01*
X128931Y146228D01*
X128200Y146324D01*
X127469Y146228D01*
X126788Y145946D01*
X126203Y145497D01*
X125754Y144912D01*
X125472Y144231D01*
X125376Y143500D01*
X125472Y142769D01*
X125754Y142088D01*
X126203Y141503D01*
X126788Y141054D01*
X127469Y140772D01*
X128200Y140676D01*
X128931Y140772D01*
X129612Y141054D01*
X130197Y141503D01*
X130517Y141920D01*
X132562D01*
X132769Y141420D01*
X116102Y124753D01*
X115704Y124158D01*
X115565Y123455D01*
Y122626D01*
X115004Y122196D01*
X114466Y121494D01*
X114127Y120677D01*
X114012Y119800D01*
X114127Y118923D01*
X114466Y118106D01*
X115004Y117404D01*
X115706Y116866D01*
X116523Y116527D01*
X117400Y116412D01*
X118277Y116527D01*
X119094Y116866D01*
X119796Y117404D01*
X120334Y118106D01*
X120673Y118923D01*
X120788Y119800D01*
X120673Y120677D01*
X120334Y121494D01*
X119796Y122196D01*
X119596Y122349D01*
X119553Y123012D01*
X135708Y139168D01*
X136591Y138286D01*
X141814Y143509D01*
X137454Y147870D01*
D02*
G37*
G36*
X-58200Y156285D02*
X-59180Y156156D01*
X-60093Y155778D01*
X-60877Y155176D01*
X-61478Y154393D01*
X-61856Y153480D01*
X-61985Y152500D01*
X-61856Y151520D01*
X-61478Y150607D01*
X-60877Y149823D01*
X-60093Y149222D01*
X-59180Y148844D01*
X-58200Y148715D01*
X-57220Y148844D01*
X-56307Y149222D01*
X-55524Y149823D01*
X-54922Y150607D01*
X-54544Y151520D01*
X-54415Y152500D01*
X-54544Y153480D01*
X-54922Y154393D01*
X-55524Y155176D01*
X-56307Y155778D01*
X-57220Y156156D01*
X-58200Y156285D01*
D02*
G37*
G36*
X-100Y234250D02*
X-2079Y234094D01*
X-4009Y233631D01*
X-5843Y232871D01*
X-7536Y231834D01*
X-9045Y230545D01*
X-10334Y229035D01*
X-11371Y227343D01*
X-12131Y225509D01*
X-12594Y223579D01*
X-12750Y221600D01*
X-12594Y219621D01*
X-12131Y217691D01*
X-11371Y215857D01*
X-10334Y214164D01*
X-9045Y212655D01*
X-7536Y211366D01*
X-5843Y210329D01*
X-4009Y209569D01*
X-2079Y209106D01*
X-100Y208950D01*
X1879Y209106D01*
X3809Y209569D01*
X5643Y210329D01*
X7335Y211366D01*
X8845Y212655D01*
X10134Y214164D01*
X11171Y215857D01*
X11931Y217691D01*
X12394Y219621D01*
X12550Y221600D01*
X12394Y223579D01*
X11931Y225509D01*
X11171Y227343D01*
X10134Y229035D01*
X8845Y230545D01*
X7335Y231834D01*
X5643Y232871D01*
X3809Y233631D01*
X1879Y234094D01*
X-100Y234250D01*
D02*
G37*
G36*
X221500D02*
X219521Y234094D01*
X217591Y233631D01*
X215757Y232871D01*
X214065Y231834D01*
X212555Y230545D01*
X211266Y229035D01*
X210229Y227343D01*
X209469Y225509D01*
X209006Y223579D01*
X208850Y221600D01*
X209006Y219621D01*
X209469Y217691D01*
X210229Y215857D01*
X211266Y214164D01*
X212555Y212655D01*
X214065Y211366D01*
X215757Y210329D01*
X217591Y209569D01*
X219521Y209106D01*
X221500Y208950D01*
X223479Y209106D01*
X225409Y209569D01*
X227243Y210329D01*
X228936Y211366D01*
X230445Y212655D01*
X231734Y214164D01*
X232771Y215857D01*
X233531Y217691D01*
X233994Y219621D01*
X234150Y221600D01*
X233994Y223579D01*
X233531Y225509D01*
X232771Y227343D01*
X231734Y229035D01*
X230445Y230545D01*
X228936Y231834D01*
X227243Y232871D01*
X225409Y233631D01*
X223479Y234094D01*
X221500Y234250D01*
D02*
G37*
G36*
X10862Y255506D02*
X9897Y255293D01*
X9020Y254836D01*
X8292Y254169D01*
X7761Y253335D01*
X7464Y252393D01*
X7421Y251406D01*
X7635Y250441D01*
X8091Y249565D01*
X8759Y248836D01*
X9592Y248305D01*
X10534Y248008D01*
X11521Y247965D01*
X12486Y248179D01*
X13363Y248635D01*
X14091Y249303D01*
X14622Y250136D01*
X14919Y251079D01*
X14962Y252066D01*
X14748Y253030D01*
X14292Y253907D01*
X13624Y254635D01*
X12791Y255166D01*
X11849Y255463D01*
X10862Y255506D01*
D02*
G37*
G36*
X209509Y210015D02*
X204286Y204791D01*
X208646Y200430D01*
X209710Y201494D01*
X210210D01*
X217244Y194460D01*
X216230Y193446D01*
X220591Y189085D01*
X225815Y194309D01*
X221454Y198670D01*
X219840Y197056D01*
X212806Y204090D01*
Y204590D01*
X213870Y205654D01*
X209509Y210015D01*
D02*
G37*
G36*
X110740Y270803D02*
X107521Y270645D01*
X104334Y270173D01*
X101208Y269390D01*
X98174Y268304D01*
X95261Y266926D01*
X92497Y265270D01*
X89909Y263350D01*
X87521Y261186D01*
X85357Y258799D01*
X83438Y256210D01*
X81781Y253446D01*
X80404Y250533D01*
X79318Y247499D01*
X78535Y244374D01*
X78062Y241186D01*
X77904Y237968D01*
X78062Y234749D01*
X78535Y231562D01*
X79318Y228436D01*
X80404Y225402D01*
X81781Y222489D01*
X83438Y219725D01*
X85357Y217137D01*
X87521Y214750D01*
X89909Y212585D01*
X92497Y210666D01*
X95261Y209009D01*
X98174Y207632D01*
X101208Y206546D01*
X104334Y205763D01*
X107521Y205290D01*
X110740Y205132D01*
X113958Y205290D01*
X117146Y205763D01*
X120272Y206546D01*
X123305Y207632D01*
X126218Y209009D01*
X128982Y210666D01*
X131570Y212585D01*
X133958Y214750D01*
X136122Y217137D01*
X138042Y219725D01*
X139698Y222489D01*
X141076Y225402D01*
X142162Y228436D01*
X142945Y231562D01*
X143417Y234749D01*
X143575Y237968D01*
X143417Y241186D01*
X142945Y244374D01*
X142162Y247499D01*
X141076Y250533D01*
X139698Y253446D01*
X138042Y256210D01*
X136122Y258799D01*
X133958Y261186D01*
X131570Y263350D01*
X128982Y265270D01*
X126218Y266926D01*
X123305Y268304D01*
X120272Y269390D01*
X117146Y270173D01*
X113958Y270645D01*
X110740Y270803D01*
D02*
G37*
G36*
X204554Y214970D02*
X199330Y209746D01*
X200213Y208863D01*
X182986Y191637D01*
X182486D01*
X181954Y192170D01*
X176730Y186946D01*
X177513Y186164D01*
X160786Y169437D01*
X160286D01*
X159654Y170070D01*
X155964Y166380D01*
X152717D01*
X152397Y166797D01*
X151812Y167246D01*
X151131Y167528D01*
X150400Y167624D01*
X149669Y167528D01*
X148988Y167246D01*
X148403Y166797D01*
X147954Y166212D01*
X147672Y165531D01*
X147576Y164800D01*
X147672Y164069D01*
X147954Y163388D01*
X148403Y162803D01*
X148988Y162354D01*
X149669Y162072D01*
X150400Y161976D01*
X151131Y162072D01*
X151812Y162354D01*
X152397Y162803D01*
X152717Y163220D01*
X156057D01*
X158791Y160485D01*
X164014Y165709D01*
X163382Y166342D01*
Y166842D01*
X180108Y183568D01*
X181091Y182586D01*
X186314Y187809D01*
X185582Y188542D01*
Y189042D01*
X202808Y206268D01*
X203691Y205385D01*
X208914Y210609D01*
X204554Y214970D01*
D02*
G37*
%LPD*%
D10*
X82578Y78922D02*
D03*
X77622Y83878D02*
D03*
X70022Y76178D02*
D03*
X74978Y71222D02*
D03*
X75778Y43922D02*
D03*
X70822Y48878D02*
D03*
X61678Y57622D02*
D03*
X56722Y62578D02*
D03*
X40478Y35922D02*
D03*
X35522Y40878D02*
D03*
X54178Y22222D02*
D03*
X49222Y27178D02*
D03*
X31078Y-1578D02*
D03*
X26122Y3378D02*
D03*
X141978Y138122D02*
D03*
X137022Y143078D02*
D03*
X157978Y121922D02*
D03*
X153022Y126878D02*
D03*
X164178Y160322D02*
D03*
X159222Y165278D02*
D03*
X180278Y144522D02*
D03*
X175322Y149478D02*
D03*
X186478Y182422D02*
D03*
X181522Y187378D02*
D03*
X202878Y166122D02*
D03*
X197922Y171078D02*
D03*
X209078Y205222D02*
D03*
X204122Y210178D02*
D03*
X225978Y188922D02*
D03*
X221022Y193878D02*
D03*
X16778Y12022D02*
D03*
X11822Y16978D02*
D03*
D11*
X82604Y210800D02*
D03*
X75596D02*
D03*
X82604Y201200D02*
D03*
X75596D02*
D03*
X127804Y179700D02*
D03*
X120796D02*
D03*
X127804Y162000D02*
D03*
X120796D02*
D03*
X77496Y119300D02*
D03*
X84504D02*
D03*
X77496Y99700D02*
D03*
X84504D02*
D03*
X143504Y119300D02*
D03*
X136496D02*
D03*
X143604Y99600D02*
D03*
X136596D02*
D03*
X77504Y220200D02*
D03*
X70496D02*
D03*
X38204Y208500D02*
D03*
X31196D02*
D03*
X185804Y41000D02*
D03*
X178796D02*
D03*
X145904Y48100D02*
D03*
X138896D02*
D03*
X139096Y35400D02*
D03*
X146104D02*
D03*
X41504Y127900D02*
D03*
X34496D02*
D03*
X41404Y138400D02*
D03*
X34396D02*
D03*
X31104Y182900D02*
D03*
X24096D02*
D03*
X30904Y192700D02*
D03*
X23896D02*
D03*
X112504Y139500D02*
D03*
X105496D02*
D03*
X88996Y169900D02*
D03*
X96004D02*
D03*
X96104Y159200D02*
D03*
X89096D02*
D03*
X89296Y149500D02*
D03*
X96304D02*
D03*
X89196Y139400D02*
D03*
X96204D02*
D03*
X38304Y226800D02*
D03*
X31296D02*
D03*
X82596Y191800D02*
D03*
X89604D02*
D03*
Y182400D02*
D03*
X82596D02*
D03*
X59504Y200200D02*
D03*
X52496D02*
D03*
X60104Y241900D02*
D03*
X53096D02*
D03*
X60704Y264800D02*
D03*
X53696D02*
D03*
D12*
X158745Y164800D02*
X159222Y165278D01*
X150400Y164800D02*
X158745D01*
X136600Y143500D02*
X137022Y143078D01*
X128200Y143500D02*
X136600D01*
D13*
X153022Y126878D02*
Y127078D01*
X141978Y138122D02*
X153022Y127078D01*
X141978Y137922D02*
Y138122D01*
X159222Y165278D02*
X204122Y210178D01*
X117400Y123455D02*
X137022Y143078D01*
X11822Y16978D02*
X56722Y61878D01*
Y62578D01*
X40478Y35922D02*
X49222Y27178D01*
X56722Y62578D02*
Y73122D01*
X67478Y83878D02*
X77622D01*
X56722Y73122D02*
X67478Y83878D01*
X25422Y3378D02*
X26122D01*
X16778Y12022D02*
X25422Y3378D01*
X40478Y35922D02*
Y35922D01*
X70422Y48878D02*
X70822D01*
X61678Y57622D02*
X70422Y48878D01*
X61678Y57622D02*
X62078D01*
X74978Y71222D02*
X82578Y78822D01*
Y78922D01*
X117300Y92500D02*
Y99700D01*
X112800Y88000D02*
X117300Y92500D01*
X81745Y88000D02*
X112800D01*
X77622Y83878D02*
X81745Y88000D01*
X84504Y99700D02*
X94100D01*
X84504Y119300D02*
X93400D01*
X127300Y99700D02*
X136496D01*
X127900Y119300D02*
X136496D01*
X127400Y119800D02*
X127900Y119300D01*
X164178Y160322D02*
X175022Y149478D01*
X186478Y182422D02*
X197822Y171078D01*
X209078Y205222D02*
X220422Y193878D01*
X117400Y119800D02*
Y123455D01*
D14*
X96304Y149500D02*
X102300D01*
X185958Y103600D02*
Y111343D01*
X144100Y153200D02*
X185958Y111343D01*
X131300Y201200D02*
X144100Y188400D01*
Y153200D02*
Y188400D01*
X114000Y153200D02*
X144100D01*
X82604Y201200D02*
X131300D01*
X105496Y139500D02*
Y144696D01*
X114000Y153200D01*
X72580Y980D02*
X96400Y24800D01*
X72580Y-14680D02*
Y980D01*
X50260Y-37000D02*
X72580Y-14680D01*
X96400Y24800D02*
X138896D01*
X172800Y-3849D02*
X180756Y4108D01*
Y16544D01*
X185804Y18227D02*
Y41000D01*
X179443Y41646D02*
Y54700D01*
X178796Y41000D02*
X179443Y41646D01*
X145904Y48100D02*
X154828D01*
X156188Y46740D01*
X177045Y57098D02*
Y66789D01*
X186100D02*
Y90411D01*
Y103457D01*
X139096Y12304D02*
Y35400D01*
Y12304D02*
X155249Y-3849D01*
X172800D01*
X138896Y24800D02*
Y48100D01*
X102400Y25100D02*
Y73700D01*
X129400Y25600D02*
Y73700D01*
X96304Y139500D02*
X105496D01*
X96304D02*
Y149500D01*
D15*
X86200D02*
X89296D01*
X84500Y151200D02*
X86200Y149500D01*
X84500Y151200D02*
Y159423D01*
X82545Y161379D02*
X84500Y159423D01*
X82604Y182408D02*
Y201200D01*
X97300Y177300D02*
X98400Y178400D01*
X89600Y177300D02*
X97300D01*
X87458Y175158D02*
X89600Y177300D01*
X72745Y175158D02*
X87458D01*
X74896Y210100D02*
X75596Y210800D01*
X70500Y210100D02*
X74896D01*
X72700Y201200D02*
X75596D01*
X63690Y192190D02*
X72700Y201200D01*
X75596Y195004D02*
Y201200D01*
X82596Y182400D02*
X82604Y182408D01*
X77323Y177127D02*
X82596Y182400D01*
X72745Y177127D02*
X77323D01*
X82604Y201200D02*
Y210800D01*
X135400Y54200D02*
X163000D01*
X107800Y178871D02*
X119967D01*
X107800Y162729D02*
X120067D01*
X100629Y169900D02*
X107800Y162729D01*
X96004Y169900D02*
X100629D01*
X96004Y166504D02*
Y169900D01*
X94200Y164700D02*
X96004Y166504D01*
X88349Y169253D02*
Y172049D01*
X72745Y169253D02*
X88349D01*
X103829Y174900D02*
X107800Y178871D01*
X91200Y174900D02*
X103829D01*
X88349Y172049D02*
X91200Y174900D01*
X86500Y164700D02*
X94200D01*
X83916Y167284D02*
X86500Y164700D01*
X72745Y167284D02*
X83916D01*
X82980Y165316D02*
X89096Y159200D01*
X72745Y165316D02*
X82980D01*
X75796Y194804D02*
X75900Y194700D01*
X65121Y210879D02*
X67100Y208900D01*
X64274Y210879D02*
X65121D01*
X70500Y202100D02*
Y210100D01*
X61721Y193321D02*
X70500Y202100D01*
X67753Y212847D02*
X70500Y210100D01*
X64274Y212847D02*
X67753D01*
X63690Y182245D02*
Y192190D01*
X61721Y182245D02*
Y193321D01*
X58927Y177127D02*
X72745D01*
X67627Y177600D02*
Y182245D01*
X30904Y198004D02*
X37500Y204600D01*
Y207796D01*
X38204Y208500D01*
X42551Y212847D01*
X48526D01*
X69049Y218753D02*
X70496Y220200D01*
X64274Y218753D02*
X69049D01*
X47942Y175258D02*
X49900Y173300D01*
X47942Y175258D02*
Y182245D01*
X-37500Y195460D02*
X-20160D01*
X9984Y165316D01*
X59753Y182245D02*
Y199951D01*
X36877Y177127D02*
X40855D01*
X31104Y182900D02*
X36877Y177127D01*
X31104Y182900D02*
Y192500D01*
X53096Y233554D02*
Y241900D01*
X51479Y231936D02*
X53096Y233554D01*
X51479Y223674D02*
Y231936D01*
X38304Y221396D02*
Y226800D01*
Y221396D02*
X42916Y216784D01*
X48526D01*
X46600Y221400D02*
Y223900D01*
Y221400D02*
X47279Y220721D01*
X48526D01*
X53847Y182245D02*
Y191253D01*
X46800Y198300D02*
X53847Y191253D01*
X45479Y210879D02*
X48526D01*
X44600Y210000D02*
X45479Y210879D01*
X49126Y207926D02*
X51479D01*
X48400Y207200D02*
X49126Y207926D01*
X-32500Y204120D02*
X-25721D01*
X11116Y167284D01*
X39184Y214816D02*
X48526D01*
X39000Y215000D02*
X39184Y214816D01*
X66000Y270096D02*
Y277700D01*
X60704Y264800D02*
X66000Y270096D01*
X-48100Y128500D02*
X-39100Y137500D01*
Y171700D01*
X-42500Y138000D02*
Y163400D01*
X-58000Y122500D02*
X-42500Y138000D01*
X-58200Y122500D02*
X-58000D01*
X-58200Y112500D02*
Y114800D01*
X-48100Y124900D01*
Y128500D01*
X19200Y147700D02*
X32879Y161379D01*
X40855D01*
X33810Y159410D02*
X40855D01*
X21400Y147000D02*
X33810Y159410D01*
X35042Y157442D02*
X40855D01*
X23900Y146300D02*
X35042Y157442D01*
X36373Y155473D02*
X40855D01*
X26200Y145300D02*
X36373Y155473D01*
X41504Y127900D02*
Y138300D01*
X45973Y142969D02*
Y150355D01*
X41404Y138400D02*
X45973Y142969D01*
X19200Y86200D02*
Y147700D01*
X-4158Y62841D02*
X19200Y86200D01*
X-53283Y62841D02*
X-4158D01*
X21400Y85000D02*
Y147000D01*
X-9821Y53778D02*
X21400Y85000D01*
X-49057Y53778D02*
X-9821D01*
X23900Y83900D02*
Y146300D01*
X-15285Y44715D02*
X23900Y83900D01*
X-44831Y44715D02*
X-15285D01*
X26200Y83100D02*
Y145300D01*
X-21248Y35652D02*
X26200Y83100D01*
X-40605Y35652D02*
X-21248D01*
X49910Y103410D02*
Y150355D01*
X-36379Y26589D02*
X-26911D01*
X49910Y103410D01*
X15300Y181500D02*
Y185800D01*
Y181500D02*
X19600Y177200D01*
X31200D01*
X35210Y173190D01*
X40855D01*
X33979Y171221D02*
X40855D01*
X24100Y162600D02*
X24847Y163347D01*
X31100Y173300D02*
X31500Y173700D01*
X33979Y171221D01*
X61721Y150355D02*
Y155879D01*
X59500Y158100D02*
X61721Y155879D01*
X55600Y158200D02*
Y162000D01*
Y158200D02*
X59753Y154047D01*
Y150355D02*
Y154047D01*
X67627Y150355D02*
X68745D01*
X70900Y148200D01*
X72745Y153355D02*
Y155473D01*
Y153355D02*
X74600Y151500D01*
X72745Y157442D02*
X77658D01*
X72745Y159410D02*
X81190D01*
X77658Y157442D02*
X78700Y156400D01*
Y154300D02*
Y156400D01*
X62500Y173190D02*
X72745D01*
X-23700Y-600D02*
X-21800D01*
X-27926Y8463D02*
X-16900D01*
X65300Y90663D01*
Y136400D01*
X68300Y89500D02*
Y130700D01*
X-21800Y-600D02*
X68300Y89500D01*
X-32152Y17526D02*
X51879Y101557D01*
Y150355D01*
X55816Y94516D02*
Y150355D01*
X52100Y96700D02*
X53947Y98547D01*
Y150355D01*
X57784Y90416D02*
Y150355D01*
X167212Y46740D02*
Y49988D01*
X163000Y54200D02*
X167212Y49988D01*
X81190Y159410D02*
X81300Y159300D01*
Y158300D02*
Y159300D01*
X54100Y92800D02*
X55816Y94516D01*
X53100Y92800D02*
X54100D01*
X65658Y150355D02*
X65776Y150472D01*
Y156676D01*
X67100Y158000D01*
X62400Y159200D02*
Y162000D01*
Y159200D02*
X63690Y157910D01*
Y150355D02*
Y157910D01*
X72745Y161379D02*
X82545D01*
X66021Y171221D02*
X72745D01*
X64700Y169900D02*
X66021Y171221D01*
X58700Y169900D02*
X64700D01*
X55816Y177316D02*
Y182245D01*
X54300Y175800D02*
X55816Y177316D01*
X53100Y175800D02*
X54300D01*
X40855Y177127D02*
X44932D01*
X45973Y176086D01*
Y150355D02*
Y168000D01*
X49800D02*
X58927Y177127D01*
X45973Y168000D02*
X49800D01*
X45973D02*
Y176086D01*
X57784Y182245D02*
Y191816D01*
X57100Y192500D02*
X57784Y191816D01*
X51879Y182245D02*
Y189021D01*
X50900Y190000D02*
X51879Y189021D01*
X49910Y182245D02*
Y187090D01*
X47200Y189800D02*
X49910Y187090D01*
X42100Y189800D02*
X47200D01*
X41255Y182245D02*
X45973D01*
X37700Y185800D02*
X41255Y182245D01*
X37700Y185800D02*
Y198600D01*
X30904Y192700D02*
Y198004D01*
Y192700D02*
X31104Y192500D01*
X3000Y246000D02*
X7100Y241900D01*
X53096D01*
X27308Y201600D02*
X30904Y198004D01*
X-15900Y201600D02*
X27308D01*
X30347Y169253D02*
X40855D01*
X24847Y163347D02*
X40855D01*
X9984Y165316D02*
X40855D01*
X11116Y167284D02*
X40855D01*
X29600Y170000D02*
X30347Y169253D01*
X28100Y170000D02*
X29600D01*
D16*
X156188Y21548D02*
Y39260D01*
Y21548D02*
X160800Y16936D01*
X149964Y39260D02*
X156188D01*
X146104Y35400D02*
X149964Y39260D01*
X170500Y67100D02*
X176734D01*
X186100Y90411D02*
X200489D01*
X258400Y32500D01*
X261200D01*
D17*
X127400Y119800D02*
D03*
X117400D02*
D03*
X94100Y99700D02*
D03*
X104100D02*
D03*
X94000Y119900D02*
D03*
X104000D02*
D03*
X127300Y99700D02*
D03*
X117300D02*
D03*
D18*
X221500Y221600D02*
D03*
X-100D02*
D03*
X0Y0D02*
D03*
X221500D02*
D03*
D19*
X102400Y73700D02*
D03*
X129400D02*
D03*
X256200Y23840D02*
D03*
X41600Y-32000D02*
D03*
X50260Y-37000D02*
D03*
X-53283Y62841D02*
D03*
X-49057Y53778D02*
D03*
X-44831Y44715D02*
D03*
X-40605Y35652D02*
D03*
X-36379Y26589D02*
D03*
X-32152Y17526D02*
D03*
X-27926Y8463D02*
D03*
X-58200Y152500D02*
D03*
Y142500D02*
D03*
Y132500D02*
D03*
Y122500D02*
D03*
Y112500D02*
D03*
Y102500D02*
D03*
Y92500D02*
D03*
X-27500Y212781D02*
D03*
X-32500Y204120D02*
D03*
X-37500Y195460D02*
D03*
X27575Y263207D02*
D03*
X19383Y257471D02*
D03*
X11191Y251736D02*
D03*
X75848Y279436D02*
D03*
X85696Y281173D02*
D03*
X133922Y283041D02*
D03*
X143318Y279621D02*
D03*
X152715Y276201D02*
D03*
X162112Y272781D02*
D03*
X171509Y269361D02*
D03*
X180906Y265940D02*
D03*
X190303Y262520D02*
D03*
D20*
X92400Y73700D02*
D03*
X119400D02*
D03*
D21*
X184121Y16544D02*
D03*
D22*
X172800Y-3849D02*
D03*
X160800Y16936D02*
D03*
D23*
X261200Y32500D02*
D03*
X-42500Y186800D02*
D03*
D24*
X32940Y-27000D02*
D03*
D25*
X-23700Y-600D02*
D03*
D26*
X-58200Y82500D02*
D03*
D27*
X3000Y246000D02*
D03*
D28*
X66000Y277700D02*
D03*
D29*
X199700Y259100D02*
D03*
D30*
X44600Y205600D02*
D03*
D31*
X75100Y188100D02*
D03*
X68700Y190300D02*
D03*
X137600Y164900D02*
D03*
Y171200D02*
D03*
X137700Y177500D02*
D03*
Y183700D02*
D03*
X31200Y93700D02*
D03*
Y100500D02*
D03*
Y107300D02*
D03*
X150400Y164800D02*
D03*
X128200Y143500D02*
D03*
X102300Y149500D02*
D03*
D32*
X98400Y178400D02*
D03*
X135400Y54300D02*
D03*
X75900Y194700D02*
D03*
X67100Y208900D02*
D03*
X49900Y173300D02*
D03*
X15300Y185800D02*
D03*
X37700Y198600D02*
D03*
X46800Y198300D02*
D03*
X46600Y223900D02*
D03*
X44600Y210000D02*
D03*
X48400Y207200D02*
D03*
X39000Y215000D02*
D03*
X50900Y190000D02*
D03*
X57100Y192500D02*
D03*
X42100Y189800D02*
D03*
X-39100Y171700D02*
D03*
X-42500Y163400D02*
D03*
X24100Y162600D02*
D03*
X31100Y173300D02*
D03*
X65300Y136400D02*
D03*
X62400Y162000D02*
D03*
X55600D02*
D03*
X59500Y158100D02*
D03*
X70900Y148200D02*
D03*
X74600Y151500D02*
D03*
X78700Y154300D02*
D03*
X58700Y169900D02*
D03*
X68300Y130700D02*
D03*
X52100Y96700D02*
D03*
X57784Y90416D02*
D03*
X81300Y158300D02*
D03*
X53100Y92800D02*
D03*
X67100Y158000D02*
D03*
X62500Y173500D02*
D03*
X53100Y175800D02*
D03*
X28100Y170000D02*
D03*
D33*
X170500Y67100D02*
D03*
D34*
X-15900Y201600D02*
D03*
D35*
X179443Y54700D02*
D03*
X189758D02*
D03*
X185958Y103600D02*
D03*
X175643D02*
D03*
X51442Y231900D02*
D03*
X61757D02*
D03*
D36*
X107800Y162729D02*
D03*
Y178871D02*
D03*
D37*
X156188Y46740D02*
D03*
Y39260D02*
D03*
X167212D02*
D03*
Y43000D02*
D03*
Y46740D02*
D03*
D38*
X186100Y90411D02*
D03*
D39*
X177045Y66789D02*
D03*
X186100D02*
D03*
X195155D02*
D03*
D40*
X72745Y177127D02*
D03*
Y175158D02*
D03*
Y173190D02*
D03*
Y171221D02*
D03*
Y169253D02*
D03*
Y167284D02*
D03*
Y165316D02*
D03*
Y163347D02*
D03*
Y161379D02*
D03*
Y159410D02*
D03*
Y157442D02*
D03*
Y155473D02*
D03*
X40855D02*
D03*
Y157442D02*
D03*
Y159410D02*
D03*
Y161379D02*
D03*
Y163347D02*
D03*
Y165316D02*
D03*
Y167284D02*
D03*
Y169253D02*
D03*
Y171221D02*
D03*
Y173190D02*
D03*
Y175158D02*
D03*
Y177127D02*
D03*
D41*
X67627Y150355D02*
D03*
X65658D02*
D03*
X63690D02*
D03*
X61721D02*
D03*
X59753D02*
D03*
X57784D02*
D03*
X55816D02*
D03*
X53847D02*
D03*
X51879D02*
D03*
X49910D02*
D03*
X47942D02*
D03*
X45973D02*
D03*
Y182245D02*
D03*
X47942D02*
D03*
X49910D02*
D03*
X51879D02*
D03*
X53847D02*
D03*
X55816D02*
D03*
X57784D02*
D03*
X59753D02*
D03*
X61721D02*
D03*
X63690D02*
D03*
X65658D02*
D03*
X67627D02*
D03*
D42*
X61321Y207926D02*
D03*
X59353D02*
D03*
X57384D02*
D03*
X55416D02*
D03*
X53447D02*
D03*
X51479D02*
D03*
Y223674D02*
D03*
X53447D02*
D03*
X55416D02*
D03*
X57384D02*
D03*
X59353D02*
D03*
X61321D02*
D03*
D43*
X48526Y210879D02*
D03*
Y212847D02*
D03*
Y214816D02*
D03*
Y216784D02*
D03*
Y218753D02*
D03*
Y220721D02*
D03*
X64274D02*
D03*
Y218753D02*
D03*
Y216784D02*
D03*
Y214816D02*
D03*
Y212847D02*
D03*
Y210879D02*
D03*
D44*
X56400Y215800D02*
D03*
D45*
X167212Y39260D02*
X177056D01*
X178796Y41000D01*
M02*
