G04 Layer_Color=2752767*
%FSLAX25Y25*%
%MOIN*%
G70*
G01*
G75*
%ADD15C,0.01000*%
%ADD80C,0.00500*%
%ADD81C,0.01600*%
%ADD82C,0.01400*%
D15*
X34099Y534598D02*
X30100D01*
Y528600D01*
X34099D01*
X30100Y531599D02*
X32099D01*
X82900Y533598D02*
X83900Y534598D01*
X85899D01*
X86899Y533598D01*
Y532599D01*
X85899Y531599D01*
X84899D01*
X85899D01*
X86899Y530599D01*
Y529600D01*
X85899Y528600D01*
X83900D01*
X82900Y529600D01*
X88898Y533598D02*
X89898Y534598D01*
X91897D01*
X92897Y533598D01*
Y532599D01*
X91897Y531599D01*
X92897Y530599D01*
Y529600D01*
X91897Y528600D01*
X89898D01*
X88898Y529600D01*
Y530599D01*
X89898Y531599D01*
X88898Y532599D01*
Y533598D01*
X89898Y531599D02*
X91897D01*
X152481Y528600D02*
X154481D01*
X153481D01*
Y534598D01*
X152481Y533598D01*
X161478Y534598D02*
X157480D01*
Y531599D01*
X159479Y532599D01*
X160479D01*
X161478Y531599D01*
Y529600D01*
X160479Y528600D01*
X158479D01*
X157480Y529600D01*
X163478Y528600D02*
Y532599D01*
X164478D01*
X165477Y531599D01*
Y528600D01*
Y531599D01*
X166477Y532599D01*
X167476Y531599D01*
Y528600D01*
X169476D02*
X171475D01*
X170475D01*
Y532599D01*
X169476D01*
X174474Y528600D02*
X176474D01*
X175474D01*
Y534598D01*
X174474D01*
X187470Y528600D02*
X185471Y530599D01*
Y532599D01*
X187470Y534598D01*
X190469Y533598D02*
X191469Y534598D01*
X193468D01*
X194468Y533598D01*
Y529600D01*
X193468Y528600D01*
X191469D01*
X190469Y529600D01*
Y533598D01*
X196467Y528600D02*
Y529600D01*
X197467D01*
Y528600D01*
X196467D01*
X201466Y533598D02*
X202465Y534598D01*
X204465D01*
X205464Y533598D01*
Y532599D01*
X204465Y531599D01*
X203465D01*
X204465D01*
X205464Y530599D01*
Y529600D01*
X204465Y528600D01*
X202465D01*
X201466Y529600D01*
X207464Y533598D02*
X208463Y534598D01*
X210463D01*
X211462Y533598D01*
Y532599D01*
X210463Y531599D01*
X211462Y530599D01*
Y529600D01*
X210463Y528600D01*
X208463D01*
X207464Y529600D01*
Y530599D01*
X208463Y531599D01*
X207464Y532599D01*
Y533598D01*
X208463Y531599D02*
X210463D01*
X213462Y528600D02*
X215461D01*
X214461D01*
Y534598D01*
X213462Y533598D01*
X218460Y528600D02*
Y532599D01*
X219460D01*
X220459Y531599D01*
Y528600D01*
Y531599D01*
X221459Y532599D01*
X222459Y531599D01*
Y528600D01*
X224458D02*
Y532599D01*
X225458D01*
X226457Y531599D01*
Y528600D01*
Y531599D01*
X227457Y532599D01*
X228457Y531599D01*
Y528600D01*
X230456D02*
X232455Y530599D01*
Y532599D01*
X230456Y534598D01*
X521973Y528600D02*
Y534598D01*
X524972D01*
X525972Y533598D01*
Y531599D01*
X524972Y530599D01*
X521973D01*
X527972Y534598D02*
X531970D01*
X529971D01*
Y528600D01*
X533969Y534598D02*
Y528600D01*
Y531599D01*
X537968D01*
Y534598D01*
Y528600D01*
X572361D02*
Y534598D01*
X575360D01*
X576360Y533598D01*
Y531599D01*
X575360Y530599D01*
X572361D01*
X574360D02*
X576360Y528600D01*
X579359D02*
X581358D01*
X582358Y529600D01*
Y531599D01*
X581358Y532599D01*
X579359D01*
X578359Y531599D01*
Y529600D01*
X579359Y528600D01*
X584357Y532599D02*
Y529600D01*
X585357Y528600D01*
X588356D01*
Y532599D01*
X590355Y528600D02*
Y532599D01*
X593354D01*
X594354Y531599D01*
Y528600D01*
X600352Y534598D02*
Y528600D01*
X597353D01*
X596353Y529600D01*
Y531599D01*
X597353Y532599D01*
X600352D01*
X34099Y522598D02*
X30100D01*
Y519599D01*
X32099D01*
X30100D01*
Y516600D01*
X82900D02*
X84899D01*
X83900D01*
Y522598D01*
X82900Y521598D01*
X91897Y516600D02*
X87898D01*
X91897Y520599D01*
Y521598D01*
X90897Y522598D01*
X88898D01*
X87898Y521598D01*
X156480Y516600D02*
X152481D01*
X156480Y520599D01*
Y521598D01*
X155480Y522598D01*
X153481D01*
X152481Y521598D01*
X158479D02*
X159479Y522598D01*
X161478D01*
X162478Y521598D01*
Y517600D01*
X161478Y516600D01*
X159479D01*
X158479Y517600D01*
Y521598D01*
X164478Y516600D02*
Y520599D01*
X165477D01*
X166477Y519599D01*
Y516600D01*
Y519599D01*
X167476Y520599D01*
X168476Y519599D01*
Y516600D01*
X170475D02*
X172475D01*
X171475D01*
Y520599D01*
X170475D01*
X175474Y516600D02*
X177473D01*
X176474D01*
Y522598D01*
X175474D01*
X188470Y516600D02*
X186470Y518599D01*
Y520599D01*
X188470Y522598D01*
X191469Y521598D02*
X192468Y522598D01*
X194468D01*
X195467Y521598D01*
Y517600D01*
X194468Y516600D01*
X192468D01*
X191469Y517600D01*
Y521598D01*
X197467Y516600D02*
Y517600D01*
X198467D01*
Y516600D01*
X197467D01*
X206464Y522598D02*
X202465D01*
Y519599D01*
X204465Y520599D01*
X205464D01*
X206464Y519599D01*
Y517600D01*
X205464Y516600D01*
X203465D01*
X202465Y517600D01*
X208463Y521598D02*
X209463Y522598D01*
X211462D01*
X212462Y521598D01*
Y517600D01*
X211462Y516600D01*
X209463D01*
X208463Y517600D01*
Y521598D01*
X214461D02*
X215461Y522598D01*
X217460D01*
X218460Y521598D01*
Y520599D01*
X217460Y519599D01*
X218460Y518599D01*
Y517600D01*
X217460Y516600D01*
X215461D01*
X214461Y517600D01*
Y518599D01*
X215461Y519599D01*
X214461Y520599D01*
Y521598D01*
X215461Y519599D02*
X217460D01*
X220459Y516600D02*
Y520599D01*
X221459D01*
X222459Y519599D01*
Y516600D01*
Y519599D01*
X223458Y520599D01*
X224458Y519599D01*
Y516600D01*
X226457D02*
Y520599D01*
X227457D01*
X228457Y519599D01*
Y516600D01*
Y519599D01*
X229456Y520599D01*
X230456Y519599D01*
Y516600D01*
X232455D02*
X234455Y518599D01*
Y520599D01*
X232455Y522598D01*
X521973Y516600D02*
Y522598D01*
X524972D01*
X525972Y521598D01*
Y519599D01*
X524972Y518599D01*
X521973D01*
X527972Y522598D02*
X531970D01*
X529971D01*
Y516600D01*
X533969Y522598D02*
Y516600D01*
Y519599D01*
X537968D01*
Y522598D01*
Y516600D01*
X572361D02*
Y522598D01*
X575360D01*
X576360Y521598D01*
Y519599D01*
X575360Y518599D01*
X572361D01*
X574360D02*
X576360Y516600D01*
X579359D02*
X581358D01*
X582358Y517600D01*
Y519599D01*
X581358Y520599D01*
X579359D01*
X578359Y519599D01*
Y517600D01*
X579359Y516600D01*
X584357Y520599D02*
Y517600D01*
X585357Y516600D01*
X588356D01*
Y520599D01*
X590355Y516600D02*
Y520599D01*
X593354D01*
X594354Y519599D01*
Y516600D01*
X600352Y522598D02*
Y516600D01*
X597353D01*
X596353Y517600D01*
Y519599D01*
X597353Y520599D01*
X600352D01*
X34099Y509598D02*
X33099Y510598D01*
X31100D01*
X30100Y509598D01*
Y505600D01*
X31100Y504600D01*
X33099D01*
X34099Y505600D01*
Y507599D01*
X32099D01*
X82900Y504600D02*
X84899D01*
X83900D01*
Y510598D01*
X82900Y509598D01*
X156480Y504600D02*
X152481D01*
X156480Y508599D01*
Y509598D01*
X155480Y510598D01*
X153481D01*
X152481Y509598D01*
X162478Y510598D02*
X158479D01*
Y507599D01*
X160479Y508599D01*
X161478D01*
X162478Y507599D01*
Y505600D01*
X161478Y504600D01*
X159479D01*
X158479Y505600D01*
X164478Y504600D02*
Y508599D01*
X165477D01*
X166477Y507599D01*
Y504600D01*
Y507599D01*
X167476Y508599D01*
X168476Y507599D01*
Y504600D01*
X170475D02*
X172475D01*
X171475D01*
Y508599D01*
X170475D01*
X175474Y504600D02*
X177473D01*
X176474D01*
Y510598D01*
X175474D01*
X188470Y504600D02*
X186470Y506599D01*
Y508599D01*
X188470Y510598D01*
X191469Y509598D02*
X192468Y510598D01*
X194468D01*
X195467Y509598D01*
Y505600D01*
X194468Y504600D01*
X192468D01*
X191469Y505600D01*
Y509598D01*
X197467Y504600D02*
Y505600D01*
X198467D01*
Y504600D01*
X197467D01*
X206464Y510598D02*
X204465Y509598D01*
X202465Y507599D01*
Y505600D01*
X203465Y504600D01*
X205464D01*
X206464Y505600D01*
Y506599D01*
X205464Y507599D01*
X202465D01*
X208463Y509598D02*
X209463Y510598D01*
X211462D01*
X212462Y509598D01*
Y508599D01*
X211462Y507599D01*
X210463D01*
X211462D01*
X212462Y506599D01*
Y505600D01*
X211462Y504600D01*
X209463D01*
X208463Y505600D01*
X218460Y510598D02*
X214461D01*
Y507599D01*
X216461Y508599D01*
X217460D01*
X218460Y507599D01*
Y505600D01*
X217460Y504600D01*
X215461D01*
X214461Y505600D01*
X220459Y504600D02*
Y508599D01*
X221459D01*
X222459Y507599D01*
Y504600D01*
Y507599D01*
X223458Y508599D01*
X224458Y507599D01*
Y504600D01*
X226457D02*
Y508599D01*
X227457D01*
X228457Y507599D01*
Y504600D01*
Y507599D01*
X229456Y508599D01*
X230456Y507599D01*
Y504600D01*
X232455D02*
X234455Y506599D01*
Y508599D01*
X232455Y510598D01*
X521973Y504600D02*
Y510598D01*
X524972D01*
X525972Y509598D01*
Y507599D01*
X524972Y506599D01*
X521973D01*
X527972Y510598D02*
X531970D01*
X529971D01*
Y504600D01*
X533969Y510598D02*
Y504600D01*
Y507599D01*
X537968D01*
Y510598D01*
Y504600D01*
X572361D02*
Y510598D01*
X575360D01*
X576360Y509598D01*
Y507599D01*
X575360Y506599D01*
X572361D01*
X574360D02*
X576360Y504600D01*
X579359D02*
X581358D01*
X582358Y505600D01*
Y507599D01*
X581358Y508599D01*
X579359D01*
X578359Y507599D01*
Y505600D01*
X579359Y504600D01*
X584357Y508599D02*
Y505600D01*
X585357Y504600D01*
X588356D01*
Y508599D01*
X590355Y504600D02*
Y508599D01*
X593354D01*
X594354Y507599D01*
Y504600D01*
X600352Y510598D02*
Y504600D01*
X597353D01*
X596353Y505600D01*
Y507599D01*
X597353Y508599D01*
X600352D01*
X30100Y492600D02*
Y496599D01*
X32099Y498598D01*
X34099Y496599D01*
Y492600D01*
Y495599D01*
X30100D01*
X82900Y497598D02*
X83900Y498598D01*
X85899D01*
X86899Y497598D01*
Y496599D01*
X85899Y495599D01*
X86899Y494599D01*
Y493600D01*
X85899Y492600D01*
X83900D01*
X82900Y493600D01*
Y494599D01*
X83900Y495599D01*
X82900Y496599D01*
Y497598D01*
X83900Y495599D02*
X85899D01*
X152481Y497598D02*
X153481Y498598D01*
X155480D01*
X156480Y497598D01*
Y496599D01*
X155480Y495599D01*
X154481D01*
X155480D01*
X156480Y494599D01*
Y493600D01*
X155480Y492600D01*
X153481D01*
X152481Y493600D01*
X158479Y492600D02*
X160479D01*
X159479D01*
Y498598D01*
X158479Y497598D01*
X163478Y492600D02*
Y493600D01*
X164478D01*
Y492600D01*
X163478D01*
X171475D02*
Y498598D01*
X168476Y495599D01*
X172475D01*
X174474Y493600D02*
X175474Y492600D01*
X177473D01*
X178473Y493600D01*
Y497598D01*
X177473Y498598D01*
X175474D01*
X174474Y497598D01*
Y496599D01*
X175474Y495599D01*
X178473D01*
X184471Y498598D02*
X182472Y497598D01*
X180472Y495599D01*
Y493600D01*
X181472Y492600D01*
X183471D01*
X184471Y493600D01*
Y494599D01*
X183471Y495599D01*
X180472D01*
X186470Y492600D02*
Y496599D01*
X187470D01*
X188470Y495599D01*
Y492600D01*
Y495599D01*
X189469Y496599D01*
X190469Y495599D01*
Y492600D01*
X192468D02*
X194468D01*
X193468D01*
Y496599D01*
X192468D01*
X197467Y492600D02*
X199466D01*
X198467D01*
Y498598D01*
X197467D01*
X210463Y492600D02*
X208463Y494599D01*
Y496599D01*
X210463Y498598D01*
X213462Y497598D02*
X214461Y498598D01*
X216461D01*
X217460Y497598D01*
Y493600D01*
X216461Y492600D01*
X214461D01*
X213462Y493600D01*
Y497598D01*
X219460Y492600D02*
Y493600D01*
X220459D01*
Y492600D01*
X219460D01*
X224458Y497598D02*
X225458Y498598D01*
X227457D01*
X228457Y497598D01*
Y496599D01*
X227457Y495599D01*
X228457Y494599D01*
Y493600D01*
X227457Y492600D01*
X225458D01*
X224458Y493600D01*
Y494599D01*
X225458Y495599D01*
X224458Y496599D01*
Y497598D01*
X225458Y495599D02*
X227457D01*
X230456Y492600D02*
Y496599D01*
X231456D01*
X232455Y495599D01*
Y492600D01*
Y495599D01*
X233455Y496599D01*
X234455Y495599D01*
Y492600D01*
X236454D02*
Y496599D01*
X237454D01*
X238454Y495599D01*
Y492600D01*
Y495599D01*
X239453Y496599D01*
X240453Y495599D01*
Y492600D01*
X242452D02*
X244452Y494599D01*
Y496599D01*
X242452Y498598D01*
X521973Y492600D02*
Y498598D01*
X524972D01*
X525972Y497598D01*
Y495599D01*
X524972Y494599D01*
X521973D01*
X527972Y498598D02*
X531970D01*
X529971D01*
Y492600D01*
X533969Y498598D02*
Y492600D01*
Y495599D01*
X537968D01*
Y498598D01*
Y492600D01*
X572361D02*
Y498598D01*
X575360D01*
X576360Y497598D01*
Y495599D01*
X575360Y494599D01*
X572361D01*
X574360D02*
X576360Y492600D01*
X579359D02*
X581358D01*
X582358Y493600D01*
Y495599D01*
X581358Y496599D01*
X579359D01*
X578359Y495599D01*
Y493600D01*
X579359Y492600D01*
X584357Y496599D02*
Y493600D01*
X585357Y492600D01*
X588356D01*
Y496599D01*
X590355Y492600D02*
Y496599D01*
X593354D01*
X594354Y495599D01*
Y492600D01*
X600352Y498598D02*
Y492600D01*
X597353D01*
X596353Y493600D01*
Y495599D01*
X597353Y496599D01*
X600352D01*
X34099Y485598D02*
X33099Y486598D01*
X31100D01*
X30100Y485598D01*
Y481600D01*
X31100Y480600D01*
X33099D01*
X34099Y481600D01*
X85899Y480600D02*
Y486598D01*
X82900Y483599D01*
X86899D01*
X91897Y480600D02*
Y486598D01*
X88898Y483599D01*
X92897D01*
X152481Y485598D02*
X153481Y486598D01*
X155480D01*
X156480Y485598D01*
Y484599D01*
X155480Y483599D01*
X154481D01*
X155480D01*
X156480Y482599D01*
Y481600D01*
X155480Y480600D01*
X153481D01*
X152481Y481600D01*
X162478Y486598D02*
X158479D01*
Y483599D01*
X160479Y484599D01*
X161478D01*
X162478Y483599D01*
Y481600D01*
X161478Y480600D01*
X159479D01*
X158479Y481600D01*
X164478Y480600D02*
Y481600D01*
X165477D01*
Y480600D01*
X164478D01*
X172475D02*
Y486598D01*
X169476Y483599D01*
X173475D01*
X175474Y485598D02*
X176474Y486598D01*
X178473D01*
X179473Y485598D01*
Y484599D01*
X178473Y483599D01*
X177473D01*
X178473D01*
X179473Y482599D01*
Y481600D01*
X178473Y480600D01*
X176474D01*
X175474Y481600D01*
X181472Y485598D02*
X182472Y486598D01*
X184471D01*
X185471Y485598D01*
Y484599D01*
X184471Y483599D01*
X183471D01*
X184471D01*
X185471Y482599D01*
Y481600D01*
X184471Y480600D01*
X182472D01*
X181472Y481600D01*
X187470Y480600D02*
Y484599D01*
X188470D01*
X189469Y483599D01*
Y480600D01*
Y483599D01*
X190469Y484599D01*
X191469Y483599D01*
Y480600D01*
X193468D02*
X195467D01*
X194468D01*
Y484599D01*
X193468D01*
X198467Y480600D02*
X200466D01*
X199466D01*
Y486598D01*
X198467D01*
X211462Y480600D02*
X209463Y482599D01*
Y484599D01*
X211462Y486598D01*
X214461Y485598D02*
X215461Y486598D01*
X217460D01*
X218460Y485598D01*
Y481600D01*
X217460Y480600D01*
X215461D01*
X214461Y481600D01*
Y485598D01*
X220459Y480600D02*
Y481600D01*
X221459D01*
Y480600D01*
X220459D01*
X225458Y481600D02*
X226457Y480600D01*
X228457D01*
X229456Y481600D01*
Y485598D01*
X228457Y486598D01*
X226457D01*
X225458Y485598D01*
Y484599D01*
X226457Y483599D01*
X229456D01*
X231456Y480600D02*
Y484599D01*
X232455D01*
X233455Y483599D01*
Y480600D01*
Y483599D01*
X234455Y484599D01*
X235455Y483599D01*
Y480600D01*
X237454D02*
Y484599D01*
X238454D01*
X239453Y483599D01*
Y480600D01*
Y483599D01*
X240453Y484599D01*
X241453Y483599D01*
Y480600D01*
X243452D02*
X245451Y482599D01*
Y484599D01*
X243452Y486598D01*
X521973Y480600D02*
Y486598D01*
X524972D01*
X525972Y485598D01*
Y483599D01*
X524972Y482599D01*
X521973D01*
X527972Y486598D02*
X531970D01*
X529971D01*
Y480600D01*
X533969Y486598D02*
Y480600D01*
Y483599D01*
X537968D01*
Y486598D01*
Y480600D01*
X572361D02*
Y486598D01*
X575360D01*
X576360Y485598D01*
Y483599D01*
X575360Y482599D01*
X572361D01*
X574360D02*
X576360Y480600D01*
X579359D02*
X581358D01*
X582358Y481600D01*
Y483599D01*
X581358Y484599D01*
X579359D01*
X578359Y483599D01*
Y481600D01*
X579359Y480600D01*
X584357Y484599D02*
Y481600D01*
X585357Y480600D01*
X588356D01*
Y484599D01*
X590355Y480600D02*
Y484599D01*
X593354D01*
X594354Y483599D01*
Y480600D01*
X600352Y486598D02*
Y480600D01*
X597353D01*
X596353Y481600D01*
Y483599D01*
X597353Y484599D01*
X600352D01*
X30100Y474598D02*
Y468600D01*
X33099D01*
X34099Y469600D01*
Y470599D01*
X33099Y471599D01*
X30100D01*
X33099D01*
X34099Y472599D01*
Y473598D01*
X33099Y474598D01*
X30100D01*
X85899Y468600D02*
Y474598D01*
X82900Y471599D01*
X86899D01*
X152481Y468600D02*
X154481D01*
X153481D01*
Y474598D01*
X152481Y473598D01*
X157480Y468600D02*
X159479D01*
X158479D01*
Y474598D01*
X157480Y473598D01*
X162478D02*
X163478Y474598D01*
X165477D01*
X166477Y473598D01*
Y472599D01*
X165477Y471599D01*
X166477Y470599D01*
Y469600D01*
X165477Y468600D01*
X163478D01*
X162478Y469600D01*
Y470599D01*
X163478Y471599D01*
X162478Y472599D01*
Y473598D01*
X163478Y471599D02*
X165477D01*
X168476Y468600D02*
Y469600D01*
X169476D01*
Y468600D01*
X168476D01*
X173475D02*
X175474D01*
X174474D01*
Y474598D01*
X173475Y473598D01*
X178473Y468600D02*
X180472D01*
X179473D01*
Y474598D01*
X178473Y473598D01*
X183471Y468600D02*
Y472599D01*
X184471D01*
X185471Y471599D01*
Y468600D01*
Y471599D01*
X186470Y472599D01*
X187470Y471599D01*
Y468600D01*
X189469D02*
X191469D01*
X190469D01*
Y472599D01*
X189469D01*
X194468Y468600D02*
X196467D01*
X195467D01*
Y474598D01*
X194468D01*
X207464Y468600D02*
X205464Y470599D01*
Y472599D01*
X207464Y474598D01*
X210463Y473598D02*
X211462Y474598D01*
X213462D01*
X214461Y473598D01*
Y472599D01*
X213462Y471599D01*
X212462D01*
X213462D01*
X214461Y470599D01*
Y469600D01*
X213462Y468600D01*
X211462D01*
X210463Y469600D01*
X216461Y468600D02*
Y472599D01*
X217460D01*
X218460Y471599D01*
Y468600D01*
Y471599D01*
X219460Y472599D01*
X220459Y471599D01*
Y468600D01*
X222459D02*
Y472599D01*
X223458D01*
X224458Y471599D01*
Y468600D01*
Y471599D01*
X225458Y472599D01*
X226457Y471599D01*
Y468600D01*
X228457D02*
X230456Y470599D01*
Y472599D01*
X228457Y474598D01*
X521973Y468600D02*
Y474598D01*
X524972D01*
X525972Y473598D01*
Y471599D01*
X524972Y470599D01*
X521973D01*
X527972Y474598D02*
X531970D01*
X529971D01*
Y468600D01*
X533969Y474598D02*
Y468600D01*
Y471599D01*
X537968D01*
Y474598D01*
Y468600D01*
X572361D02*
Y474598D01*
X575360D01*
X576360Y473598D01*
Y471599D01*
X575360Y470599D01*
X572361D01*
X574360D02*
X576360Y468600D01*
X579359D02*
X581358D01*
X582358Y469600D01*
Y471599D01*
X581358Y472599D01*
X579359D01*
X578359Y471599D01*
Y469600D01*
X579359Y468600D01*
X584357Y472599D02*
Y469600D01*
X585357Y468600D01*
X588356D01*
Y472599D01*
X590355Y468600D02*
Y472599D01*
X593354D01*
X594354Y471599D01*
Y468600D01*
X600352Y474598D02*
Y468600D01*
X597353D01*
X596353Y469600D01*
Y471599D01*
X597353Y472599D01*
X600352D01*
X30100Y462598D02*
Y456600D01*
X33099D01*
X34099Y457600D01*
Y461598D01*
X33099Y462598D01*
X30100D01*
X82900Y461598D02*
X83900Y462598D01*
X85899D01*
X86899Y461598D01*
Y460599D01*
X85899Y459599D01*
X84899D01*
X85899D01*
X86899Y458599D01*
Y457600D01*
X85899Y456600D01*
X83900D01*
X82900Y457600D01*
X152481Y461598D02*
X153481Y462598D01*
X155480D01*
X156480Y461598D01*
Y460599D01*
X155480Y459599D01*
X154481D01*
X155480D01*
X156480Y458599D01*
Y457600D01*
X155480Y456600D01*
X153481D01*
X152481Y457600D01*
X158479D02*
X159479Y456600D01*
X161478D01*
X162478Y457600D01*
Y461598D01*
X161478Y462598D01*
X159479D01*
X158479Y461598D01*
Y460599D01*
X159479Y459599D01*
X162478D01*
X164478Y456600D02*
Y457600D01*
X165477D01*
Y456600D01*
X164478D01*
X169476Y461598D02*
X170475Y462598D01*
X172475D01*
X173475Y461598D01*
Y460599D01*
X172475Y459599D01*
X171475D01*
X172475D01*
X173475Y458599D01*
Y457600D01*
X172475Y456600D01*
X170475D01*
X169476Y457600D01*
X175474Y462598D02*
X179473D01*
Y461598D01*
X175474Y457600D01*
Y456600D01*
X181472D02*
Y460599D01*
X182472D01*
X183471Y459599D01*
Y456600D01*
Y459599D01*
X184471Y460599D01*
X185471Y459599D01*
Y456600D01*
X187470D02*
X189469D01*
X188470D01*
Y460599D01*
X187470D01*
X192468Y456600D02*
X194468D01*
X193468D01*
Y462598D01*
X192468D01*
X205464Y456600D02*
X203465Y458599D01*
Y460599D01*
X205464Y462598D01*
X208463Y456600D02*
X210463D01*
X209463D01*
Y462598D01*
X208463Y461598D01*
X213462Y456600D02*
Y460599D01*
X214461D01*
X215461Y459599D01*
Y456600D01*
Y459599D01*
X216461Y460599D01*
X217460Y459599D01*
Y456600D01*
X219460D02*
Y460599D01*
X220459D01*
X221459Y459599D01*
Y456600D01*
Y459599D01*
X222459Y460599D01*
X223458Y459599D01*
Y456600D01*
X225458D02*
X227457Y458599D01*
Y460599D01*
X225458Y462598D01*
X286842Y456600D02*
X288841D01*
X287841D01*
Y462598D01*
X286842Y461598D01*
X291840Y456600D02*
X293840D01*
X292840D01*
Y462598D01*
X291840Y461598D01*
X296838D02*
X297838Y462598D01*
X299838D01*
X300837Y461598D01*
Y460599D01*
X299838Y459599D01*
X300837Y458599D01*
Y457600D01*
X299838Y456600D01*
X297838D01*
X296838Y457600D01*
Y458599D01*
X297838Y459599D01*
X296838Y460599D01*
Y461598D01*
X297838Y459599D02*
X299838D01*
X302837Y456600D02*
Y457600D01*
X303836D01*
Y456600D01*
X302837D01*
X307835D02*
X309834D01*
X308835D01*
Y462598D01*
X307835Y461598D01*
X312833Y456600D02*
X314833D01*
X313833D01*
Y462598D01*
X312833Y461598D01*
X317832Y456600D02*
Y460599D01*
X318831D01*
X319831Y459599D01*
Y456600D01*
Y459599D01*
X320831Y460599D01*
X321830Y459599D01*
Y456600D01*
X323830D02*
X325829D01*
X324830D01*
Y460599D01*
X323830D01*
X328828Y456600D02*
X330827D01*
X329828D01*
Y462598D01*
X328828D01*
X341824Y456600D02*
X339825Y458599D01*
Y460599D01*
X341824Y462598D01*
X344823Y461598D02*
X345823Y462598D01*
X347822D01*
X348822Y461598D01*
Y460599D01*
X347822Y459599D01*
X346822D01*
X347822D01*
X348822Y458599D01*
Y457600D01*
X347822Y456600D01*
X345823D01*
X344823Y457600D01*
X350821Y456600D02*
Y460599D01*
X351821D01*
X352820Y459599D01*
Y456600D01*
Y459599D01*
X353820Y460599D01*
X354820Y459599D01*
Y456600D01*
X356819D02*
Y460599D01*
X357819D01*
X358818Y459599D01*
Y456600D01*
Y459599D01*
X359818Y460599D01*
X360818Y459599D01*
Y456600D01*
X362817D02*
X364816Y458599D01*
Y460599D01*
X362817Y462598D01*
X400809D02*
X404808D01*
Y461598D01*
X400809Y457600D01*
Y456600D01*
X406807Y461598D02*
X407806Y462598D01*
X409806D01*
X410806Y461598D01*
Y460599D01*
X409806Y459599D01*
X410806Y458599D01*
Y457600D01*
X409806Y456600D01*
X407806D01*
X406807Y457600D01*
Y458599D01*
X407806Y459599D01*
X406807Y460599D01*
Y461598D01*
X407806Y459599D02*
X409806D01*
X412805Y456600D02*
Y457600D01*
X413805D01*
Y456600D01*
X412805D01*
X417803Y462598D02*
X421802D01*
Y461598D01*
X417803Y457600D01*
Y456600D01*
X426800D02*
Y462598D01*
X423801Y459599D01*
X427800D01*
X429799Y456600D02*
Y460599D01*
X430799D01*
X431799Y459599D01*
Y456600D01*
Y459599D01*
X432798Y460599D01*
X433798Y459599D01*
Y456600D01*
X435797D02*
X437797D01*
X436797D01*
Y460599D01*
X435797D01*
X440796Y456600D02*
X442795D01*
X441795D01*
Y462598D01*
X440796D01*
X453792Y456600D02*
X451792Y458599D01*
Y460599D01*
X453792Y462598D01*
X460789Y456600D02*
X456791D01*
X460789Y460599D01*
Y461598D01*
X459790Y462598D01*
X457790D01*
X456791Y461598D01*
X462789Y456600D02*
Y460599D01*
X463788D01*
X464788Y459599D01*
Y456600D01*
Y459599D01*
X465788Y460599D01*
X466787Y459599D01*
Y456600D01*
X468787D02*
Y460599D01*
X469786D01*
X470786Y459599D01*
Y456600D01*
Y459599D01*
X471786Y460599D01*
X472786Y459599D01*
Y456600D01*
X474785D02*
X476784Y458599D01*
Y460599D01*
X474785Y462598D01*
X521973Y456600D02*
Y462598D01*
X524972D01*
X525972Y461598D01*
Y459599D01*
X524972Y458599D01*
X521973D01*
X527972Y462598D02*
X531970D01*
X529971D01*
Y456600D01*
X533969Y462598D02*
Y456600D01*
Y459599D01*
X537968D01*
Y462598D01*
Y456600D01*
X576360Y461598D02*
X575360Y462598D01*
X573361D01*
X572361Y461598D01*
Y460599D01*
X573361Y459599D01*
X575360D01*
X576360Y458599D01*
Y457600D01*
X575360Y456600D01*
X573361D01*
X572361Y457600D01*
X578359Y456600D02*
X580358D01*
X579359D01*
Y462598D01*
X578359D01*
X584357Y456600D02*
X586356D01*
X587356Y457600D01*
Y459599D01*
X586356Y460599D01*
X584357D01*
X583357Y459599D01*
Y457600D01*
X584357Y456600D01*
X590355Y461598D02*
Y460599D01*
X589356D01*
X591355D01*
X590355D01*
Y457600D01*
X591355Y456600D01*
X82900Y444600D02*
X84899D01*
X83900D01*
Y450598D01*
X82900Y449598D01*
X87898Y444600D02*
X89898D01*
X88898D01*
Y450598D01*
X87898Y449598D01*
X92897D02*
X93896Y450598D01*
X95896D01*
X96895Y449598D01*
Y445600D01*
X95896Y444600D01*
X93896D01*
X92897Y445600D01*
Y449598D01*
X107695Y450598D02*
X111694D01*
X109695D01*
Y444600D01*
X114693D02*
X116693D01*
X117692Y445600D01*
Y447599D01*
X116693Y448599D01*
X114693D01*
X113693Y447599D01*
Y445600D01*
X114693Y444600D01*
X120691Y449598D02*
Y448599D01*
X119692D01*
X121691D01*
X120691D01*
Y445600D01*
X121691Y444600D01*
X125690Y448599D02*
X127689D01*
X128689Y447599D01*
Y444600D01*
X125690D01*
X124690Y445600D01*
X125690Y446599D01*
X128689D01*
X130688Y444600D02*
X132687D01*
X131688D01*
Y450598D01*
X130688D01*
X237438Y434599D02*
X241436D01*
X237438Y436599D02*
X241436D01*
X253432Y437598D02*
X252433Y438598D01*
X250433D01*
X249434Y437598D01*
Y433600D01*
X250433Y432600D01*
X252433D01*
X253432Y433600D01*
X256431Y436599D02*
X258431D01*
X259431Y435599D01*
Y432600D01*
X256431D01*
X255432Y433600D01*
X256431Y434599D01*
X259431D01*
X261430Y432600D02*
X263429D01*
X262429D01*
Y438598D01*
X261430D01*
X270427Y436599D02*
X267428D01*
X266428Y435599D01*
Y433600D01*
X267428Y432600D01*
X270427D01*
X272426Y436599D02*
Y433600D01*
X273426Y432600D01*
X276425D01*
Y436599D01*
X278424Y432600D02*
X280424D01*
X279424D01*
Y438598D01*
X278424D01*
X284422Y436599D02*
X286422D01*
X287421Y435599D01*
Y432600D01*
X284422D01*
X283423Y433600D01*
X284422Y434599D01*
X287421D01*
X290420Y437598D02*
Y436599D01*
X289421D01*
X291420D01*
X290420D01*
Y433600D01*
X291420Y432600D01*
X297418D02*
X295419D01*
X294419Y433600D01*
Y435599D01*
X295419Y436599D01*
X297418D01*
X298418Y435599D01*
Y434599D01*
X294419D01*
X304416Y438598D02*
Y432600D01*
X301417D01*
X300417Y433600D01*
Y435599D01*
X301417Y436599D01*
X304416D01*
X313413Y432600D02*
Y437598D01*
Y435599D01*
X312413D01*
X314413D01*
X313413D01*
Y437598D01*
X314413Y438598D01*
X317412Y436599D02*
Y432600D01*
Y434599D01*
X318411Y435599D01*
X319411Y436599D01*
X320411D01*
X324409Y432600D02*
X326409D01*
X327409Y433600D01*
Y435599D01*
X326409Y436599D01*
X324409D01*
X323410Y435599D01*
Y433600D01*
X324409Y432600D01*
X329408D02*
Y436599D01*
X330408D01*
X331407Y435599D01*
Y432600D01*
Y435599D01*
X332407Y436599D01*
X333406Y435599D01*
Y432600D01*
X342404Y437598D02*
Y436599D01*
X341404D01*
X343403D01*
X342404D01*
Y433600D01*
X343403Y432600D01*
X347402D02*
X349401D01*
X350401Y433600D01*
Y435599D01*
X349401Y436599D01*
X347402D01*
X346402Y435599D01*
Y433600D01*
X347402Y432600D01*
X353400D02*
X355399D01*
X356399Y433600D01*
Y435599D01*
X355399Y436599D01*
X353400D01*
X352400Y435599D01*
Y433600D01*
X353400Y432600D01*
X358398D02*
X360398D01*
X359398D01*
Y438598D01*
X358398D01*
X369395Y432600D02*
X372394D01*
X373394Y433600D01*
X372394Y434599D01*
X370394D01*
X369395Y435599D01*
X370394Y436599D01*
X373394D01*
X376393Y437598D02*
Y436599D01*
X375393D01*
X377392D01*
X376393D01*
Y433600D01*
X377392Y432600D01*
X381391Y436599D02*
X383390D01*
X384390Y435599D01*
Y432600D01*
X381391D01*
X380391Y433600D01*
X381391Y434599D01*
X384390D01*
X386389Y436599D02*
Y432600D01*
Y434599D01*
X387389Y435599D01*
X388389Y436599D01*
X389388D01*
X393387Y437598D02*
Y436599D01*
X392387D01*
X394387D01*
X393387D01*
Y433600D01*
X394387Y432600D01*
X407383Y436599D02*
X404384D01*
X403384Y435599D01*
Y433600D01*
X404384Y432600D01*
X407383D01*
X412381D02*
X410382D01*
X409382Y433600D01*
Y435599D01*
X410382Y436599D01*
X412381D01*
X413381Y435599D01*
Y434599D01*
X409382D01*
X415380Y432600D02*
Y436599D01*
X418379D01*
X419379Y435599D01*
Y432600D01*
X422378Y437598D02*
Y436599D01*
X421378D01*
X423377D01*
X422378D01*
Y433600D01*
X423377Y432600D01*
X426376Y436599D02*
Y432600D01*
Y434599D01*
X427376Y435599D01*
X428376Y436599D01*
X429376D01*
X435373Y432600D02*
X433374D01*
X432374Y433600D01*
Y435599D01*
X433374Y436599D01*
X435373D01*
X436373Y435599D01*
Y434599D01*
X432374D01*
X444371Y430601D02*
Y436599D01*
X447370D01*
X448369Y435599D01*
Y433600D01*
X447370Y432600D01*
X444371D01*
X451368D02*
X453368D01*
X454367Y433600D01*
Y435599D01*
X453368Y436599D01*
X451368D01*
X450369Y435599D01*
Y433600D01*
X451368Y432600D01*
X456367D02*
X459366D01*
X460365Y433600D01*
X459366Y434599D01*
X457366D01*
X456367Y435599D01*
X457366Y436599D01*
X460365D01*
X462365Y432600D02*
X464364D01*
X463365D01*
Y436599D01*
X462365D01*
X468363Y437598D02*
Y436599D01*
X467363D01*
X469362D01*
X468363D01*
Y433600D01*
X469362Y432600D01*
X472362D02*
X474361D01*
X473361D01*
Y436599D01*
X472362D01*
X478360Y432600D02*
X480359D01*
X481359Y433600D01*
Y435599D01*
X480359Y436599D01*
X478360D01*
X477360Y435599D01*
Y433600D01*
X478360Y432600D01*
X483358D02*
Y436599D01*
X486357D01*
X487357Y435599D01*
Y432600D01*
X496354Y437598D02*
Y436599D01*
X495354D01*
X497354D01*
X496354D01*
Y433600D01*
X497354Y432600D01*
X501352D02*
X503351D01*
X504351Y433600D01*
Y435599D01*
X503351Y436599D01*
X501352D01*
X500352Y435599D01*
Y433600D01*
X501352Y432600D01*
X513348Y437598D02*
Y436599D01*
X512349D01*
X514348D01*
X513348D01*
Y433600D01*
X514348Y432600D01*
X518347D02*
X520346D01*
X521346Y433600D01*
Y435599D01*
X520346Y436599D01*
X518347D01*
X517347Y435599D01*
Y433600D01*
X518347Y432600D01*
X524345D02*
X526344D01*
X527344Y433600D01*
Y435599D01*
X526344Y436599D01*
X524345D01*
X523345Y435599D01*
Y433600D01*
X524345Y432600D01*
X529343D02*
X531343D01*
X530343D01*
Y438598D01*
X529343D01*
X543339Y432600D02*
X541339D01*
X540340Y433600D01*
Y435599D01*
X541339Y436599D01*
X543339D01*
X544338Y435599D01*
Y434599D01*
X540340D01*
X546338Y432600D02*
Y436599D01*
X549337D01*
X550336Y435599D01*
Y432600D01*
X556334Y438598D02*
Y432600D01*
X553335D01*
X552336Y433600D01*
Y435599D01*
X553335Y436599D01*
X556334D01*
X568330D02*
X565332D01*
X564332Y435599D01*
Y433600D01*
X565332Y432600D01*
X568330D01*
X573329D02*
X571329D01*
X570330Y433600D01*
Y435599D01*
X571329Y436599D01*
X573329D01*
X574329Y435599D01*
Y434599D01*
X570330D01*
X576328Y432600D02*
Y436599D01*
X579327D01*
X580327Y435599D01*
Y432600D01*
X583326Y437598D02*
Y436599D01*
X582326D01*
X584325D01*
X583326D01*
Y433600D01*
X584325Y432600D01*
X587324Y436599D02*
Y432600D01*
Y434599D01*
X588324Y435599D01*
X589324Y436599D01*
X590323D01*
X596321Y432600D02*
X594322D01*
X593322Y433600D01*
Y435599D01*
X594322Y436599D01*
X596321D01*
X597321Y435599D01*
Y434599D01*
X593322D01*
X605318Y430601D02*
Y436599D01*
X608318D01*
X609317Y435599D01*
Y433600D01*
X608318Y432600D01*
X605318D01*
X612316D02*
X614316D01*
X615315Y433600D01*
Y435599D01*
X614316Y436599D01*
X612316D01*
X611317Y435599D01*
Y433600D01*
X612316Y432600D01*
X617315D02*
X620314D01*
X621313Y433600D01*
X620314Y434599D01*
X618314D01*
X617315Y435599D01*
X618314Y436599D01*
X621313D01*
X623313Y432600D02*
X625312D01*
X624312D01*
Y436599D01*
X623313D01*
X629311Y437598D02*
Y436599D01*
X628311D01*
X630310D01*
X629311D01*
Y433600D01*
X630310Y432600D01*
X633310D02*
X635309D01*
X634309D01*
Y436599D01*
X633310D01*
X639307Y432600D02*
X641307D01*
X642307Y433600D01*
Y435599D01*
X641307Y436599D01*
X639307D01*
X638308Y435599D01*
Y433600D01*
X639307Y432600D01*
X644306D02*
Y436599D01*
X647305D01*
X648305Y435599D01*
Y432600D01*
X650304D02*
Y433600D01*
X651304D01*
Y432600D01*
X650304D01*
X237438Y422599D02*
X241436D01*
X237438Y424599D02*
X241436D01*
X249434Y420600D02*
Y426598D01*
X252433D01*
X253432Y425598D01*
Y423599D01*
X252433Y422599D01*
X249434D01*
X251433D02*
X253432Y420600D01*
X256431D02*
X258431D01*
X259431Y421600D01*
Y423599D01*
X258431Y424599D01*
X256431D01*
X255432Y423599D01*
Y421600D01*
X256431Y420600D01*
X261430Y424599D02*
Y421600D01*
X262429Y420600D01*
X265428D01*
Y424599D01*
X268428Y425598D02*
Y424599D01*
X267428D01*
X269427D01*
X268428D01*
Y421600D01*
X269427Y420600D01*
X278424D02*
Y426598D01*
X281423D01*
X282423Y425598D01*
Y423599D01*
X281423Y422599D01*
X278424D01*
X285422Y424599D02*
X287421D01*
X288421Y423599D01*
Y420600D01*
X285422D01*
X284422Y421600D01*
X285422Y422599D01*
X288421D01*
X291420Y425598D02*
Y424599D01*
X290420D01*
X292420D01*
X291420D01*
Y421600D01*
X292420Y420600D01*
X295419Y426598D02*
Y420600D01*
Y423599D01*
X296418Y424599D01*
X298418D01*
X299417Y423599D01*
Y420600D01*
X307415Y426598D02*
Y420600D01*
X311414D01*
X316412D02*
X314413D01*
X313413Y421600D01*
Y423599D01*
X314413Y424599D01*
X316412D01*
X317412Y423599D01*
Y422599D01*
X313413D01*
X319411Y420600D02*
Y424599D01*
X322410D01*
X323410Y423599D01*
Y420600D01*
X327409Y418601D02*
X328408D01*
X329408Y419600D01*
Y424599D01*
X326409D01*
X325409Y423599D01*
Y421600D01*
X326409Y420600D01*
X329408D01*
X332407Y425598D02*
Y424599D01*
X331407D01*
X333406D01*
X332407D01*
Y421600D01*
X333406Y420600D01*
X336405Y426598D02*
Y420600D01*
Y423599D01*
X337405Y424599D01*
X339405D01*
X340404Y423599D01*
Y420600D01*
X348402Y423599D02*
X352400D01*
X350401Y425598D02*
Y421600D01*
X360398Y426598D02*
X364397D01*
X362397D01*
Y420600D01*
X367395D02*
X369395D01*
X370395Y421600D01*
Y423599D01*
X369395Y424599D01*
X367395D01*
X366396Y423599D01*
Y421600D01*
X367395Y420600D01*
X373394D02*
X375393D01*
X376393Y421600D01*
Y423599D01*
X375393Y424599D01*
X373394D01*
X372394Y423599D01*
Y421600D01*
X373394Y420600D01*
X378392D02*
X380391D01*
X379392D01*
Y426598D01*
X378392D01*
X393387Y425598D02*
X392387Y426598D01*
X390388D01*
X389388Y425598D01*
Y424599D01*
X390388Y423599D01*
X392387D01*
X393387Y422599D01*
Y421600D01*
X392387Y420600D01*
X390388D01*
X389388Y421600D01*
X395387Y420600D02*
X397386D01*
X396386D01*
Y424599D01*
X395387D01*
X400385D02*
X404384D01*
X400385Y420600D01*
X404384D01*
X409382D02*
X407383D01*
X406383Y421600D01*
Y423599D01*
X407383Y424599D01*
X409382D01*
X410382Y423599D01*
Y422599D01*
X406383D01*
X418379D02*
X422378D01*
X418379Y424599D02*
X422378D01*
X434374Y425598D02*
X433374Y426598D01*
X431375D01*
X430375Y425598D01*
Y424599D01*
X431375Y423599D01*
X433374D01*
X434374Y422599D01*
Y421600D01*
X433374Y420600D01*
X431375D01*
X430375Y421600D01*
X436373Y420600D02*
X438373D01*
X437373D01*
Y426598D01*
X436373D01*
X442371Y420600D02*
X444371D01*
X445370Y421600D01*
Y423599D01*
X444371Y424599D01*
X442371D01*
X441372Y423599D01*
Y421600D01*
X442371Y420600D01*
X448369Y425598D02*
Y424599D01*
X447370D01*
X449369D01*
X448369D01*
Y421600D01*
X449369Y420600D01*
X458366D02*
X460365D01*
X459366D01*
Y426598D01*
X458366D01*
X466363Y420600D02*
X464364D01*
X463365Y421600D01*
Y423599D01*
X464364Y424599D01*
X466363D01*
X467363Y423599D01*
Y422599D01*
X463365D01*
X469362Y420600D02*
Y424599D01*
X472362D01*
X473361Y423599D01*
Y420600D01*
X477360Y418601D02*
X478360D01*
X479359Y419600D01*
Y424599D01*
X476360D01*
X475361Y423599D01*
Y421600D01*
X476360Y420600D01*
X479359D01*
X482358Y425598D02*
Y424599D01*
X481359D01*
X483358D01*
X482358D01*
Y421600D01*
X483358Y420600D01*
X486357Y426598D02*
Y420600D01*
Y423599D01*
X487357Y424599D01*
X489356D01*
X490356Y423599D01*
Y420600D01*
X499353Y424599D02*
X501352D01*
X502352Y423599D01*
Y420600D01*
X499353D01*
X498353Y421600D01*
X499353Y422599D01*
X502352D01*
X504351Y420600D02*
X507350D01*
X508350Y421600D01*
X507350Y422599D01*
X505351D01*
X504351Y423599D01*
X505351Y424599D01*
X508350D01*
X520346Y426598D02*
Y420600D01*
X517347D01*
X516347Y421600D01*
Y423599D01*
X517347Y424599D01*
X520346D01*
X525344Y420600D02*
X523345D01*
X522345Y421600D01*
Y423599D01*
X523345Y424599D01*
X525344D01*
X526344Y423599D01*
Y422599D01*
X522345D01*
X529343Y420600D02*
Y425598D01*
Y423599D01*
X528343D01*
X530343D01*
X529343D01*
Y425598D01*
X530343Y426598D01*
X533342Y420600D02*
X535341D01*
X534341D01*
Y424599D01*
X533342D01*
X538340Y420600D02*
Y424599D01*
X541339D01*
X542339Y423599D01*
Y420600D01*
X547337D02*
X545338D01*
X544338Y421600D01*
Y423599D01*
X545338Y424599D01*
X547337D01*
X548337Y423599D01*
Y422599D01*
X544338D01*
X554335Y426598D02*
Y420600D01*
X551336D01*
X550336Y421600D01*
Y423599D01*
X551336Y424599D01*
X554335D01*
X562332Y420600D02*
X564332D01*
X563332D01*
Y424599D01*
X562332D01*
X567331Y420600D02*
Y424599D01*
X570330D01*
X571329Y423599D01*
Y420600D01*
X580327Y425598D02*
Y424599D01*
X579327D01*
X581326D01*
X580327D01*
Y421600D01*
X581326Y420600D01*
X584325Y426598D02*
Y420600D01*
Y423599D01*
X585325Y424599D01*
X587324D01*
X588324Y423599D01*
Y420600D01*
X593322D02*
X591323D01*
X590323Y421600D01*
Y423599D01*
X591323Y424599D01*
X593322D01*
X594322Y423599D01*
Y422599D01*
X590323D01*
X602319Y420600D02*
Y426598D01*
X605318D01*
X606318Y425598D01*
Y423599D01*
X605318Y422599D01*
X602319D01*
X612316Y425598D02*
X611317Y426598D01*
X609317D01*
X608318Y425598D01*
Y421600D01*
X609317Y420600D01*
X611317D01*
X612316Y421600D01*
X614316Y426598D02*
Y420600D01*
X617315D01*
X618314Y421600D01*
Y422599D01*
X617315Y423599D01*
X614316D01*
X617315D01*
X618314Y424599D01*
Y425598D01*
X617315Y426598D01*
X614316D01*
X626312Y420600D02*
X628311D01*
X627311D01*
Y426598D01*
X626312D01*
X632310Y424599D02*
X634309D01*
X635309Y423599D01*
Y420600D01*
X632310D01*
X631310Y421600D01*
X632310Y422599D01*
X635309D01*
X637308Y424599D02*
Y421600D01*
X638308Y420600D01*
X641307D01*
Y419600D01*
X640307Y418601D01*
X639307D01*
X641307Y420600D02*
Y424599D01*
X644306Y420600D02*
X646305D01*
X647305Y421600D01*
Y423599D01*
X646305Y424599D01*
X644306D01*
X643306Y423599D01*
Y421600D01*
X644306Y420600D01*
X649304Y424599D02*
Y421600D01*
X650304Y420600D01*
X653303D01*
Y424599D01*
X656302Y425598D02*
Y424599D01*
X655302D01*
X657302D01*
X656302D01*
Y421600D01*
X657302Y420600D01*
D80*
X127400Y119800D02*
Y123132D01*
X129066Y124798D01*
X130732Y123132D01*
Y119800D01*
Y122299D01*
X127400D01*
X117400Y119800D02*
Y123132D01*
X119066Y124798D01*
X120732Y123132D01*
Y119800D01*
Y122299D01*
X117400D01*
X94100Y99700D02*
Y103032D01*
X95766Y104698D01*
X97432Y103032D01*
Y99700D01*
Y102199D01*
X94100D01*
X104100Y99700D02*
Y103032D01*
X105766Y104698D01*
X107432Y103032D01*
Y99700D01*
Y102199D01*
X104100D01*
X94000Y119900D02*
Y123232D01*
X95666Y124898D01*
X97332Y123232D01*
Y119900D01*
Y122399D01*
X94000D01*
X104000Y119900D02*
Y123232D01*
X105666Y124898D01*
X107332Y123232D01*
Y119900D01*
Y122399D01*
X104000D01*
X127300Y99700D02*
Y103032D01*
X128966Y104698D01*
X130632Y103032D01*
Y99700D01*
Y102199D01*
X127300D01*
X117300Y99700D02*
Y103032D01*
X118966Y104698D01*
X120632Y103032D01*
Y99700D01*
Y102199D01*
X117300D01*
X221500Y226598D02*
Y221600D01*
X223999D01*
X224832Y222433D01*
Y223266D01*
X223999Y224099D01*
X221500D01*
X223999D01*
X224832Y224932D01*
Y225765D01*
X223999Y226598D01*
X221500D01*
X-100D02*
Y221600D01*
X2399D01*
X3232Y222433D01*
Y223266D01*
X2399Y224099D01*
X-100D01*
X2399D01*
X3232Y224932D01*
Y225765D01*
X2399Y226598D01*
X-100D01*
X0Y4998D02*
Y0D01*
X2499D01*
X3332Y833D01*
Y1666D01*
X2499Y2499D01*
X0D01*
X2499D01*
X3332Y3332D01*
Y4165D01*
X2499Y4998D01*
X0D01*
X221500D02*
Y0D01*
X223999D01*
X224832Y833D01*
Y1666D01*
X223999Y2499D01*
X221500D01*
X223999D01*
X224832Y3332D01*
Y4165D01*
X223999Y4998D01*
X221500D01*
X105732Y77865D02*
X104899Y78698D01*
X103233D01*
X102400Y77865D01*
Y74533D01*
X103233Y73700D01*
X104899D01*
X105732Y74533D01*
X95732Y77865D02*
X94899Y78698D01*
X93233D01*
X92400Y77865D01*
Y74533D01*
X93233Y73700D01*
X94899D01*
X95732Y74533D01*
X132732Y77865D02*
X131899Y78698D01*
X130233D01*
X129400Y77865D01*
Y74533D01*
X130233Y73700D01*
X131899D01*
X132732Y74533D01*
X122732Y77865D02*
X121899Y78698D01*
X120233D01*
X119400Y77865D01*
Y74533D01*
X120233Y73700D01*
X121899D01*
X122732Y74533D01*
X184121Y21542D02*
Y16544D01*
X186620D01*
X187453Y17377D01*
Y20709D01*
X186620Y21542D01*
X184121D01*
X172800Y1150D02*
Y-3849D01*
X175299D01*
X176132Y-3016D01*
Y317D01*
X175299Y1150D01*
X172800D01*
X160800Y21934D02*
Y16936D01*
X163299D01*
X164132Y17769D01*
Y21101D01*
X163299Y21934D01*
X160800D01*
X259532Y28005D02*
X258699Y28838D01*
X257033D01*
X256200Y28005D01*
Y24673D01*
X257033Y23840D01*
X258699D01*
X259532Y24673D01*
X264532Y36665D02*
X263699Y37498D01*
X262033D01*
X261200Y36665D01*
Y33333D01*
X262033Y32500D01*
X263699D01*
X264532Y33333D01*
X36272Y-22835D02*
X35439Y-22002D01*
X33773D01*
X32940Y-22835D01*
Y-26167D01*
X33773Y-27000D01*
X35439D01*
X36272Y-26167D01*
X44932Y-27835D02*
X44099Y-27002D01*
X42433D01*
X41600Y-27835D01*
Y-31167D01*
X42433Y-32000D01*
X44099D01*
X44932Y-31167D01*
X53592Y-32835D02*
X52759Y-32002D01*
X51093D01*
X50260Y-32835D01*
Y-36167D01*
X51093Y-37000D01*
X52759D01*
X53592Y-36167D01*
X-49951Y67007D02*
X-50784Y67840D01*
X-52450D01*
X-53283Y67007D01*
Y63675D01*
X-52450Y62841D01*
X-50784D01*
X-49951Y63675D01*
X-45725Y57944D02*
X-46558Y58777D01*
X-48224D01*
X-49057Y57944D01*
Y54611D01*
X-48224Y53778D01*
X-46558D01*
X-45725Y54611D01*
X-41499Y48881D02*
X-42332Y49714D01*
X-43998D01*
X-44831Y48881D01*
Y45548D01*
X-43998Y44715D01*
X-42332D01*
X-41499Y45548D01*
X-37273Y39818D02*
X-38105Y40651D01*
X-39772D01*
X-40605Y39818D01*
Y36485D01*
X-39772Y35652D01*
X-38105D01*
X-37273Y36485D01*
X-33046Y30755D02*
X-33879Y31588D01*
X-35546D01*
X-36379Y30755D01*
Y27422D01*
X-35546Y26589D01*
X-33879D01*
X-33046Y27422D01*
X-28820Y21691D02*
X-29653Y22524D01*
X-31319D01*
X-32152Y21691D01*
Y18359D01*
X-31319Y17526D01*
X-29653D01*
X-28820Y18359D01*
X-24594Y12628D02*
X-25427Y13462D01*
X-27093D01*
X-27926Y12628D01*
Y9296D01*
X-27093Y8463D01*
X-25427D01*
X-24594Y9296D01*
X-20368Y3565D02*
X-21201Y4398D01*
X-22867D01*
X-23700Y3565D01*
Y233D01*
X-22867Y-600D01*
X-21201D01*
X-20368Y233D01*
X-54868Y156665D02*
X-55701Y157498D01*
X-57367D01*
X-58200Y156665D01*
Y153333D01*
X-57367Y152500D01*
X-55701D01*
X-54868Y153333D01*
Y146665D02*
X-55701Y147498D01*
X-57367D01*
X-58200Y146665D01*
Y143333D01*
X-57367Y142500D01*
X-55701D01*
X-54868Y143333D01*
Y136665D02*
X-55701Y137498D01*
X-57367D01*
X-58200Y136665D01*
Y133333D01*
X-57367Y132500D01*
X-55701D01*
X-54868Y133333D01*
Y126665D02*
X-55701Y127498D01*
X-57367D01*
X-58200Y126665D01*
Y123333D01*
X-57367Y122500D01*
X-55701D01*
X-54868Y123333D01*
Y116665D02*
X-55701Y117498D01*
X-57367D01*
X-58200Y116665D01*
Y113333D01*
X-57367Y112500D01*
X-55701D01*
X-54868Y113333D01*
Y106665D02*
X-55701Y107498D01*
X-57367D01*
X-58200Y106665D01*
Y103333D01*
X-57367Y102500D01*
X-55701D01*
X-54868Y103333D01*
Y96665D02*
X-55701Y97498D01*
X-57367D01*
X-58200Y96665D01*
Y93333D01*
X-57367Y92500D01*
X-55701D01*
X-54868Y93333D01*
Y86665D02*
X-55701Y87498D01*
X-57367D01*
X-58200Y86665D01*
Y83333D01*
X-57367Y82500D01*
X-55701D01*
X-54868Y83333D01*
X-24168Y216946D02*
X-25001Y217779D01*
X-26667D01*
X-27500Y216946D01*
Y213614D01*
X-26667Y212781D01*
X-25001D01*
X-24168Y213614D01*
X-29168Y208286D02*
X-30001Y209119D01*
X-31667D01*
X-32500Y208286D01*
Y204954D01*
X-31667Y204120D01*
X-30001D01*
X-29168Y204954D01*
X-34168Y199626D02*
X-35001Y200459D01*
X-36667D01*
X-37500Y199626D01*
Y196293D01*
X-36667Y195460D01*
X-35001D01*
X-34168Y196293D01*
X-39168Y190965D02*
X-40001Y191798D01*
X-41667D01*
X-42500Y190965D01*
Y187633D01*
X-41667Y186800D01*
X-40001D01*
X-39168Y187633D01*
X30907Y267373D02*
X30074Y268206D01*
X28408D01*
X27575Y267373D01*
Y264040D01*
X28408Y263207D01*
X30074D01*
X30907Y264040D01*
X22715Y261637D02*
X21882Y262470D01*
X20216D01*
X19383Y261637D01*
Y258305D01*
X20216Y257471D01*
X21882D01*
X22715Y258305D01*
X14524Y255901D02*
X13691Y256734D01*
X12025D01*
X11191Y255901D01*
Y252569D01*
X12025Y251736D01*
X13691D01*
X14524Y252569D01*
X6332Y250165D02*
X5499Y250998D01*
X3833D01*
X3000Y250165D01*
Y246833D01*
X3833Y246000D01*
X5499D01*
X6332Y246833D01*
X69332Y281865D02*
X68499Y282698D01*
X66833D01*
X66000Y281865D01*
Y278533D01*
X66833Y277700D01*
X68499D01*
X69332Y278533D01*
X79180Y283602D02*
X78347Y284435D01*
X76681D01*
X75848Y283602D01*
Y280270D01*
X76681Y279436D01*
X78347D01*
X79180Y280270D01*
X89028Y285338D02*
X88195Y286171D01*
X86529D01*
X85696Y285338D01*
Y282006D01*
X86529Y281173D01*
X88195D01*
X89028Y282006D01*
X137254Y287207D02*
X136421Y288040D01*
X134755D01*
X133922Y287207D01*
Y283875D01*
X134755Y283041D01*
X136421D01*
X137254Y283875D01*
X146651Y283787D02*
X145818Y284620D01*
X144151D01*
X143318Y283787D01*
Y280454D01*
X144151Y279621D01*
X145818D01*
X146651Y280454D01*
X156048Y280366D02*
X155215Y281199D01*
X153548D01*
X152715Y280366D01*
Y277034D01*
X153548Y276201D01*
X155215D01*
X156048Y277034D01*
X165445Y276946D02*
X164611Y277779D01*
X162945D01*
X162112Y276946D01*
Y273614D01*
X162945Y272781D01*
X164611D01*
X165445Y273614D01*
X174841Y273526D02*
X174008Y274359D01*
X172342D01*
X171509Y273526D01*
Y270194D01*
X172342Y269361D01*
X174008D01*
X174841Y270194D01*
X184238Y270106D02*
X183405Y270939D01*
X181739D01*
X180906Y270106D01*
Y266774D01*
X181739Y265940D01*
X183405D01*
X184238Y266774D01*
X193635Y266686D02*
X192802Y267519D01*
X191136D01*
X190303Y266686D01*
Y263353D01*
X191136Y262520D01*
X192802D01*
X193635Y263353D01*
X203032Y263265D02*
X202199Y264098D01*
X200533D01*
X199700Y263265D01*
Y259933D01*
X200533Y259100D01*
X202199D01*
X203032Y259933D01*
X47932Y210598D02*
X44600D01*
Y205600D01*
X47932D01*
X44600Y208099D02*
X46266D01*
X78432Y193098D02*
X75100D01*
Y190599D01*
X76766D01*
X75100D01*
Y188100D01*
X72032Y195298D02*
X68700D01*
Y192799D01*
X70366D01*
X68700D01*
Y190300D01*
X140932Y169898D02*
X137600D01*
Y167399D01*
X139266D01*
X137600D01*
Y164900D01*
X140932Y176198D02*
X137600D01*
Y173699D01*
X139266D01*
X137600D01*
Y171200D01*
X141032Y182498D02*
X137700D01*
Y179999D01*
X139366D01*
X137700D01*
Y177500D01*
X141032Y188698D02*
X137700D01*
Y186199D01*
X139366D01*
X137700D01*
Y183700D01*
X34532Y98698D02*
X31200D01*
Y96199D01*
X32866D01*
X31200D01*
Y93700D01*
X34532Y105498D02*
X31200D01*
Y102999D01*
X32866D01*
X31200D01*
Y100500D01*
X34532Y112298D02*
X31200D01*
Y109799D01*
X32866D01*
X31200D01*
Y107300D01*
X153732Y169798D02*
X150400D01*
Y167299D01*
X152066D01*
X150400D01*
Y164800D01*
X131532Y148498D02*
X128200D01*
Y145999D01*
X129866D01*
X128200D01*
Y143500D01*
X105632Y154498D02*
X102300D01*
Y151999D01*
X103966D01*
X102300D01*
Y149500D01*
X101732Y183398D02*
X98400D01*
Y178400D01*
X101732D01*
X98400Y180899D02*
X100066D01*
X138732Y59298D02*
X135400D01*
Y54300D01*
X138732D01*
X135400Y56799D02*
X137066D01*
X79232Y199698D02*
X75900D01*
Y194700D01*
X79232D01*
X75900Y197199D02*
X77566D01*
X70432Y213898D02*
X67100D01*
Y208900D01*
X70432D01*
X67100Y211399D02*
X68766D01*
X53232Y178298D02*
X49900D01*
Y173300D01*
X53232D01*
X49900Y175799D02*
X51566D01*
X18632Y190798D02*
X15300D01*
Y185800D01*
X18632D01*
X15300Y188299D02*
X16966D01*
X41032Y203598D02*
X37700D01*
Y198600D01*
X41032D01*
X37700Y201099D02*
X39366D01*
X50132Y203298D02*
X46800D01*
Y198300D01*
X50132D01*
X46800Y200799D02*
X48466D01*
X49932Y228898D02*
X46600D01*
Y223900D01*
X49932D01*
X46600Y226399D02*
X48266D01*
X47932Y214998D02*
X44600D01*
Y210000D01*
X47932D01*
X44600Y212499D02*
X46266D01*
X51732Y212198D02*
X48400D01*
Y207200D01*
X51732D01*
X48400Y209699D02*
X50066D01*
X42332Y219998D02*
X39000D01*
Y215000D01*
X42332D01*
X39000Y217499D02*
X40666D01*
X54232Y194998D02*
X50900D01*
Y190000D01*
X54232D01*
X50900Y192499D02*
X52566D01*
X60432Y197498D02*
X57100D01*
Y192500D01*
X60432D01*
X57100Y194999D02*
X58766D01*
X45432Y194798D02*
X42100D01*
Y189800D01*
X45432D01*
X42100Y192299D02*
X43766D01*
X-35768Y176698D02*
X-39100D01*
Y171700D01*
X-35768D01*
X-39100Y174199D02*
X-37434D01*
X-39168Y168398D02*
X-42500D01*
Y163400D01*
X-39168D01*
X-42500Y165899D02*
X-40834D01*
X27432Y167598D02*
X24100D01*
Y162600D01*
X27432D01*
X24100Y165099D02*
X25766D01*
X34432Y178298D02*
X31100D01*
Y173300D01*
X34432D01*
X31100Y175799D02*
X32766D01*
X68632Y141398D02*
X65300D01*
Y136400D01*
X68632D01*
X65300Y138899D02*
X66966D01*
X65732Y166998D02*
X62400D01*
Y162000D01*
X65732D01*
X62400Y164499D02*
X64066D01*
X58932Y166998D02*
X55600D01*
Y162000D01*
X58932D01*
X55600Y164499D02*
X57266D01*
X62832Y163098D02*
X59500D01*
Y158100D01*
X62832D01*
X59500Y160599D02*
X61166D01*
X74232Y153198D02*
X70900D01*
Y148200D01*
X74232D01*
X70900Y150699D02*
X72566D01*
X77932Y156498D02*
X74600D01*
Y151500D01*
X77932D01*
X74600Y153999D02*
X76266D01*
X82032Y159298D02*
X78700D01*
Y154300D01*
X82032D01*
X78700Y156799D02*
X80366D01*
X62032Y174898D02*
X58700D01*
Y169900D01*
X62032D01*
X58700Y172399D02*
X60366D01*
X71632Y135698D02*
X68300D01*
Y130700D01*
X71632D01*
X68300Y133199D02*
X69966D01*
X55432Y101698D02*
X52100D01*
Y96700D01*
X55432D01*
X52100Y99199D02*
X53766D01*
X61116Y95414D02*
X57784D01*
Y90416D01*
X61116D01*
X57784Y92915D02*
X59450D01*
X173832Y71265D02*
X172999Y72098D01*
X171333D01*
X170500Y71265D01*
Y67933D01*
X171333Y67100D01*
X172999D01*
X173832Y67933D01*
Y69599D01*
X172166D01*
X84632Y163298D02*
X81300D01*
Y158300D01*
X84632D01*
X81300Y160799D02*
X82966D01*
X56432Y97798D02*
X53100D01*
Y92800D01*
X56432D01*
X53100Y95299D02*
X54766D01*
X70432Y162998D02*
X67100D01*
Y158000D01*
X70432D01*
X67100Y160499D02*
X68766D01*
X65832Y178498D02*
X62500D01*
Y173500D01*
X65832D01*
X62500Y175999D02*
X64166D01*
X56432Y180798D02*
X53100D01*
Y175800D01*
X56432D01*
X53100Y178299D02*
X54766D01*
X-12568Y206598D02*
X-15900D01*
Y201600D01*
X-12568D01*
X-15900Y204099D02*
X-14234D01*
X31432Y174998D02*
X28100D01*
Y170000D01*
X31432D01*
X28100Y172499D02*
X29766D01*
D81*
X34898Y548998D02*
X33699Y550198D01*
X31300D01*
X30100Y548998D01*
Y547798D01*
X31300Y546599D01*
X33699D01*
X34898Y545399D01*
Y544200D01*
X33699Y543000D01*
X31300D01*
X30100Y544200D01*
X37298Y547798D02*
Y544200D01*
X38497Y543000D01*
X42096D01*
Y541800D01*
X40896Y540601D01*
X39697D01*
X42096Y543000D02*
Y547798D01*
X44495Y543000D02*
Y547798D01*
X45695D01*
X46895Y546599D01*
Y543000D01*
Y546599D01*
X48094Y547798D01*
X49294Y546599D01*
Y543000D01*
X51693Y550198D02*
Y543000D01*
X55292D01*
X56492Y544200D01*
Y545399D01*
Y546599D01*
X55292Y547798D01*
X51693D01*
X60090Y543000D02*
X62489D01*
X63689Y544200D01*
Y546599D01*
X62489Y547798D01*
X60090D01*
X58891Y546599D01*
Y544200D01*
X60090Y543000D01*
X66088D02*
X68488D01*
X67288D01*
Y550198D01*
X66088D01*
X82900D02*
Y543000D01*
Y546599D01*
X87699D01*
Y550198D01*
Y543000D01*
X90098D02*
X92497D01*
X91297D01*
Y547798D01*
X90098D01*
X97295Y548998D02*
Y547798D01*
X96096D01*
X98495D01*
X97295D01*
Y544200D01*
X98495Y543000D01*
X114090Y548998D02*
X112890Y550198D01*
X110491D01*
X109292Y548998D01*
Y544200D01*
X110491Y543000D01*
X112890D01*
X114090Y544200D01*
X117689Y543000D02*
X120088D01*
X121288Y544200D01*
Y546599D01*
X120088Y547798D01*
X117689D01*
X116489Y546599D01*
Y544200D01*
X117689Y543000D01*
X123687Y547798D02*
Y544200D01*
X124886Y543000D01*
X128485D01*
Y547798D01*
X130885Y543000D02*
Y547798D01*
X134483D01*
X135683Y546599D01*
Y543000D01*
X139282Y548998D02*
Y547798D01*
X138082D01*
X140481D01*
X139282D01*
Y544200D01*
X140481Y543000D01*
X157280Y550198D02*
X152481D01*
Y546599D01*
X154881D01*
X152481D01*
Y543000D01*
X159679D02*
X162078D01*
X160879D01*
Y547798D01*
X159679D01*
X165677Y543000D02*
Y547798D01*
X169276D01*
X170475Y546599D01*
Y543000D01*
X172875D02*
X175274D01*
X174074D01*
Y547798D01*
X172875D01*
X178873Y543000D02*
X182472D01*
X183671Y544200D01*
X182472Y545399D01*
X180072D01*
X178873Y546599D01*
X180072Y547798D01*
X183671D01*
X186071Y550198D02*
Y543000D01*
Y546599D01*
X187270Y547798D01*
X189669D01*
X190869Y546599D01*
Y543000D01*
X196867D02*
X194468D01*
X193268Y544200D01*
Y546599D01*
X194468Y547798D01*
X196867D01*
X198067Y546599D01*
Y545399D01*
X193268D01*
X205264Y550198D02*
Y543000D01*
X201665D01*
X200466Y544200D01*
Y546599D01*
X201665Y547798D01*
X205264D01*
X214861Y550198D02*
Y543000D01*
Y546599D01*
X219660D01*
Y550198D01*
Y543000D01*
X223258D02*
X225658D01*
X226857Y544200D01*
Y546599D01*
X225658Y547798D01*
X223258D01*
X222059Y546599D01*
Y544200D01*
X223258Y543000D01*
X229257D02*
X231656D01*
X230456D01*
Y550198D01*
X229257D01*
X238853Y543000D02*
X236454D01*
X235255Y544200D01*
Y546599D01*
X236454Y547798D01*
X238853D01*
X240053Y546599D01*
Y545399D01*
X235255D01*
X254448Y548998D02*
X253249Y550198D01*
X250850D01*
X249650Y548998D01*
Y547798D01*
X250850Y546599D01*
X253249D01*
X254448Y545399D01*
Y544200D01*
X253249Y543000D01*
X250850D01*
X249650Y544200D01*
X256848Y543000D02*
X259247D01*
X258047D01*
Y547798D01*
X256848D01*
X262846D02*
X267644D01*
X262846Y543000D01*
X267644D01*
X273642D02*
X271243D01*
X270043Y544200D01*
Y546599D01*
X271243Y547798D01*
X273642D01*
X274842Y546599D01*
Y545399D01*
X270043D01*
X286842Y543000D02*
Y550198D01*
X290441D01*
X291640Y548998D01*
Y546599D01*
X290441Y545399D01*
X286842D01*
X294039Y550198D02*
Y543000D01*
Y546599D01*
X295239Y547798D01*
X297638D01*
X298838Y546599D01*
Y543000D01*
X301237Y547798D02*
Y544200D01*
X302437Y543000D01*
X306036D01*
Y541800D01*
X304836Y540601D01*
X303636D01*
X306036Y543000D02*
Y547798D01*
X308435Y543000D02*
X312034D01*
X313233Y544200D01*
X312034Y545399D01*
X309634D01*
X308435Y546599D01*
X309634Y547798D01*
X313233D01*
X315632Y543000D02*
X318032D01*
X316832D01*
Y547798D01*
X315632D01*
X326429D02*
X322830D01*
X321631Y546599D01*
Y544200D01*
X322830Y543000D01*
X326429D01*
X330028Y547798D02*
X332427D01*
X333627Y546599D01*
Y543000D01*
X330028D01*
X328828Y544200D01*
X330028Y545399D01*
X333627D01*
X336026Y543000D02*
X338425D01*
X337226D01*
Y550198D01*
X336026D01*
X349222D02*
Y543000D01*
X354020D01*
X360018D02*
X357619D01*
X356419Y544200D01*
Y546599D01*
X357619Y547798D01*
X360018D01*
X361218Y546599D01*
Y545399D01*
X356419D01*
X363617Y543000D02*
Y547798D01*
X367216D01*
X368415Y546599D01*
Y543000D01*
X373214Y540601D02*
X374413D01*
X375613Y541800D01*
Y547798D01*
X372014D01*
X370815Y546599D01*
Y544200D01*
X372014Y543000D01*
X375613D01*
X379212Y548998D02*
Y547798D01*
X378012D01*
X380412D01*
X379212D01*
Y544200D01*
X380412Y543000D01*
X384010Y550198D02*
Y543000D01*
Y546599D01*
X385210Y547798D01*
X387609D01*
X388809Y546599D01*
Y543000D01*
X400809D02*
Y550198D01*
X404408D01*
X405607Y548998D01*
Y546599D01*
X404408Y545399D01*
X400809D01*
X403208D02*
X405607Y543000D01*
X409206D02*
X411605D01*
X412805Y544200D01*
Y546599D01*
X411605Y547798D01*
X409206D01*
X408006Y546599D01*
Y544200D01*
X409206Y543000D01*
X415204Y547798D02*
Y544200D01*
X416404Y543000D01*
X420003D01*
Y547798D01*
X423601Y548998D02*
Y547798D01*
X422402D01*
X424801D01*
X423601D01*
Y544200D01*
X424801Y543000D01*
X435598D02*
Y550198D01*
X439196D01*
X440396Y548998D01*
Y546599D01*
X439196Y545399D01*
X435598D01*
X443995Y547798D02*
X446394D01*
X447594Y546599D01*
Y543000D01*
X443995D01*
X442795Y544200D01*
X443995Y545399D01*
X447594D01*
X451193Y548998D02*
Y547798D01*
X449993D01*
X452392D01*
X451193D01*
Y544200D01*
X452392Y543000D01*
X455991Y550198D02*
Y543000D01*
Y546599D01*
X457191Y547798D01*
X459590D01*
X460789Y546599D01*
Y543000D01*
X470386Y550198D02*
Y543000D01*
X475185D01*
X481183D02*
X478784D01*
X477584Y544200D01*
Y546599D01*
X478784Y547798D01*
X481183D01*
X482382Y546599D01*
Y545399D01*
X477584D01*
X484782Y543000D02*
Y547798D01*
X488380D01*
X489580Y546599D01*
Y543000D01*
X494379Y540601D02*
X495578D01*
X496778Y541800D01*
Y547798D01*
X493179D01*
X491979Y546599D01*
Y544200D01*
X493179Y543000D01*
X496778D01*
X500377Y548998D02*
Y547798D01*
X499177D01*
X501576D01*
X500377D01*
Y544200D01*
X501576Y543000D01*
X505175Y550198D02*
Y543000D01*
Y546599D01*
X506375Y547798D01*
X508774D01*
X509973Y546599D01*
Y543000D01*
X521973D02*
Y550198D01*
X525572D01*
X526772Y548998D01*
Y546599D01*
X525572Y545399D01*
X521973D01*
X529171Y543000D02*
X531570D01*
X530371D01*
Y550198D01*
X529171D01*
X536369Y547798D02*
X538768D01*
X539968Y546599D01*
Y543000D01*
X536369D01*
X535169Y544200D01*
X536369Y545399D01*
X539968D01*
X543566Y548998D02*
Y547798D01*
X542367D01*
X544766D01*
X543566D01*
Y544200D01*
X544766Y543000D01*
X551964D02*
X549565D01*
X548365Y544200D01*
Y546599D01*
X549565Y547798D01*
X551964D01*
X553163Y546599D01*
Y545399D01*
X548365D01*
X560361Y550198D02*
Y543000D01*
X556762D01*
X555563Y544200D01*
Y546599D01*
X556762Y547798D01*
X560361D01*
X572361Y550198D02*
Y543000D01*
Y546599D01*
X577160D01*
Y550198D01*
Y543000D01*
X580758D02*
X583157D01*
X584357Y544200D01*
Y546599D01*
X583157Y547798D01*
X580758D01*
X579559Y546599D01*
Y544200D01*
X580758Y543000D01*
X586756D02*
X589156D01*
X587956D01*
Y550198D01*
X586756D01*
X596353Y543000D02*
X593954D01*
X592754Y544200D01*
Y546599D01*
X593954Y547798D01*
X596353D01*
X597553Y546599D01*
Y545399D01*
X592754D01*
X607150Y550198D02*
X611948D01*
X609549D01*
Y543000D01*
X614347Y547798D02*
Y544200D01*
X615547Y543000D01*
X619146D01*
Y541800D01*
X617946Y540601D01*
X616747D01*
X619146Y543000D02*
Y547798D01*
X621545Y540601D02*
Y547798D01*
X625144D01*
X626343Y546599D01*
Y544200D01*
X625144Y543000D01*
X621545D01*
X632342D02*
X629942D01*
X628743Y544200D01*
Y546599D01*
X629942Y547798D01*
X632342D01*
X633541Y546599D01*
Y545399D01*
X628743D01*
X21300Y553800D02*
X645541D01*
X21300Y537600D02*
X645541D01*
X21300Y553800D02*
Y441600D01*
X645541Y553800D02*
Y441600D01*
X78500Y553800D02*
Y441600D01*
X148081Y553800D02*
Y441600D01*
X282442Y553800D02*
Y441600D01*
X396409Y553800D02*
Y441600D01*
X517573Y553800D02*
Y441600D01*
X567961Y553800D02*
Y441600D01*
X21300Y453600D02*
X645541D01*
X21300Y441600D02*
X645541D01*
D82*
X34099Y437598D02*
X33099Y438598D01*
X31100D01*
X30100Y437598D01*
Y436599D01*
X31100Y435599D01*
X33099D01*
X34099Y434599D01*
Y433600D01*
X33099Y432600D01*
X31100D01*
X30100Y433600D01*
X36098Y432600D02*
X38097D01*
X37098D01*
Y438598D01*
X36098D01*
X42096Y432600D02*
X44096D01*
X45095Y433600D01*
Y435599D01*
X44096Y436599D01*
X42096D01*
X41096Y435599D01*
Y433600D01*
X42096Y432600D01*
X48094Y437598D02*
Y436599D01*
X47095D01*
X49094D01*
X48094D01*
Y433600D01*
X49094Y432600D01*
X62090Y438598D02*
Y432600D01*
X59091D01*
X58091Y433600D01*
Y435599D01*
X59091Y436599D01*
X62090D01*
X67088Y432600D02*
X65089D01*
X64089Y433600D01*
Y435599D01*
X65089Y436599D01*
X67088D01*
X68088Y435599D01*
Y434599D01*
X64089D01*
X71087Y432600D02*
Y437598D01*
Y435599D01*
X70087D01*
X72086D01*
X71087D01*
Y437598D01*
X72086Y438598D01*
X75085Y432600D02*
X77085D01*
X76085D01*
Y436599D01*
X75085D01*
X80084Y432600D02*
Y436599D01*
X83083D01*
X84083Y435599D01*
Y432600D01*
X86082D02*
X88081D01*
X87082D01*
Y436599D01*
X86082D01*
X92080Y437598D02*
Y436599D01*
X91080D01*
X93080D01*
X92080D01*
Y433600D01*
X93080Y432600D01*
X96079D02*
X98078D01*
X97078D01*
Y436599D01*
X96079D01*
X102077Y432600D02*
X104076D01*
X105076Y433600D01*
Y435599D01*
X104076Y436599D01*
X102077D01*
X101077Y435599D01*
Y433600D01*
X102077Y432600D01*
X107075D02*
Y436599D01*
X110074D01*
X111074Y435599D01*
Y432600D01*
X113073D02*
X116072D01*
X117072Y433600D01*
X116072Y434599D01*
X114073D01*
X113073Y435599D01*
X114073Y436599D01*
X117072D01*
X125069D02*
X126069D01*
Y435599D01*
X125069D01*
Y436599D01*
Y433600D02*
X126069D01*
Y432600D01*
X125069D01*
Y433600D01*
X137669Y432600D02*
Y438598D01*
X140668D01*
X141668Y437598D01*
Y435599D01*
X140668Y434599D01*
X137669D01*
X139668D02*
X141668Y432600D01*
X144667D02*
X146666D01*
X147666Y433600D01*
Y435599D01*
X146666Y436599D01*
X144667D01*
X143667Y435599D01*
Y433600D01*
X144667Y432600D01*
X149665Y436599D02*
Y433600D01*
X150665Y432600D01*
X153664D01*
Y436599D01*
X156663Y437598D02*
Y436599D01*
X155663D01*
X157662D01*
X156663D01*
Y433600D01*
X157662Y432600D01*
X166660D02*
Y438598D01*
X169659D01*
X170658Y437598D01*
Y435599D01*
X169659Y434599D01*
X166660D01*
X173657Y436599D02*
X175657D01*
X176656Y435599D01*
Y432600D01*
X173657D01*
X172658Y433600D01*
X173657Y434599D01*
X176656D01*
X179655Y437598D02*
Y436599D01*
X178656D01*
X180655D01*
X179655D01*
Y433600D01*
X180655Y432600D01*
X183654Y438598D02*
Y432600D01*
Y435599D01*
X184654Y436599D01*
X186653D01*
X187653Y435599D01*
Y432600D01*
X195650Y438598D02*
Y432600D01*
X199649D01*
X204647D02*
X202648D01*
X201648Y433600D01*
Y435599D01*
X202648Y436599D01*
X204647D01*
X205647Y435599D01*
Y434599D01*
X201648D01*
X207646Y432600D02*
Y436599D01*
X210645D01*
X211645Y435599D01*
Y432600D01*
X215644Y430601D02*
X216643D01*
X217643Y431600D01*
Y436599D01*
X214644D01*
X213644Y435599D01*
Y433600D01*
X214644Y432600D01*
X217643D01*
X220642Y437598D02*
Y436599D01*
X219642D01*
X221642D01*
X220642D01*
Y433600D01*
X221642Y432600D01*
X224641Y438598D02*
Y432600D01*
Y435599D01*
X225641Y436599D01*
X227640D01*
X228640Y435599D01*
Y432600D01*
X137669Y420600D02*
Y426598D01*
X140668D01*
X141668Y425598D01*
Y423599D01*
X140668Y422599D01*
X137669D01*
X143667Y426598D02*
Y420600D01*
Y423599D01*
X144667Y424599D01*
X146666D01*
X147666Y423599D01*
Y420600D01*
X149665Y424599D02*
Y421600D01*
X150665Y420600D01*
X153664D01*
Y419600D01*
X152664Y418601D01*
X151664D01*
X153664Y420600D02*
Y424599D01*
X155663Y420600D02*
X158662D01*
X159662Y421600D01*
X158662Y422599D01*
X156663D01*
X155663Y423599D01*
X156663Y424599D01*
X159662D01*
X161661Y420600D02*
X163661D01*
X162661D01*
Y424599D01*
X161661D01*
X170658D02*
X167659D01*
X166660Y423599D01*
Y421600D01*
X167659Y420600D01*
X170658D01*
X173657Y424599D02*
X175657D01*
X176656Y423599D01*
Y420600D01*
X173657D01*
X172658Y421600D01*
X173657Y422599D01*
X176656D01*
X178656Y420600D02*
X180655D01*
X179655D01*
Y426598D01*
X178656D01*
X189652D02*
Y420600D01*
X193651D01*
X198649D02*
X196650D01*
X195650Y421600D01*
Y423599D01*
X196650Y424599D01*
X198649D01*
X199649Y423599D01*
Y422599D01*
X195650D01*
X201648Y420600D02*
Y424599D01*
X204647D01*
X205647Y423599D01*
Y420600D01*
X209646Y418601D02*
X210645D01*
X211645Y419600D01*
Y424599D01*
X208646D01*
X207646Y423599D01*
Y421600D01*
X208646Y420600D01*
X211645D01*
X214644Y425598D02*
Y424599D01*
X213644D01*
X215644D01*
X214644D01*
Y421600D01*
X215644Y420600D01*
X218643Y426598D02*
Y420600D01*
Y423599D01*
X219642Y424599D01*
X221642D01*
X222641Y423599D01*
Y420600D01*
M02*
