G04 Layer_Physical_Order=1*
G04 Layer_Color=255*
%FSLAX25Y25*%
%MOIN*%
G70*
G01*
G75*
%ADD10R,0.04567X0.05787*%
%ADD11C,0.01000*%
%ADD12C,0.01500*%
%ADD13C,0.02000*%
%ADD14C,0.03000*%
%ADD15C,0.04000*%
%ADD16C,0.23622*%
%ADD17C,0.05118*%
%ADD18C,0.05906*%
%ADD19R,0.05906X0.05906*%
G04:AMPARAMS|DCode=20|XSize=177.16mil|YSize=78.74mil|CornerRadius=0mil|HoleSize=0mil|Usage=FLASHONLY|Rotation=300.000|XOffset=0mil|YOffset=0mil|HoleType=Round|Shape=Round|*
%AMOVALD20*
21,1,0.09843,0.07874,0.00000,0.00000,300.0*
1,1,0.07874,-0.02461,0.04262*
1,1,0.07874,0.02461,-0.04262*
%
%ADD20OVALD20*%

G04:AMPARAMS|DCode=21|XSize=177.16mil|YSize=78.74mil|CornerRadius=0mil|HoleSize=0mil|Usage=FLASHONLY|Rotation=210.000|XOffset=0mil|YOffset=0mil|HoleType=Round|Shape=Round|*
%AMOVALD21*
21,1,0.09843,0.07874,0.00000,0.00000,210.0*
1,1,0.07874,0.04262,0.02461*
1,1,0.07874,-0.04262,-0.02461*
%
%ADD21OVALD21*%

%ADD22P,0.08352X4X285.0*%
%ADD23P,0.08352X4X195.0*%
%ADD24P,0.08352X4X160.0*%
%ADD25R,0.05906X0.05906*%
%ADD26P,0.08352X4X80.0*%
%ADD27P,0.08352X4X55.0*%
%ADD28P,0.08352X4X205.0*%
%ADD29C,0.02500*%
%ADD30C,0.05000*%
%ADD31C,0.03000*%
G36*
X158400Y75206D02*
Y49096D01*
X190300D01*
X219436Y-33891D01*
X213019Y-38507D01*
X206014Y-43071D01*
X198806Y-47307D01*
X191410Y-51206D01*
X183842Y-54759D01*
X176118Y-57958D01*
X168254Y-60798D01*
X160268Y-63271D01*
X152176Y-65372D01*
X143995Y-67098D01*
X135744Y-68444D01*
X127439Y-69407D01*
X119098Y-69986D01*
X110740Y-70179D01*
X102381Y-69986D01*
X94041Y-69407D01*
X85736Y-68444D01*
X77485Y-67098D01*
X69304Y-65372D01*
X61212Y-63271D01*
X53225Y-60798D01*
X47200Y-58622D01*
Y41396D01*
X82304Y76500D01*
X88647D01*
Y69947D01*
X96153D01*
Y76459D01*
X96194Y76500D01*
X115647D01*
Y69947D01*
X123153D01*
Y76500D01*
X157106D01*
X158400Y75206D01*
D02*
G37*
G36*
X119098Y291591D02*
X127439Y291012D01*
X135744Y290049D01*
X143995Y288703D01*
X152176Y286977D01*
X160268Y284875D01*
X168254Y282402D01*
X176118Y279563D01*
X183842Y276363D01*
X191410Y272811D01*
X198806Y268912D01*
X206014Y264676D01*
X213019Y260112D01*
X219806Y255229D01*
X226360Y250038D01*
X232666Y244549D01*
X238713Y238776D01*
X244487Y232729D01*
X249975Y226422D01*
X255166Y219868D01*
X260049Y213082D01*
X264614Y206077D01*
X268850Y198869D01*
X272748Y191473D01*
X276301Y183905D01*
X279500Y176181D01*
X282340Y168317D01*
X284813Y160330D01*
X286914Y152238D01*
X288640Y144058D01*
X289986Y135806D01*
X290950Y127501D01*
X291529Y119161D01*
X291722Y110802D01*
X291529Y102444D01*
X290950Y94103D01*
X289986Y85799D01*
X288640Y77547D01*
X286914Y69367D01*
X284813Y61274D01*
X282340Y53288D01*
X279500Y45424D01*
X276301Y37700D01*
X272748Y30132D01*
X268850Y22736D01*
X264614Y15528D01*
X260049Y8523D01*
X255166Y1736D01*
X249975Y-4817D01*
X244487Y-11124D01*
X238713Y-17171D01*
X232666Y-22945D01*
X226360Y-28433D01*
X225936Y-28768D01*
X225454Y-28635D01*
X219582Y-13001D01*
X219938Y-12527D01*
X221500Y-12650D01*
X223479Y-12494D01*
X225409Y-12031D01*
X227243Y-11271D01*
X228936Y-10234D01*
X230445Y-8945D01*
X231734Y-7435D01*
X232771Y-5743D01*
X233531Y-3909D01*
X233994Y-1979D01*
X234150Y0D01*
X233994Y1979D01*
X233531Y3909D01*
X232771Y5743D01*
X231734Y7435D01*
X230445Y8945D01*
X228936Y10234D01*
X227243Y11271D01*
X225409Y12031D01*
X223479Y12494D01*
X221500Y12650D01*
X219521Y12494D01*
X217591Y12031D01*
X215757Y11271D01*
X214065Y10234D01*
X212555Y8945D01*
X212029Y8329D01*
X211537Y8416D01*
X194000Y55100D01*
X185841D01*
X185800Y55200D01*
Y82100D01*
X159494D01*
X157797Y83797D01*
X157212Y84246D01*
X156531Y84528D01*
X155800Y84624D01*
X97500D01*
X96769Y84528D01*
X96088Y84246D01*
X95503Y83797D01*
X93806Y82100D01*
X77600D01*
X77400Y82300D01*
X41800Y46700D01*
Y-56033D01*
X41384Y-56311D01*
X37637Y-54759D01*
X30069Y-51206D01*
X22673Y-47307D01*
X15465Y-43071D01*
X8460Y-38507D01*
X1674Y-33624D01*
X-4880Y-28433D01*
X-11187Y-22945D01*
X-17234Y-17171D01*
X-23007Y-11124D01*
X-28496Y-4817D01*
X-33687Y1736D01*
X-38570Y8523D01*
X-43134Y15528D01*
X-47370Y22736D01*
X-51269Y30132D01*
X-54821Y37700D01*
X-58021Y45424D01*
X-60860Y53288D01*
X-63333Y61274D01*
X-65435Y69367D01*
X-67160Y77547D01*
X-68506Y85799D01*
X-69470Y94103D01*
X-70049Y102444D01*
X-70242Y110802D01*
X-70049Y119161D01*
X-69470Y127501D01*
X-68506Y135806D01*
X-67160Y144058D01*
X-65526Y151808D01*
X-65026Y151756D01*
Y138000D01*
X-64925Y137493D01*
X-64637Y137063D01*
X-61621Y134047D01*
X-61856Y133480D01*
X-61985Y132500D01*
X-61856Y131520D01*
X-61478Y130607D01*
X-60877Y129824D01*
X-60093Y129222D01*
X-59180Y128844D01*
X-58200Y128715D01*
X-57220Y128844D01*
X-56307Y129222D01*
X-55524Y129824D01*
X-54922Y130607D01*
X-54544Y131520D01*
X-54415Y132500D01*
X-54544Y133480D01*
X-54922Y134393D01*
X-55524Y135177D01*
X-56307Y135778D01*
X-57220Y136156D01*
X-58200Y136285D01*
X-59180Y136156D01*
X-59747Y135921D01*
X-62375Y138549D01*
Y141627D01*
X-61875Y141660D01*
X-61856Y141520D01*
X-61478Y140607D01*
X-60877Y139823D01*
X-60093Y139222D01*
X-59180Y138844D01*
X-58200Y138715D01*
X-57220Y138844D01*
X-56307Y139222D01*
X-55524Y139823D01*
X-54922Y140607D01*
X-54544Y141520D01*
X-54415Y142500D01*
X-54544Y143480D01*
X-54779Y144047D01*
X-29351Y169474D01*
X18500D01*
X19007Y169575D01*
X19437Y169863D01*
X26649Y177075D01*
X49951D01*
X50481Y176544D01*
X50235Y176083D01*
X50200Y176090D01*
X49400Y175931D01*
X48722Y175478D01*
X48269Y174800D01*
X48146Y174181D01*
X46982Y173018D01*
X46640Y172505D01*
X46520Y171900D01*
Y123900D01*
X46640Y123295D01*
X46982Y122783D01*
X57283Y112483D01*
X57795Y112140D01*
X58400Y112020D01*
X100600D01*
X101205Y112140D01*
X101717Y112483D01*
X105154Y115919D01*
X105977Y116027D01*
X106794Y116366D01*
X107496Y116904D01*
X108034Y117606D01*
X108373Y118423D01*
X108488Y119300D01*
X108373Y120177D01*
X108034Y120994D01*
X107496Y121696D01*
X106794Y122234D01*
X105977Y122573D01*
X105100Y122688D01*
X104223Y122573D01*
X103406Y122234D01*
X102704Y121696D01*
X102166Y120994D01*
X101827Y120177D01*
X101712Y119300D01*
X101827Y118423D01*
X102166Y117606D01*
X102255Y117490D01*
X99945Y115180D01*
X59055D01*
X49680Y124555D01*
Y143392D01*
X50142Y143583D01*
X63963Y129763D01*
X64393Y129475D01*
X64900Y129375D01*
X66720D01*
X66822Y129222D01*
X67500Y128769D01*
X68300Y128610D01*
X69100Y128769D01*
X69778Y129222D01*
X70231Y129900D01*
X70390Y130700D01*
X70231Y131500D01*
X69778Y132178D01*
X69100Y132631D01*
X68300Y132790D01*
X67500Y132631D01*
X66822Y132178D01*
X66720Y132026D01*
X65449D01*
X51825Y145649D01*
Y147293D01*
X52325Y147500D01*
X63246Y136580D01*
X63210Y136400D01*
X63369Y135600D01*
X63822Y134922D01*
X64500Y134469D01*
X65300Y134310D01*
X66100Y134469D01*
X66778Y134922D01*
X67231Y135600D01*
X67390Y136400D01*
X67231Y137200D01*
X66778Y137878D01*
X66100Y138331D01*
X65300Y138490D01*
X65120Y138454D01*
X54125Y149449D01*
Y159989D01*
X54566Y160225D01*
X54800Y160069D01*
X55600Y159910D01*
X56400Y160069D01*
X57078Y160522D01*
X57531Y161200D01*
X57674Y161921D01*
X58175Y161872D01*
Y159680D01*
X58022Y159578D01*
X57569Y158900D01*
X57410Y158100D01*
X57569Y157300D01*
X58022Y156622D01*
X58700Y156169D01*
X59500Y156010D01*
X60300Y156169D01*
X60978Y156622D01*
X61431Y157300D01*
X61590Y158100D01*
X61431Y158900D01*
X61004Y159539D01*
X60987Y159645D01*
X61020Y159879D01*
X61525Y160119D01*
X61600Y160069D01*
X62400Y159910D01*
X63200Y160069D01*
X63878Y160522D01*
X64331Y161200D01*
X64490Y162000D01*
X64331Y162800D01*
X64308Y162834D01*
X65313Y163838D01*
X65775Y163647D01*
Y159580D01*
X65622Y159478D01*
X65169Y158800D01*
X65010Y158000D01*
X65169Y157200D01*
X65622Y156522D01*
X66300Y156069D01*
X67100Y155910D01*
X67900Y156069D01*
X68578Y156522D01*
X69031Y157200D01*
X69074Y157419D01*
X69574Y157369D01*
Y149780D01*
X69422Y149678D01*
X68969Y149000D01*
X68810Y148200D01*
X68969Y147400D01*
X69422Y146722D01*
X70100Y146269D01*
X70900Y146110D01*
X71700Y146269D01*
X72378Y146722D01*
X72831Y147400D01*
X72990Y148200D01*
X72831Y149000D01*
X72378Y149678D01*
X72225Y149780D01*
Y150532D01*
X72334Y150574D01*
X72725Y150616D01*
X73122Y150022D01*
X73800Y149569D01*
X74600Y149410D01*
X75400Y149569D01*
X76078Y150022D01*
X76531Y150700D01*
X76690Y151500D01*
X76531Y152300D01*
X76078Y152978D01*
X75925Y153080D01*
Y165351D01*
X76913Y166338D01*
X77375Y166147D01*
Y155880D01*
X77222Y155778D01*
X76769Y155100D01*
X76610Y154300D01*
X76769Y153500D01*
X77222Y152822D01*
X77900Y152369D01*
X78700Y152210D01*
X79500Y152369D01*
X80178Y152822D01*
X80631Y153500D01*
X80790Y154300D01*
X80631Y155100D01*
X80223Y155711D01*
X80218Y155961D01*
X80449Y156368D01*
X80525Y156364D01*
X81300Y156210D01*
X82100Y156369D01*
X82778Y156822D01*
X83231Y157500D01*
X83390Y158300D01*
X83231Y159100D01*
X82778Y159778D01*
X82626Y159880D01*
Y165951D01*
X102549Y185874D01*
X131100D01*
X131607Y185975D01*
X132037Y186263D01*
X200566Y254791D01*
X201943Y254290D01*
X204510Y261343D01*
X197457Y263910D01*
X194890Y256857D01*
X197380Y255951D01*
X197488Y255463D01*
X192090Y250065D01*
X191629Y250256D01*
Y259003D01*
X191903Y259090D01*
X192736Y259621D01*
X193404Y260349D01*
X193860Y261226D01*
X194074Y262190D01*
X194031Y263177D01*
X193734Y264120D01*
X193203Y264953D01*
X192474Y265621D01*
X191598Y266077D01*
X190633Y266291D01*
X189646Y266248D01*
X188703Y265951D01*
X187870Y265420D01*
X187203Y264691D01*
X186746Y263815D01*
X186532Y262850D01*
X186575Y261863D01*
X186873Y260921D01*
X187404Y260087D01*
X188132Y259420D01*
X188978Y258979D01*
Y249752D01*
X182266Y243040D01*
X181766Y243248D01*
Y262277D01*
X182506Y262510D01*
X183339Y263041D01*
X184007Y263769D01*
X184463Y264646D01*
X184677Y265611D01*
X184634Y266598D01*
X184337Y267540D01*
X183806Y268373D01*
X183077Y269041D01*
X182201Y269497D01*
X181236Y269711D01*
X180249Y269668D01*
X179306Y269371D01*
X178473Y268840D01*
X177806Y268111D01*
X177349Y267235D01*
X177135Y266270D01*
X177179Y265283D01*
X177476Y264341D01*
X178007Y263507D01*
X178735Y262840D01*
X179115Y262642D01*
Y243189D01*
X173297Y237371D01*
X172835Y237562D01*
Y265844D01*
X173109Y265930D01*
X173942Y266461D01*
X174610Y267190D01*
X175066Y268066D01*
X175280Y269031D01*
X175237Y270018D01*
X174940Y270960D01*
X174409Y271794D01*
X173680Y272461D01*
X172804Y272918D01*
X171839Y273131D01*
X170852Y273088D01*
X169910Y272791D01*
X169076Y272260D01*
X168409Y271532D01*
X167952Y270655D01*
X167738Y269690D01*
X167782Y268703D01*
X168079Y267761D01*
X168610Y266928D01*
X169338Y266260D01*
X170184Y265820D01*
Y237058D01*
X163900Y230774D01*
X163438Y230965D01*
Y269264D01*
X163712Y269350D01*
X164545Y269881D01*
X165213Y270610D01*
X165669Y271486D01*
X165883Y272451D01*
X165840Y273438D01*
X165543Y274380D01*
X165012Y275214D01*
X164283Y275881D01*
X163407Y276338D01*
X162442Y276552D01*
X161455Y276508D01*
X160513Y276211D01*
X159679Y275680D01*
X159012Y274952D01*
X158555Y274075D01*
X158342Y273111D01*
X158385Y272124D01*
X158682Y271181D01*
X159213Y270348D01*
X159941Y269680D01*
X160787Y269240D01*
Y230473D01*
X154541Y224227D01*
X154041Y224434D01*
Y272684D01*
X154315Y272771D01*
X155148Y273301D01*
X155816Y274030D01*
X156272Y274906D01*
X156486Y275871D01*
X156443Y276858D01*
X156146Y277801D01*
X155615Y278634D01*
X154886Y279302D01*
X154010Y279758D01*
X153045Y279972D01*
X152058Y279929D01*
X151116Y279631D01*
X150282Y279101D01*
X149615Y278372D01*
X149159Y277496D01*
X148953Y276568D01*
X148753Y276444D01*
X148487Y276327D01*
X146743Y278072D01*
X146875Y278327D01*
X147089Y279291D01*
X147046Y280278D01*
X146749Y281221D01*
X146218Y282054D01*
X145490Y282722D01*
X144613Y283178D01*
X143648Y283392D01*
X142661Y283349D01*
X141719Y283052D01*
X140885Y282521D01*
X140218Y281792D01*
X139762Y280916D01*
X139548Y279951D01*
X139591Y278964D01*
X139888Y278022D01*
X140288Y277394D01*
X139896Y277079D01*
X136583Y280391D01*
X137022Y280870D01*
X137478Y281747D01*
X137692Y282712D01*
X137649Y283699D01*
X137352Y284641D01*
X136821Y285474D01*
X136093Y286142D01*
X135216Y286598D01*
X134251Y286812D01*
X133264Y286769D01*
X132322Y286472D01*
X131489Y285941D01*
X130821Y285212D01*
X130365Y284336D01*
X130151Y283371D01*
X130194Y282384D01*
X130491Y281442D01*
X131022Y280608D01*
X131751Y279941D01*
X132627Y279485D01*
X133592Y279271D01*
X133940Y279286D01*
X145074Y268151D01*
Y224249D01*
X124851Y204026D01*
X96300D01*
X95793Y203925D01*
X95363Y203637D01*
X65020Y173295D01*
X64578Y173560D01*
X64431Y174300D01*
X63978Y174978D01*
X63300Y175431D01*
X62500Y175590D01*
X61700Y175431D01*
X61022Y174978D01*
X60920Y174826D01*
X57400D01*
X56893Y174725D01*
X56463Y174437D01*
X50142Y168117D01*
X49680Y168308D01*
Y171245D01*
X50381Y171946D01*
X51000Y172069D01*
X51678Y172522D01*
X52131Y173200D01*
X52261Y173853D01*
X52300Y173869D01*
X53100Y173710D01*
X53900Y173869D01*
X54578Y174322D01*
X55031Y175000D01*
X55190Y175800D01*
X55031Y176600D01*
X54578Y177278D01*
X53900Y177731D01*
X53100Y177890D01*
X52920Y177854D01*
X51437Y179337D01*
X51007Y179625D01*
X50500Y179726D01*
X43207D01*
X43000Y180226D01*
X50720Y187946D01*
X50900Y187910D01*
X51700Y188069D01*
X52378Y188522D01*
X52831Y189200D01*
X52990Y190000D01*
X52831Y190800D01*
X52775Y190884D01*
X53011Y191324D01*
X55420D01*
X55622Y191022D01*
X56300Y190569D01*
X57100Y190410D01*
X57900Y190569D01*
X58578Y191022D01*
X59031Y191700D01*
X59190Y192500D01*
X59031Y193300D01*
X58578Y193978D01*
X57900Y194431D01*
X57100Y194590D01*
X56300Y194431D01*
X55622Y193978D01*
X55620Y193975D01*
X45003D01*
X44812Y194437D01*
X46620Y196246D01*
X46800Y196210D01*
X47600Y196369D01*
X48278Y196822D01*
X48731Y197500D01*
X48890Y198300D01*
X48731Y199100D01*
X48278Y199778D01*
X47600Y200231D01*
X46800Y200390D01*
X46620Y200354D01*
X42226Y204749D01*
Y209032D01*
X42334Y209073D01*
X42726Y209116D01*
X43122Y208522D01*
X43800Y208069D01*
X44600Y207910D01*
X45400Y208069D01*
X46078Y208522D01*
X46531Y209200D01*
X46690Y210000D01*
X46654Y210180D01*
X71175Y234700D01*
X71675Y234493D01*
Y232349D01*
X48580Y209254D01*
X48400Y209290D01*
X47600Y209131D01*
X46922Y208678D01*
X46469Y208000D01*
X46310Y207200D01*
X46469Y206400D01*
X46922Y205722D01*
X47600Y205269D01*
X48400Y205110D01*
X49200Y205269D01*
X49878Y205722D01*
X50331Y206400D01*
X50490Y207200D01*
X50454Y207380D01*
X73937Y230863D01*
X74225Y231293D01*
X74326Y231800D01*
Y253851D01*
X86633Y266159D01*
X86921Y266589D01*
X87022Y267096D01*
Y277656D01*
X87296Y277743D01*
X88129Y278273D01*
X88797Y279002D01*
X89253Y279878D01*
X89467Y280843D01*
X89424Y281830D01*
X89127Y282773D01*
X88596Y283606D01*
X87867Y284274D01*
X86991Y284730D01*
X86026Y284944D01*
X85039Y284901D01*
X84096Y284604D01*
X83263Y284072D01*
X82596Y283344D01*
X82139Y282468D01*
X81925Y281503D01*
X81968Y280516D01*
X82266Y279573D01*
X82797Y278740D01*
X83525Y278072D01*
X84371Y277632D01*
Y267645D01*
X77611Y260886D01*
X77150Y261132D01*
X77174Y261248D01*
Y275920D01*
X77448Y276006D01*
X78281Y276537D01*
X78949Y277265D01*
X79405Y278142D01*
X79619Y279107D01*
X79576Y280094D01*
X79279Y281036D01*
X78748Y281870D01*
X78019Y282537D01*
X77143Y282993D01*
X76178Y283207D01*
X75191Y283164D01*
X74248Y282867D01*
X73415Y282336D01*
X72747Y281608D01*
X72291Y280731D01*
X72077Y279766D01*
X72120Y278779D01*
X72418Y277837D01*
X72948Y277004D01*
X73677Y276336D01*
X74523Y275896D01*
Y261797D01*
X69763Y257037D01*
X69475Y256607D01*
X69375Y256100D01*
Y236649D01*
X44780Y212054D01*
X44600Y212090D01*
X44190Y212009D01*
X43944Y212470D01*
X47537Y216063D01*
X47825Y216493D01*
X47925Y217000D01*
Y222320D01*
X48078Y222422D01*
X48531Y223100D01*
X48690Y223900D01*
X48531Y224700D01*
X48078Y225378D01*
X47400Y225831D01*
X46600Y225990D01*
X45800Y225831D01*
X45122Y225378D01*
X44669Y224700D01*
X44510Y223900D01*
X44669Y223100D01*
X45122Y222422D01*
X45274Y222320D01*
Y217549D01*
X39963Y212237D01*
X39675Y211807D01*
X39575Y211300D01*
Y204200D01*
X39675Y203693D01*
X39963Y203263D01*
X44746Y198480D01*
X44710Y198300D01*
X44746Y198120D01*
X42551Y195925D01*
X29700D01*
X29193Y195825D01*
X28763Y195537D01*
X14951Y181726D01*
X-38400D01*
X-38907Y181625D01*
X-39337Y181337D01*
X-63709Y156966D01*
X-64142Y157214D01*
X-63333Y160330D01*
X-60860Y168317D01*
X-58021Y176181D01*
X-54821Y183905D01*
X-51269Y191473D01*
X-47370Y198869D01*
X-43134Y206077D01*
X-38570Y213082D01*
X-33687Y219868D01*
X-28496Y226422D01*
X-23007Y232729D01*
X-17234Y238776D01*
X-11187Y244549D01*
X-4880Y250038D01*
X1674Y255229D01*
X8460Y260112D01*
X15465Y264676D01*
X22673Y268912D01*
X30069Y272811D01*
X37637Y276363D01*
X45362Y279563D01*
X53225Y282402D01*
X61212Y284875D01*
X69304Y286977D01*
X77485Y288703D01*
X85736Y290049D01*
X94041Y291012D01*
X102381Y291591D01*
X110740Y291784D01*
X119098Y291591D01*
D02*
G37*
%LPC*%
G36*
X135200Y56845D02*
X134704D01*
X133807Y56666D01*
X133046Y56158D01*
X133046Y56158D01*
X125881Y48994D01*
X122421D01*
Y41606D01*
X128587D01*
Y45067D01*
X135793Y52273D01*
X136097Y52333D01*
X136858Y52842D01*
X137367Y53603D01*
X137545Y54500D01*
X137367Y55397D01*
X136858Y56158D01*
X136097Y56666D01*
X135200Y56845D01*
D02*
G37*
G36*
X121580Y48994D02*
X115413D01*
Y47645D01*
X108187D01*
Y48994D01*
X102021D01*
Y41606D01*
X108187D01*
Y42955D01*
X115413D01*
Y41606D01*
X121580D01*
Y48994D01*
D02*
G37*
G36*
X121479Y37594D02*
X115313D01*
Y36145D01*
X108187D01*
Y37494D01*
X102021D01*
Y30106D01*
X108187D01*
Y31455D01*
X115313D01*
Y30206D01*
X121479D01*
Y37594D01*
D02*
G37*
G36*
X-44501Y48486D02*
X-45488Y48443D01*
X-46431Y48146D01*
X-47264Y47615D01*
X-47932Y46887D01*
X-48388Y46010D01*
X-48602Y45045D01*
X-48559Y44058D01*
X-48261Y43116D01*
X-47730Y42282D01*
X-47002Y41615D01*
X-46126Y41159D01*
X-45161Y40945D01*
X-44174Y40988D01*
X-43231Y41285D01*
X-42398Y41816D01*
X-41730Y42544D01*
X-41274Y43421D01*
X-41060Y44385D01*
X-41103Y45373D01*
X-41400Y46315D01*
X-41931Y47148D01*
X-42660Y47816D01*
X-43536Y48272D01*
X-44501Y48486D01*
D02*
G37*
G36*
X-58200Y106285D02*
X-59180Y106156D01*
X-60093Y105778D01*
X-60877Y105176D01*
X-61478Y104393D01*
X-61856Y103480D01*
X-61985Y102500D01*
X-61856Y101520D01*
X-61478Y100607D01*
X-60877Y99823D01*
X-60093Y99222D01*
X-59180Y98844D01*
X-58200Y98715D01*
X-57220Y98844D01*
X-56653Y99079D01*
X-31237Y73663D01*
X-31232Y73659D01*
X-31234Y73209D01*
X-31304Y73106D01*
X-31432Y73106D01*
X-51763Y93437D01*
X-52193Y93725D01*
X-52700Y93826D01*
X-54687D01*
X-54922Y94393D01*
X-55524Y95177D01*
X-56307Y95778D01*
X-57220Y96156D01*
X-58200Y96285D01*
X-59180Y96156D01*
X-60093Y95778D01*
X-60877Y95177D01*
X-61478Y94393D01*
X-61856Y93480D01*
X-61985Y92500D01*
X-61856Y91520D01*
X-61478Y90607D01*
X-60877Y89824D01*
X-60093Y89222D01*
X-59180Y88844D01*
X-58200Y88715D01*
X-57220Y88844D01*
X-56307Y89222D01*
X-55524Y89824D01*
X-54922Y90607D01*
X-54687Y91175D01*
X-53249D01*
X-32935Y70860D01*
X-33086Y70307D01*
X-33123Y70298D01*
X-46263Y83437D01*
X-46693Y83725D01*
X-47200Y83825D01*
X-54447D01*
Y86253D01*
X-61953D01*
Y78747D01*
X-54447D01*
Y81174D01*
X-47749D01*
X-34337Y67763D01*
X-33907Y67475D01*
X-33400Y67374D01*
X36068D01*
X36576Y67475D01*
X37006Y67763D01*
X57604Y88361D01*
X57784Y88326D01*
X58584Y88485D01*
X59262Y88938D01*
X59715Y89616D01*
X59874Y90416D01*
X59715Y91216D01*
X59262Y91894D01*
X58584Y92347D01*
X57784Y92506D01*
X56984Y92347D01*
X56306Y91894D01*
X55853Y91216D01*
X55694Y90416D01*
X55730Y90236D01*
X35519Y70025D01*
X33784D01*
X33632Y70525D01*
X33837Y70663D01*
X54037Y90863D01*
X54155Y91040D01*
X54578Y91322D01*
X55031Y92000D01*
X55190Y92800D01*
X55031Y93600D01*
X54578Y94278D01*
X53900Y94731D01*
X53779Y94755D01*
X53689Y94964D01*
X53627Y95295D01*
X54031Y95900D01*
X54190Y96700D01*
X54031Y97500D01*
X53578Y98178D01*
X52900Y98631D01*
X52100Y98790D01*
X51300Y98631D01*
X50622Y98178D01*
X50169Y97500D01*
X50057Y96937D01*
X29045Y75925D01*
X-29751D01*
X-54779Y100953D01*
X-54544Y101520D01*
X-54415Y102500D01*
X-54544Y103480D01*
X-54922Y104393D01*
X-55524Y105176D01*
X-56307Y105778D01*
X-57220Y106156D01*
X-58200Y106285D01*
D02*
G37*
G36*
X-16426Y143638D02*
X-19644Y143480D01*
X-22831Y143007D01*
X-25957Y142224D01*
X-28991Y141139D01*
X-31904Y139761D01*
X-34668Y138104D01*
X-37256Y136185D01*
X-39644Y134021D01*
X-41808Y131633D01*
X-43727Y129045D01*
X-45384Y126281D01*
X-46762Y123368D01*
X-47847Y120334D01*
X-48630Y117208D01*
X-49103Y114021D01*
X-49261Y110802D01*
X-49103Y107584D01*
X-48630Y104396D01*
X-47847Y101271D01*
X-46762Y98237D01*
X-45384Y95324D01*
X-43727Y92560D01*
X-41808Y89972D01*
X-39644Y87584D01*
X-37256Y85420D01*
X-34668Y83500D01*
X-31904Y81844D01*
X-28991Y80466D01*
X-25957Y79381D01*
X-22831Y78598D01*
X-19644Y78125D01*
X-16426Y77967D01*
X-13207Y78125D01*
X-10020Y78598D01*
X-6894Y79381D01*
X-3860Y80466D01*
X-947Y81844D01*
X1817Y83500D01*
X4405Y85420D01*
X6793Y87584D01*
X8957Y89972D01*
X10876Y92560D01*
X12533Y95324D01*
X13911Y98237D01*
X14996Y101271D01*
X15779Y104396D01*
X16252Y107584D01*
X16410Y110802D01*
X16252Y114021D01*
X15779Y117208D01*
X14996Y120334D01*
X13911Y123368D01*
X12533Y126281D01*
X10876Y129045D01*
X8957Y131633D01*
X6793Y134021D01*
X4405Y136185D01*
X1817Y138104D01*
X-947Y139761D01*
X-3860Y141139D01*
X-6894Y142224D01*
X-10020Y143007D01*
X-13207Y143480D01*
X-16426Y143638D01*
D02*
G37*
G36*
X-48727Y57549D02*
X-49714Y57506D01*
X-50657Y57209D01*
X-51490Y56678D01*
X-52158Y55949D01*
X-52614Y55073D01*
X-52828Y54108D01*
X-52785Y53121D01*
X-52488Y52179D01*
X-51957Y51345D01*
X-51228Y50678D01*
X-50352Y50222D01*
X-49387Y50008D01*
X-48400Y50051D01*
X-47457Y50348D01*
X-46624Y50879D01*
X-45957Y51607D01*
X-45500Y52484D01*
X-45286Y53449D01*
X-45329Y54436D01*
X-45627Y55378D01*
X-46158Y56212D01*
X-46886Y56879D01*
X-47763Y57335D01*
X-48727Y57549D01*
D02*
G37*
G36*
X-52953Y66612D02*
X-53941Y66569D01*
X-54883Y66272D01*
X-55716Y65741D01*
X-56384Y65013D01*
X-56840Y64136D01*
X-57054Y63171D01*
X-57011Y62184D01*
X-56714Y61242D01*
X-56183Y60409D01*
X-55454Y59741D01*
X-54578Y59285D01*
X-53613Y59071D01*
X-52626Y59114D01*
X-51684Y59411D01*
X-50850Y59942D01*
X-50183Y60671D01*
X-49726Y61547D01*
X-49512Y62512D01*
X-49556Y63499D01*
X-49853Y64441D01*
X-50384Y65275D01*
X-51112Y65942D01*
X-51989Y66398D01*
X-52953Y66612D01*
D02*
G37*
G36*
X-40275Y39423D02*
X-41262Y39380D01*
X-42204Y39083D01*
X-43038Y38552D01*
X-43705Y37823D01*
X-44162Y36947D01*
X-44376Y35982D01*
X-44332Y34995D01*
X-44035Y34053D01*
X-43504Y33219D01*
X-42776Y32552D01*
X-41899Y32096D01*
X-40935Y31882D01*
X-39947Y31925D01*
X-39005Y32222D01*
X-38172Y32753D01*
X-37504Y33481D01*
X-37048Y34358D01*
X-36834Y35322D01*
X-36877Y36310D01*
X-37174Y37252D01*
X-37705Y38085D01*
X-38434Y38753D01*
X-39310Y39209D01*
X-40275Y39423D01*
D02*
G37*
G36*
X0Y12650D02*
X-1979Y12494D01*
X-3909Y12031D01*
X-5743Y11271D01*
X-7435Y10234D01*
X-8945Y8945D01*
X-10234Y7435D01*
X-11271Y5743D01*
X-12031Y3909D01*
X-12494Y1979D01*
X-12650Y0D01*
X-12494Y-1979D01*
X-12031Y-3909D01*
X-11271Y-5743D01*
X-10234Y-7435D01*
X-8945Y-8945D01*
X-7435Y-10234D01*
X-5743Y-11271D01*
X-3909Y-12031D01*
X-1979Y-12494D01*
X0Y-12650D01*
X1979Y-12494D01*
X3909Y-12031D01*
X5743Y-11271D01*
X7435Y-10234D01*
X8945Y-8945D01*
X10234Y-7435D01*
X11271Y-5743D01*
X12031Y-3909D01*
X12494Y-1979D01*
X12650Y0D01*
X12494Y1979D01*
X12031Y3909D01*
X11271Y5743D01*
X10234Y7435D01*
X8945Y8945D01*
X7435Y10234D01*
X5743Y11271D01*
X3909Y12031D01*
X1979Y12494D01*
X0Y12650D01*
D02*
G37*
G36*
X-21885Y4387D02*
X-28687Y1215D01*
X-25515Y-5587D01*
X-18713Y-2415D01*
X-21885Y4387D01*
D02*
G37*
G36*
X110740Y16473D02*
X107521Y16314D01*
X104334Y15842D01*
X101208Y15059D01*
X98174Y13973D01*
X95261Y12595D01*
X92497Y10939D01*
X89909Y9019D01*
X87521Y6855D01*
X85357Y4468D01*
X83438Y1879D01*
X81781Y-884D01*
X80404Y-3797D01*
X79318Y-6831D01*
X78535Y-9957D01*
X78062Y-13145D01*
X77904Y-16363D01*
X78062Y-19581D01*
X78535Y-22769D01*
X79318Y-25895D01*
X80404Y-28929D01*
X81781Y-31842D01*
X83438Y-34606D01*
X85357Y-37194D01*
X87521Y-39581D01*
X89909Y-41745D01*
X92497Y-43665D01*
X95261Y-45322D01*
X98174Y-46699D01*
X101208Y-47785D01*
X104334Y-48568D01*
X107521Y-49041D01*
X110740Y-49199D01*
X113958Y-49041D01*
X117146Y-48568D01*
X120272Y-47785D01*
X123305Y-46699D01*
X126218Y-45322D01*
X128982Y-43665D01*
X131570Y-41745D01*
X133958Y-39581D01*
X136122Y-37194D01*
X138042Y-34606D01*
X139698Y-31842D01*
X141076Y-28929D01*
X142162Y-25895D01*
X142945Y-22769D01*
X143417Y-19581D01*
X143575Y-16363D01*
X143417Y-13145D01*
X142945Y-9957D01*
X142162Y-6831D01*
X141076Y-3797D01*
X139698Y-884D01*
X138042Y1879D01*
X136122Y4468D01*
X133958Y6855D01*
X131570Y9019D01*
X128982Y10939D01*
X126218Y12595D01*
X123305Y13973D01*
X120272Y15059D01*
X117146Y15842D01*
X113958Y16314D01*
X110740Y16473D01*
D02*
G37*
G36*
X31566Y-21874D02*
X27813Y-28374D01*
X34313Y-32126D01*
X38066Y-25626D01*
X31566Y-21874D01*
D02*
G37*
G36*
X-27596Y12234D02*
X-28583Y12191D01*
X-29526Y11894D01*
X-30359Y11363D01*
X-31027Y10634D01*
X-31483Y9758D01*
X-31697Y8793D01*
X-31654Y7806D01*
X-31357Y6863D01*
X-30826Y6030D01*
X-30097Y5362D01*
X-29221Y4906D01*
X-28256Y4692D01*
X-27269Y4735D01*
X-26327Y5033D01*
X-25493Y5564D01*
X-24826Y6292D01*
X-24369Y7169D01*
X-24155Y8133D01*
X-24199Y9120D01*
X-24496Y10063D01*
X-25027Y10896D01*
X-25755Y11564D01*
X-26632Y12020D01*
X-27596Y12234D01*
D02*
G37*
G36*
X-36049Y30360D02*
X-37036Y30317D01*
X-37978Y30020D01*
X-38812Y29489D01*
X-39479Y28760D01*
X-39935Y27884D01*
X-40149Y26919D01*
X-40106Y25932D01*
X-39809Y24990D01*
X-39278Y24156D01*
X-38550Y23489D01*
X-37673Y23032D01*
X-36708Y22818D01*
X-35721Y22862D01*
X-34779Y23159D01*
X-33946Y23690D01*
X-33278Y24418D01*
X-32822Y25295D01*
X-32608Y26259D01*
X-32651Y27246D01*
X-32948Y28189D01*
X-33479Y29022D01*
X-34207Y29690D01*
X-35084Y30146D01*
X-36049Y30360D01*
D02*
G37*
G36*
X259826Y37626D02*
X256074Y31126D01*
X262574Y27374D01*
X266326Y33874D01*
X259826Y37626D01*
D02*
G37*
G36*
X101180Y48994D02*
X95013D01*
Y41606D01*
X95272D01*
Y37494D01*
X95013D01*
Y30106D01*
X95272D01*
Y28604D01*
X95368Y27873D01*
X95650Y27192D01*
X96099Y26607D01*
X104003Y18703D01*
X104588Y18254D01*
X105269Y17972D01*
X106000Y17876D01*
X152546D01*
X152793Y17376D01*
X152400Y16864D01*
X151923Y15712D01*
X151760Y14475D01*
X151923Y13239D01*
X152400Y12086D01*
X153160Y11097D01*
X154149Y10338D01*
X155301Y9860D01*
X156538Y9697D01*
X157775Y9860D01*
X158927Y10338D01*
X167451Y15259D01*
X168440Y16018D01*
X169200Y17008D01*
X169677Y18160D01*
X169840Y19397D01*
X169677Y20633D01*
X169200Y21786D01*
X168440Y22775D01*
X167451Y23534D01*
X166299Y24012D01*
X165062Y24174D01*
X163825Y24012D01*
X162673Y23534D01*
X159834Y21895D01*
X159033Y22697D01*
X158448Y23146D01*
X157767Y23428D01*
X157036Y23524D01*
X107170D01*
X101088Y29606D01*
X101180Y30106D01*
X101180D01*
Y37494D01*
X100920D01*
Y41606D01*
X101180D01*
Y48994D01*
D02*
G37*
G36*
X-31822Y21297D02*
X-32810Y21254D01*
X-33752Y20957D01*
X-34585Y20426D01*
X-35253Y19697D01*
X-35709Y18821D01*
X-35923Y17856D01*
X-35880Y16869D01*
X-35583Y15926D01*
X-35052Y15093D01*
X-34323Y14426D01*
X-33447Y13969D01*
X-32482Y13755D01*
X-31495Y13799D01*
X-30553Y14096D01*
X-29719Y14627D01*
X-29052Y15355D01*
X-28596Y16232D01*
X-28382Y17196D01*
X-28425Y18183D01*
X-28722Y19126D01*
X-29253Y19959D01*
X-29981Y20627D01*
X-30858Y21083D01*
X-31822Y21297D01*
D02*
G37*
G36*
X237905Y143638D02*
X234687Y143480D01*
X231499Y143007D01*
X228374Y142224D01*
X225340Y141139D01*
X222427Y139761D01*
X219663Y138104D01*
X217074Y136185D01*
X214687Y134021D01*
X212523Y131633D01*
X210603Y129045D01*
X208947Y126281D01*
X207569Y123368D01*
X206484Y120334D01*
X205700Y117208D01*
X205228Y114021D01*
X205070Y110802D01*
X205228Y107584D01*
X205700Y104396D01*
X206484Y101271D01*
X207569Y98237D01*
X208947Y95324D01*
X210603Y92560D01*
X212523Y89972D01*
X214687Y87584D01*
X217074Y85420D01*
X219663Y83500D01*
X222427Y81844D01*
X225340Y80466D01*
X228374Y79381D01*
X231499Y78598D01*
X234687Y78125D01*
X237905Y77967D01*
X241124Y78125D01*
X244311Y78598D01*
X247437Y79381D01*
X250471Y80466D01*
X253384Y81844D01*
X256148Y83500D01*
X258736Y85420D01*
X261123Y87584D01*
X263287Y89972D01*
X265207Y92560D01*
X266864Y95324D01*
X268241Y98237D01*
X269327Y101271D01*
X270110Y104396D01*
X270583Y107584D01*
X270741Y110802D01*
X270583Y114021D01*
X270110Y117208D01*
X269327Y120334D01*
X268241Y123368D01*
X266864Y126281D01*
X265207Y129045D01*
X263287Y131633D01*
X261123Y134021D01*
X258736Y136185D01*
X256148Y138104D01*
X253384Y139761D01*
X250471Y141139D01*
X247437Y142224D01*
X244311Y143007D01*
X241124Y143480D01*
X237905Y143638D01*
D02*
G37*
G36*
X19053Y261242D02*
X18089Y261028D01*
X17212Y260572D01*
X16484Y259905D01*
X15953Y259071D01*
X15655Y258129D01*
X15612Y257142D01*
X15826Y256177D01*
X16282Y255300D01*
X16950Y254572D01*
X17175Y254429D01*
Y217800D01*
X17275Y217293D01*
X17563Y216863D01*
X35646Y198780D01*
X35610Y198600D01*
X35769Y197800D01*
X36222Y197122D01*
X36900Y196669D01*
X37700Y196510D01*
X38500Y196669D01*
X39178Y197122D01*
X39631Y197800D01*
X39790Y198600D01*
X39631Y199400D01*
X39178Y200078D01*
X38500Y200531D01*
X37700Y200690D01*
X37520Y200654D01*
X19826Y218349D01*
Y253726D01*
X20678Y253915D01*
X21554Y254371D01*
X22283Y255038D01*
X22814Y255872D01*
X23111Y256814D01*
X23154Y257801D01*
X22940Y258766D01*
X22484Y259643D01*
X21816Y260371D01*
X20983Y260902D01*
X20040Y261199D01*
X19053Y261242D01*
D02*
G37*
G36*
X-32500Y207906D02*
X-33480Y207777D01*
X-34393Y207399D01*
X-35177Y206797D01*
X-35778Y206013D01*
X-36156Y205100D01*
X-36285Y204120D01*
X-36156Y203141D01*
X-35778Y202228D01*
X-35177Y201444D01*
X-34393Y200842D01*
X-33480Y200464D01*
X-32500Y200335D01*
X-31520Y200464D01*
X-30607Y200842D01*
X-29823Y201444D01*
X-29222Y202228D01*
X-28844Y203141D01*
X-28715Y204120D01*
X-28844Y205100D01*
X-29222Y206013D01*
X-29823Y206797D01*
X-30607Y207399D01*
X-31520Y207777D01*
X-32500Y207906D01*
D02*
G37*
G36*
X10862Y255506D02*
X9897Y255293D01*
X9020Y254836D01*
X8292Y254169D01*
X7761Y253335D01*
X7464Y252393D01*
X7421Y251406D01*
X7635Y250441D01*
X8091Y249565D01*
X8759Y248836D01*
X9592Y248305D01*
X10534Y248008D01*
X11521Y247965D01*
X12486Y248179D01*
X12741Y248312D01*
X13974Y247078D01*
Y187380D01*
X13822Y187278D01*
X13369Y186600D01*
X13210Y185800D01*
X13369Y185000D01*
X13822Y184322D01*
X14500Y183869D01*
X15300Y183710D01*
X16100Y183869D01*
X16778Y184322D01*
X17231Y185000D01*
X17390Y185800D01*
X17231Y186600D01*
X16778Y187278D01*
X16625Y187380D01*
Y247627D01*
X16525Y248134D01*
X16237Y248565D01*
X14633Y250169D01*
X14919Y251079D01*
X14962Y252066D01*
X14748Y253030D01*
X14292Y253907D01*
X13624Y254635D01*
X12791Y255166D01*
X11849Y255463D01*
X10862Y255506D01*
D02*
G37*
G36*
X-37500Y199245D02*
X-38480Y199116D01*
X-39393Y198738D01*
X-40176Y198137D01*
X-40778Y197353D01*
X-41156Y196440D01*
X-41285Y195460D01*
X-41156Y194481D01*
X-40778Y193568D01*
X-40176Y192784D01*
X-39393Y192182D01*
X-38480Y191804D01*
X-37500Y191675D01*
X-36520Y191804D01*
X-35607Y192182D01*
X-34824Y192784D01*
X-34222Y193568D01*
X-33844Y194481D01*
X-33715Y195460D01*
X-33844Y196440D01*
X-34222Y197353D01*
X-34824Y198137D01*
X-35607Y198738D01*
X-36520Y199116D01*
X-37500Y199245D01*
D02*
G37*
G36*
X110740Y270803D02*
X107521Y270645D01*
X104334Y270173D01*
X101208Y269390D01*
X98174Y268304D01*
X95261Y266926D01*
X92497Y265270D01*
X89909Y263350D01*
X87521Y261186D01*
X85357Y258799D01*
X83438Y256210D01*
X81781Y253446D01*
X80404Y250533D01*
X79318Y247499D01*
X78535Y244374D01*
X78062Y241186D01*
X77904Y237968D01*
X78062Y234749D01*
X78535Y231562D01*
X79318Y228436D01*
X80404Y225402D01*
X81781Y222489D01*
X83438Y219725D01*
X85357Y217137D01*
X87521Y214750D01*
X89909Y212585D01*
X92497Y210666D01*
X95261Y209009D01*
X98174Y207632D01*
X101208Y206546D01*
X104334Y205763D01*
X107521Y205290D01*
X110740Y205132D01*
X113958Y205290D01*
X117146Y205763D01*
X120272Y206546D01*
X123305Y207632D01*
X126218Y209009D01*
X128982Y210666D01*
X131570Y212585D01*
X133958Y214750D01*
X136122Y217137D01*
X138042Y219725D01*
X139698Y222489D01*
X141076Y225402D01*
X142162Y228436D01*
X142945Y231562D01*
X143417Y234749D01*
X143575Y237968D01*
X143417Y241186D01*
X142945Y244374D01*
X142162Y247499D01*
X141076Y250533D01*
X139698Y253446D01*
X138042Y256210D01*
X136122Y258799D01*
X133958Y261186D01*
X131570Y263350D01*
X128982Y265270D01*
X126218Y266926D01*
X123305Y268304D01*
X120272Y269390D01*
X117146Y270173D01*
X113958Y270645D01*
X110740Y270803D01*
D02*
G37*
G36*
X69044Y282047D02*
X61653Y280744D01*
X62480Y276054D01*
X38063Y251637D01*
X37775Y251207D01*
X37674Y250700D01*
Y216580D01*
X37522Y216478D01*
X37069Y215800D01*
X36910Y215000D01*
X37069Y214200D01*
X37522Y213522D01*
X38200Y213069D01*
X39000Y212910D01*
X39800Y213069D01*
X40478Y213522D01*
X40931Y214200D01*
X41090Y215000D01*
X40931Y215800D01*
X40478Y216478D01*
X40325Y216580D01*
Y250151D01*
X63649Y273475D01*
X70347Y274656D01*
X69044Y282047D01*
D02*
G37*
G36*
X3922Y251227D02*
X-2227Y246922D01*
X-1908Y246467D01*
X-17337Y231037D01*
X-17625Y230607D01*
X-17726Y230100D01*
Y203008D01*
X-18067Y202497D01*
X-18245Y201600D01*
X-18067Y200703D01*
X-17726Y200192D01*
Y193049D01*
X-22649Y188126D01*
X-37346D01*
X-37374Y188174D01*
Y188174D01*
X-43874Y191926D01*
X-47626Y185426D01*
X-41126Y181674D01*
X-38932Y185475D01*
X-22100D01*
X-21593Y185575D01*
X-21163Y185863D01*
X-15463Y191563D01*
X-15175Y191993D01*
X-15075Y192500D01*
Y199097D01*
X-15008Y199432D01*
X-15003Y199433D01*
X-14242Y199942D01*
X-13733Y200703D01*
X-13555Y201600D01*
X-13733Y202497D01*
X-14242Y203258D01*
X-15003Y203767D01*
X-15075Y203781D01*
Y229551D01*
X-639Y243987D01*
X-141Y243943D01*
X2078Y240773D01*
X8227Y245078D01*
X3922Y251227D01*
D02*
G37*
G36*
X-100Y234250D02*
X-2079Y234094D01*
X-4009Y233631D01*
X-5843Y232871D01*
X-7536Y231834D01*
X-9045Y230545D01*
X-10334Y229035D01*
X-11371Y227343D01*
X-12131Y225509D01*
X-12594Y223579D01*
X-12750Y221600D01*
X-12594Y219621D01*
X-12131Y217691D01*
X-11371Y215857D01*
X-10334Y214164D01*
X-9045Y212655D01*
X-7536Y211366D01*
X-5843Y210329D01*
X-4009Y209569D01*
X-2079Y209106D01*
X-100Y208950D01*
X1879Y209106D01*
X3809Y209569D01*
X5643Y210329D01*
X7335Y211366D01*
X8845Y212655D01*
X10134Y214164D01*
X11171Y215857D01*
X11931Y217691D01*
X12394Y219621D01*
X12550Y221600D01*
X12394Y223579D01*
X11931Y225509D01*
X11171Y227343D01*
X10134Y229035D01*
X8845Y230545D01*
X7335Y231834D01*
X5643Y232871D01*
X3809Y233631D01*
X1879Y234094D01*
X-100Y234250D01*
D02*
G37*
G36*
X221500D02*
X219521Y234094D01*
X217591Y233631D01*
X215757Y232871D01*
X214065Y231834D01*
X212555Y230545D01*
X211266Y229035D01*
X210229Y227343D01*
X209469Y225509D01*
X209006Y223579D01*
X208850Y221600D01*
X209006Y219621D01*
X209469Y217691D01*
X210229Y215857D01*
X211266Y214164D01*
X212555Y212655D01*
X214065Y211366D01*
X215757Y210329D01*
X217591Y209569D01*
X219521Y209106D01*
X221500Y208950D01*
X223479Y209106D01*
X225409Y209569D01*
X227243Y210329D01*
X228936Y211366D01*
X230445Y212655D01*
X231734Y214164D01*
X232771Y215857D01*
X233531Y217691D01*
X233994Y219621D01*
X234150Y221600D01*
X233994Y223579D01*
X233531Y225509D01*
X232771Y227343D01*
X231734Y229035D01*
X230445Y230545D01*
X228936Y231834D01*
X227243Y232871D01*
X225409Y233631D01*
X223479Y234094D01*
X221500Y234250D01*
D02*
G37*
G36*
X120080Y176594D02*
X113913D01*
Y174735D01*
X110087D01*
Y176594D01*
X103920D01*
Y169206D01*
X110087D01*
Y171065D01*
X113913D01*
Y169206D01*
X120080D01*
Y176594D01*
D02*
G37*
G36*
X95100Y122688D02*
X94223Y122573D01*
X93406Y122234D01*
X92704Y121696D01*
X92166Y120994D01*
X91827Y120177D01*
X91712Y119300D01*
X91827Y118423D01*
X92166Y117606D01*
X92704Y116904D01*
X93406Y116366D01*
X94223Y116027D01*
X95100Y115912D01*
X95977Y116027D01*
X96794Y116366D01*
X97496Y116904D01*
X98034Y117606D01*
X98373Y118423D01*
X98488Y119300D01*
X98373Y120177D01*
X98034Y120994D01*
X97496Y121696D01*
X96794Y122234D01*
X95977Y122573D01*
X95100Y122688D01*
D02*
G37*
G36*
X127300D02*
X126423Y122573D01*
X125606Y122234D01*
X124904Y121696D01*
X124366Y120994D01*
X124027Y120177D01*
X123912Y119300D01*
X124027Y118423D01*
X124366Y117606D01*
X124904Y116904D01*
X125606Y116366D01*
X126423Y116027D01*
X127300Y115912D01*
X128177Y116027D01*
X128994Y116366D01*
X129696Y116904D01*
X130234Y117606D01*
X130573Y118423D01*
X130688Y119300D01*
X130573Y120177D01*
X130234Y120994D01*
X129696Y121696D01*
X128994Y122234D01*
X128177Y122573D01*
X127300Y122688D01*
D02*
G37*
G36*
X127200Y100988D02*
X126323Y100873D01*
X125506Y100534D01*
X124804Y99996D01*
X124266Y99294D01*
X123927Y98477D01*
X123812Y97600D01*
X123927Y96723D01*
X124266Y95906D01*
X124804Y95204D01*
X125506Y94666D01*
X126323Y94327D01*
X127200Y94212D01*
X128077Y94327D01*
X128894Y94666D01*
X129596Y95204D01*
X130134Y95906D01*
X130473Y96723D01*
X130588Y97600D01*
X130473Y98477D01*
X130134Y99294D01*
X129596Y99996D01*
X128894Y100534D01*
X128077Y100873D01*
X127200Y100988D01*
D02*
G37*
G36*
X-58200Y116285D02*
X-59180Y116156D01*
X-60093Y115778D01*
X-60877Y115176D01*
X-61478Y114393D01*
X-61856Y113480D01*
X-61985Y112500D01*
X-61856Y111520D01*
X-61478Y110607D01*
X-60877Y109824D01*
X-60093Y109222D01*
X-59180Y108844D01*
X-58200Y108715D01*
X-57220Y108844D01*
X-56307Y109222D01*
X-55524Y109824D01*
X-54922Y110607D01*
X-54544Y111520D01*
X-54415Y112500D01*
X-54544Y113480D01*
X-54922Y114393D01*
X-55524Y115176D01*
X-56307Y115778D01*
X-57220Y116156D01*
X-58200Y116285D01*
D02*
G37*
G36*
Y126285D02*
X-59180Y126156D01*
X-60093Y125778D01*
X-60877Y125177D01*
X-61478Y124393D01*
X-61856Y123480D01*
X-61985Y122500D01*
X-61856Y121520D01*
X-61478Y120607D01*
X-60877Y119824D01*
X-60093Y119222D01*
X-59180Y118844D01*
X-58200Y118715D01*
X-57220Y118844D01*
X-56307Y119222D01*
X-55524Y119824D01*
X-54922Y120607D01*
X-54544Y121520D01*
X-54415Y122500D01*
X-54544Y123480D01*
X-54922Y124393D01*
X-55524Y125177D01*
X-56307Y125778D01*
X-57220Y126156D01*
X-58200Y126285D01*
D02*
G37*
G36*
X96100Y177390D02*
X95300Y177231D01*
X94622Y176778D01*
X94169Y176100D01*
X94010Y175300D01*
X94169Y174500D01*
X94622Y173822D01*
X95300Y173369D01*
X96100Y173210D01*
X96413Y173272D01*
X96913Y172862D01*
Y169206D01*
X103079D01*
Y176594D01*
X98896D01*
X98894Y176598D01*
X98298Y176996D01*
X97596Y177135D01*
X97043D01*
X96900Y177231D01*
X96100Y177390D01*
D02*
G37*
G36*
X31100Y175390D02*
X30300Y175231D01*
X29622Y174778D01*
X29169Y174100D01*
X29010Y173300D01*
X29169Y172500D01*
X29347Y172234D01*
X28986Y171873D01*
X28900Y171931D01*
X28100Y172090D01*
X27300Y171931D01*
X26622Y171478D01*
X26169Y170800D01*
X26010Y170000D01*
X26169Y169200D01*
X26520Y168675D01*
Y163500D01*
X26066Y163407D01*
X26020Y163417D01*
X25578Y164078D01*
X24900Y164531D01*
X24100Y164690D01*
X23300Y164531D01*
X22622Y164078D01*
X22169Y163400D01*
X22010Y162600D01*
X22169Y161800D01*
X22520Y161275D01*
Y125500D01*
X22640Y124895D01*
X22983Y124382D01*
X45882Y101482D01*
X46395Y101140D01*
X47000Y101020D01*
X93245D01*
X93392Y100569D01*
X93387Y100520D01*
X92704Y99996D01*
X92166Y99294D01*
X91827Y98477D01*
X91712Y97600D01*
X91827Y96723D01*
X92166Y95906D01*
X92704Y95204D01*
X93406Y94666D01*
X94223Y94327D01*
X95100Y94212D01*
X95977Y94327D01*
X96794Y94666D01*
X97496Y95204D01*
X98034Y95906D01*
X98373Y96723D01*
X98488Y97600D01*
X98373Y98477D01*
X98034Y99294D01*
X97496Y99996D01*
X96813Y100520D01*
X96808Y100569D01*
X96955Y101020D01*
X99445D01*
X101874Y98590D01*
X101827Y98477D01*
X101712Y97600D01*
X101827Y96723D01*
X102166Y95906D01*
X102704Y95204D01*
X103406Y94666D01*
X104223Y94327D01*
X105100Y94212D01*
X105977Y94327D01*
X106794Y94666D01*
X107496Y95204D01*
X108034Y95906D01*
X108373Y96723D01*
X108488Y97600D01*
X108373Y98477D01*
X108034Y99294D01*
X107496Y99996D01*
X106794Y100534D01*
X105977Y100873D01*
X105100Y100988D01*
X104223Y100873D01*
X104110Y100826D01*
X101217Y103718D01*
X100915Y103920D01*
X101067Y104420D01*
X108145D01*
X113974Y98590D01*
X113927Y98477D01*
X113812Y97600D01*
X113927Y96723D01*
X114266Y95906D01*
X114804Y95204D01*
X115506Y94666D01*
X116323Y94327D01*
X117200Y94212D01*
X118077Y94327D01*
X118894Y94666D01*
X119596Y95204D01*
X120134Y95906D01*
X120473Y96723D01*
X120588Y97600D01*
X120473Y98477D01*
X120134Y99294D01*
X119596Y99996D01*
X118894Y100534D01*
X118077Y100873D01*
X117200Y100988D01*
X116323Y100873D01*
X116209Y100826D01*
X109917Y107117D01*
X109405Y107460D01*
X108800Y107580D01*
X50855D01*
X29680Y128755D01*
Y168675D01*
X30031Y169200D01*
X30190Y170000D01*
X30031Y170800D01*
X29853Y171066D01*
X30213Y171427D01*
X30300Y171369D01*
X30919Y171246D01*
X32820Y169345D01*
Y129400D01*
X32940Y128795D01*
X33283Y128282D01*
X52982Y108582D01*
X53495Y108240D01*
X54100Y108120D01*
X107700D01*
X108305Y108240D01*
X108818Y108582D01*
X116309Y116075D01*
X116423Y116027D01*
X117300Y115912D01*
X118177Y116027D01*
X118994Y116366D01*
X119696Y116904D01*
X120234Y117606D01*
X120573Y118423D01*
X120688Y119300D01*
X120573Y120177D01*
X120234Y120994D01*
X119696Y121696D01*
X118994Y122234D01*
X118177Y122573D01*
X117300Y122688D01*
X116423Y122573D01*
X115606Y122234D01*
X114904Y121696D01*
X114366Y120994D01*
X114027Y120177D01*
X113912Y119300D01*
X114027Y118423D01*
X114075Y118309D01*
X107045Y111280D01*
X54755D01*
X35980Y130055D01*
Y170000D01*
X35860Y170605D01*
X35517Y171117D01*
X33154Y173481D01*
X33031Y174100D01*
X32578Y174778D01*
X31900Y175231D01*
X31100Y175390D01*
D02*
G37*
G36*
X103079Y166894D02*
X96913D01*
Y159506D01*
X97172D01*
Y158104D01*
X97268Y157373D01*
X97550Y156692D01*
X97999Y156107D01*
X101972Y152134D01*
X101985Y152039D01*
X102317Y151236D01*
X102846Y150546D01*
X103536Y150017D01*
X104339Y149685D01*
X105200Y149572D01*
X106061Y149685D01*
X106864Y150017D01*
X107554Y150546D01*
X108082Y151236D01*
X108415Y152039D01*
X108528Y152900D01*
X108415Y153761D01*
X108082Y154564D01*
X107554Y155254D01*
X106864Y155782D01*
X106061Y156115D01*
X105966Y156128D01*
X103085Y159009D01*
X103079Y159506D01*
X103079Y159506D01*
X103079Y159506D01*
Y166894D01*
D02*
G37*
G36*
X120379Y166994D02*
X114213D01*
Y165035D01*
X110087D01*
Y166894D01*
X103920D01*
Y159506D01*
X110087D01*
Y161365D01*
X114213D01*
Y159606D01*
X120379D01*
Y166994D01*
D02*
G37*
%LPD*%
D10*
X99996Y163200D02*
D03*
X107004D02*
D03*
X99996Y172900D02*
D03*
X107004D02*
D03*
X124304Y163300D02*
D03*
X117296D02*
D03*
X124004Y172900D02*
D03*
X116996D02*
D03*
X98096Y33800D02*
D03*
X105104D02*
D03*
X98096Y45300D02*
D03*
X105104D02*
D03*
X125404Y33900D02*
D03*
X118396D02*
D03*
X125504Y45300D02*
D03*
X118496D02*
D03*
D11*
X39000Y215000D02*
Y250700D01*
X66000Y277700D01*
X48400Y207200D02*
X73000Y231800D01*
X44600Y210000D02*
X70700Y236100D01*
X73000Y231800D02*
Y254400D01*
X85696Y267096D01*
Y281173D01*
X70700Y236100D02*
Y256100D01*
X75848Y261248D01*
Y279436D01*
X46600Y217000D02*
Y223900D01*
X40900Y211300D02*
X46600Y217000D01*
X40900Y204200D02*
Y211300D01*
Y204200D02*
X46800Y198300D01*
X56950Y192650D02*
X57100Y192500D01*
X43100Y194600D02*
X46800Y198300D01*
X-58200Y152500D02*
Y157300D01*
X-37400Y178100D01*
X-39100Y171700D02*
X-34800Y176000D01*
X-42500Y163400D02*
X-32300Y173600D01*
X-58200Y142500D02*
X-29900Y170800D01*
X29700Y194600D02*
X43100D01*
X15500Y180400D02*
X29700Y194600D01*
X31050Y192650D02*
X56950D01*
X-37400Y178100D02*
X16500D01*
X31050Y192650D01*
X31000Y189800D02*
X42100D01*
X-34800Y176000D02*
X17200D01*
X31000Y189800D01*
X-32300Y173600D02*
X17900D01*
X-29900Y170800D02*
X18500D01*
X-58200Y102500D02*
X-30300Y74600D01*
X-58200Y92500D02*
X-52700D01*
X-31800Y71600D01*
X-58200Y82500D02*
X-47200D01*
X-33400Y68700D01*
X180440Y265940D02*
X180906D01*
X59500Y158100D02*
Y163000D01*
X70900Y148200D02*
Y165400D01*
X74600Y151500D02*
Y165900D01*
X78700Y154300D02*
Y166900D01*
X98200Y195800D02*
X127988D01*
X70900Y165400D02*
X99000Y193500D01*
X74600Y165900D02*
X100000Y191300D01*
X78700Y166900D02*
X101000Y189200D01*
X81300Y166500D02*
X102000Y187200D01*
X96300Y202700D02*
X125400D01*
X97100Y200600D02*
X126500D01*
X148600Y222700D01*
X102000Y187200D02*
X131100D01*
X199700Y255800D01*
Y259100D01*
X101000Y189200D02*
X130300D01*
X100000Y191300D02*
X129100D01*
X99000Y193500D02*
X128500D01*
X143318Y279621D02*
X148600Y274340D01*
Y222700D02*
Y274340D01*
X125400Y202700D02*
X146400Y223700D01*
X162112Y229924D02*
Y272781D01*
X171509Y236509D02*
Y269361D01*
X130300Y189200D02*
X190303Y249203D01*
Y262520D01*
X129100Y191300D02*
X180440Y242640D01*
Y265940D01*
X128500Y193500D02*
X171509Y236509D01*
X127988Y195800D02*
X162112Y229924D01*
X127100Y198200D02*
X152715Y223815D01*
Y276201D01*
X133922Y281178D02*
Y283041D01*
Y281178D02*
X146400Y268700D01*
Y223700D02*
Y268700D01*
X-30300Y74600D02*
X29594D01*
X-31800Y71600D02*
X32900D01*
X52800Y164000D02*
X58700Y169900D01*
X52800Y148900D02*
Y164000D01*
Y148900D02*
X65300Y136400D01*
X50500Y166600D02*
X57400Y173500D01*
X50500Y145100D02*
Y166600D01*
X64900Y130700D02*
X68300D01*
X50500Y145100D02*
X64900Y130700D01*
X29594Y74600D02*
X51695Y96700D01*
X52100D01*
X-33400Y68700D02*
X36068D01*
X57784Y90416D01*
X17900Y173600D02*
X25000Y180700D01*
X41600D01*
X50900Y190000D01*
X18500Y170800D02*
X26100Y178400D01*
X81300Y158300D02*
Y166500D01*
X32900Y71600D02*
X53100Y91800D01*
Y92800D01*
X59500Y163000D02*
X97100Y200600D01*
X55600Y162000D02*
X96300Y202700D01*
X57400Y173500D02*
X62500D01*
X50500Y178400D02*
X53100Y175800D01*
X26100Y178400D02*
X50500D01*
X-500Y246000D02*
X3000D01*
X-16400Y230100D02*
X-500Y246000D01*
X-22100Y186800D02*
X-16400Y192500D01*
X-42500Y186800D02*
X-22100D01*
X-16400Y199700D02*
X-16300Y199600D01*
X-16400Y192500D02*
Y199700D01*
X15300Y185800D02*
Y247627D01*
X11191Y251736D02*
X15300Y247627D01*
X18500Y256589D02*
X19383Y257471D01*
X18500Y217800D02*
Y256589D01*
Y217800D02*
X37700Y198600D01*
X-16400Y199700D02*
Y230100D01*
X97800Y198200D02*
X127100D01*
X62400Y162000D02*
Y162800D01*
X97800Y198200D01*
X67100Y164700D02*
X98200Y195800D01*
X67100Y158000D02*
Y164700D01*
X-63700Y138000D02*
X-58200Y132500D01*
X-38400Y180400D02*
X15500D01*
X-63700Y138000D02*
Y155052D01*
X-63591Y155161D01*
Y155209D01*
X-38400Y180400D01*
D12*
X24100Y125500D02*
Y162600D01*
X30700Y173300D02*
X31100D01*
X34400Y170000D01*
Y129400D02*
Y170000D01*
X24100Y125500D02*
X47000Y102600D01*
X100100D01*
X105100Y97600D01*
X50200Y106000D02*
X108800D01*
X117200Y97600D01*
X105100Y118100D02*
Y119300D01*
X100600Y113600D02*
X105100Y118100D01*
X34400Y129400D02*
X54100Y109700D01*
X107700D01*
X117300Y119300D01*
X48100Y123900D02*
X58400Y113600D01*
X100600D01*
X48100Y123900D02*
Y171900D01*
X50200Y174000D01*
X28100Y128100D02*
Y170000D01*
Y128100D02*
X50200Y106000D01*
D13*
X96100Y175300D02*
X97596D01*
X107004Y172900D02*
X116996D01*
X107004Y163200D02*
X117296D01*
D14*
X105104Y45300D02*
X118496D01*
X105104Y33800D02*
X118296D01*
X125504Y45300D02*
X134704Y54500D01*
X135200D01*
X125404Y26596D02*
Y33900D01*
D15*
X98096Y33800D02*
Y45300D01*
Y28604D02*
Y33800D01*
Y28604D02*
X106000Y20700D01*
X157036D01*
X160800Y16936D01*
X92400Y73700D02*
Y76700D01*
X97500Y81800D01*
X155800D02*
X170500Y67100D01*
X119400Y73700D02*
Y81100D01*
X97500Y81800D02*
X155800D01*
X99996Y158104D02*
Y163200D01*
Y158104D02*
X105200Y152900D01*
D16*
X221500Y221600D02*
D03*
X-100D02*
D03*
X0Y0D02*
D03*
X221500D02*
D03*
D17*
X105100Y119300D02*
D03*
X95100D02*
D03*
X117200Y97600D02*
D03*
X127200D02*
D03*
X105100D02*
D03*
X95100D02*
D03*
X117300Y119300D02*
D03*
X127300D02*
D03*
D18*
X102400Y73700D02*
D03*
X129400D02*
D03*
X256200Y23840D02*
D03*
X41600Y-32000D02*
D03*
X50260Y-37000D02*
D03*
X-53283Y62841D02*
D03*
X-49057Y53778D02*
D03*
X-44831Y44715D02*
D03*
X-40605Y35652D02*
D03*
X-36379Y26589D02*
D03*
X-32152Y17526D02*
D03*
X-27926Y8463D02*
D03*
X-58200Y152500D02*
D03*
Y142500D02*
D03*
Y132500D02*
D03*
Y122500D02*
D03*
Y112500D02*
D03*
Y102500D02*
D03*
Y92500D02*
D03*
X-27500Y212781D02*
D03*
X-32500Y204120D02*
D03*
X-37500Y195460D02*
D03*
X27575Y263207D02*
D03*
X19383Y257471D02*
D03*
X11191Y251736D02*
D03*
X75848Y279436D02*
D03*
X85696Y281173D02*
D03*
X133922Y283041D02*
D03*
X143318Y279621D02*
D03*
X152715Y276201D02*
D03*
X162112Y272781D02*
D03*
X171509Y269361D02*
D03*
X180906Y265940D02*
D03*
X190303Y262520D02*
D03*
D19*
X92400Y73700D02*
D03*
X119400D02*
D03*
D20*
X184121Y16544D02*
D03*
D21*
X172800Y-3849D02*
D03*
X160800Y16936D02*
D03*
D22*
X261200Y32500D02*
D03*
X-42500Y186800D02*
D03*
D23*
X32940Y-27000D02*
D03*
D24*
X-23700Y-600D02*
D03*
D25*
X-58200Y82500D02*
D03*
D26*
X3000Y246000D02*
D03*
D27*
X66000Y277700D02*
D03*
D28*
X199700Y259100D02*
D03*
D29*
X15300Y185800D02*
D03*
X37700Y198600D02*
D03*
X46800Y198300D02*
D03*
X46600Y223900D02*
D03*
X44600Y210000D02*
D03*
X48400Y207200D02*
D03*
X39000Y215000D02*
D03*
X50900Y190000D02*
D03*
X57100Y192500D02*
D03*
X42100Y189800D02*
D03*
X-39100Y171700D02*
D03*
X-42500Y163400D02*
D03*
X24100Y162600D02*
D03*
X31100Y173300D02*
D03*
X65300Y136400D02*
D03*
X62400Y162000D02*
D03*
X55600D02*
D03*
X59500Y158100D02*
D03*
X70900Y148200D02*
D03*
X74600Y151500D02*
D03*
X78700Y154300D02*
D03*
X96100Y175300D02*
D03*
X58700Y169900D02*
D03*
X68300Y130700D02*
D03*
X52100Y96700D02*
D03*
X57784Y90416D02*
D03*
X135200Y54500D02*
D03*
X125500Y26500D02*
D03*
X81300Y158300D02*
D03*
X53100Y92800D02*
D03*
X67100Y158000D02*
D03*
X62500Y173500D02*
D03*
X53100Y175800D02*
D03*
X50200Y174000D02*
D03*
X28100Y170000D02*
D03*
D30*
X170500Y67100D02*
D03*
X105200Y152900D02*
D03*
X61500Y24900D02*
D03*
X68600Y31100D02*
D03*
X75900Y37900D02*
D03*
D31*
X-15900Y201600D02*
D03*
X74900Y200800D02*
D03*
X62800Y194100D02*
D03*
X-5400Y193600D02*
D03*
X500Y193800D02*
D03*
X6600D02*
D03*
X27100Y233200D02*
D03*
X27300Y227000D02*
D03*
X27500Y220500D02*
D03*
X-27300Y152400D02*
D03*
X-20400Y152300D02*
D03*
X-12600Y152400D02*
D03*
X-5700Y152600D02*
D03*
X1800Y152400D02*
D03*
X-4900Y32200D02*
D03*
X2300Y38900D02*
D03*
X9800Y45000D02*
D03*
X15900Y50500D02*
D03*
X22800Y57700D02*
D03*
X33800Y30100D02*
D03*
Y21800D02*
D03*
Y13600D02*
D03*
X33600Y4800D02*
D03*
Y-4000D02*
D03*
X187200Y191500D02*
D03*
X196700D02*
D03*
X206600Y191600D02*
D03*
X187000Y183000D02*
D03*
X196900D02*
D03*
X206400Y183100D02*
D03*
X187200Y174000D02*
D03*
X197200Y173800D02*
D03*
X206200D02*
D03*
X145700D02*
D03*
X145500Y167200D02*
D03*
Y160900D02*
D03*
X145100Y154000D02*
D03*
X145200Y148200D02*
D03*
X165400Y122200D02*
D03*
Y113300D02*
D03*
X165700Y104900D02*
D03*
X165000Y96400D02*
D03*
X165500Y89400D02*
D03*
M02*
