G04 Layer_Color=8388736*
%FSLAX25Y25*%
%MOIN*%
G70*
G01*
G75*
G04:AMPARAMS|DCode=50|XSize=53.67mil|YSize=65.87mil|CornerRadius=0mil|HoleSize=0mil|Usage=FLASHONLY|Rotation=315.000|XOffset=0mil|YOffset=0mil|HoleType=Round|Shape=Rectangle|*
%AMROTATEDRECTD50*
4,1,4,-0.04227,-0.00432,0.00432,0.04227,0.04227,0.00432,-0.00432,-0.04227,-0.04227,-0.00432,0.0*
%
%ADD50ROTATEDRECTD50*%

%ADD51R,0.05367X0.06587*%
%ADD52C,0.05918*%
%ADD53C,0.24422*%
%ADD54C,0.06706*%
%ADD55R,0.06706X0.06706*%
G04:AMPARAMS|DCode=56|XSize=185.17mil|YSize=86.74mil|CornerRadius=0mil|HoleSize=0mil|Usage=FLASHONLY|Rotation=300.000|XOffset=0mil|YOffset=0mil|HoleType=Round|Shape=Round|*
%AMOVALD56*
21,1,0.09843,0.08674,0.00000,0.00000,300.0*
1,1,0.08674,-0.02461,0.04262*
1,1,0.08674,0.02461,-0.04262*
%
%ADD56OVALD56*%

G04:AMPARAMS|DCode=57|XSize=185.17mil|YSize=86.74mil|CornerRadius=0mil|HoleSize=0mil|Usage=FLASHONLY|Rotation=210.000|XOffset=0mil|YOffset=0mil|HoleType=Round|Shape=Round|*
%AMOVALD57*
21,1,0.09843,0.08674,0.00000,0.00000,210.0*
1,1,0.08674,0.04262,0.02461*
1,1,0.08674,-0.04262,-0.02461*
%
%ADD57OVALD57*%

%ADD58P,0.09483X4X285.0*%
%ADD59P,0.09483X4X195.0*%
%ADD60P,0.09483X4X160.0*%
%ADD61R,0.06706X0.06706*%
%ADD62P,0.09483X4X80.0*%
%ADD63P,0.09483X4X55.0*%
%ADD64P,0.09483X4X205.0*%
D50*
X208978Y205022D02*
D03*
X204022Y209978D02*
D03*
X226178Y188922D02*
D03*
X221222Y193878D02*
D03*
X202878Y166222D02*
D03*
X197922Y171178D02*
D03*
X186378Y182422D02*
D03*
X181422Y187378D02*
D03*
X164178Y160322D02*
D03*
X159222Y165278D02*
D03*
X180178Y144422D02*
D03*
X175222Y149378D02*
D03*
X142078Y138122D02*
D03*
X137122Y143078D02*
D03*
X158078Y121922D02*
D03*
X153122Y126878D02*
D03*
X82478Y78922D02*
D03*
X77522Y83878D02*
D03*
X70022Y76178D02*
D03*
X74978Y71222D02*
D03*
X61778Y57622D02*
D03*
X56822Y62578D02*
D03*
X75878Y44022D02*
D03*
X70922Y48978D02*
D03*
X54278Y22322D02*
D03*
X49322Y27278D02*
D03*
X35422Y40978D02*
D03*
X40378Y36022D02*
D03*
X16778Y12122D02*
D03*
X11822Y17078D02*
D03*
X26022Y3378D02*
D03*
X30978Y-1578D02*
D03*
D51*
X97996Y172300D02*
D03*
X105004D02*
D03*
X97996Y162100D02*
D03*
X105004D02*
D03*
X122904Y162100D02*
D03*
X115896D02*
D03*
X123004Y172200D02*
D03*
X115996D02*
D03*
X98996Y35100D02*
D03*
X106004D02*
D03*
X124004Y34900D02*
D03*
X116996D02*
D03*
X124104Y45800D02*
D03*
X117096D02*
D03*
X106204Y45700D02*
D03*
X99196D02*
D03*
D52*
X127400Y119800D02*
D03*
X117400D02*
D03*
X94100Y99700D02*
D03*
X104100D02*
D03*
X94000Y119900D02*
D03*
X104000D02*
D03*
X127300Y99700D02*
D03*
X117300D02*
D03*
D53*
X221500Y221600D02*
D03*
X-100D02*
D03*
X0Y0D02*
D03*
X221500D02*
D03*
D54*
X102400Y73700D02*
D03*
X129400D02*
D03*
X256200Y23840D02*
D03*
X41600Y-32000D02*
D03*
X50260Y-37000D02*
D03*
X-53283Y62841D02*
D03*
X-49057Y53778D02*
D03*
X-44831Y44715D02*
D03*
X-40605Y35652D02*
D03*
X-36379Y26589D02*
D03*
X-32152Y17526D02*
D03*
X-27926Y8463D02*
D03*
X-58200Y152500D02*
D03*
Y142500D02*
D03*
Y132500D02*
D03*
Y122500D02*
D03*
Y112500D02*
D03*
Y102500D02*
D03*
Y92500D02*
D03*
X-27500Y212781D02*
D03*
X-32500Y204120D02*
D03*
X-37500Y195460D02*
D03*
X27575Y263207D02*
D03*
X19383Y257471D02*
D03*
X11191Y251736D02*
D03*
X75848Y279436D02*
D03*
X85696Y281173D02*
D03*
X133922Y283041D02*
D03*
X143318Y279621D02*
D03*
X152715Y276201D02*
D03*
X162112Y272781D02*
D03*
X171509Y269361D02*
D03*
X180906Y265940D02*
D03*
X190303Y262520D02*
D03*
D55*
X92400Y73700D02*
D03*
X119400D02*
D03*
D56*
X184121Y16544D02*
D03*
D57*
X172800Y-3849D02*
D03*
X160800Y16936D02*
D03*
D58*
X261200Y32500D02*
D03*
X-42500Y186800D02*
D03*
D59*
X32940Y-27000D02*
D03*
D60*
X-23700Y-600D02*
D03*
D61*
X-58200Y82500D02*
D03*
D62*
X3000Y246000D02*
D03*
D63*
X66000Y277700D02*
D03*
D64*
X199700Y259100D02*
D03*
M02*
